  0
SECTION
  2
HEADER
  9
$ACADVER
  1
AC1014
  9
$HANDSEED
  5
FFFF
  9
$MEASUREMENT
 70
     1
  0
ENDSEC
  0
SECTION
  2
TABLES
  0
TABLE
  2
VPORT
  5
8
330
0
100
AcDbSymbolTable
 70
     4
  0
VPORT
  5
2E
330
8
100
AcDbSymbolTableRecord
100
AcDbViewportTableRecord
  2
*ACTIVE
 70
     0
 10
0.0
 20
0.0
 11
1.0
 21
1.0
 12
210.0
 22
148.5
 13
0.0
 23
0.0
 14
10.0
 24
10.0
 15
10.0
 25
10.0
 16
0.0
 26
0.0
 36
1.0
 17
0.0
 27
0.0
 37
0.0
 40
341.0
 41
1.24
 42
50.0
 43
0.0
 44
0.0
 50
0.0
 51
0.0
 71
     0
 72
   100
 73
     1
 74
     3
 75
     0
 76
     0
 77
     0
 78
     0
  0
ENDTAB
  0
TABLE
  2
LTYPE
  5
5
330
0
100
AcDbSymbolTable
 70
     1
  0
LTYPE
  5
14
330
5
100
AcDbSymbolTableRecord
100
AcDbLinetypeTableRecord
  2
BYBLOCK
 70
     0
  3

 72
    65
 73
     0
 40
0.0
  0
LTYPE
  5
15
330
5
100
AcDbSymbolTableRecord
100
AcDbLinetypeTableRecord
  2
BYLAYER
 70
     0
  3

 72
    65
 73
     0
 40
0.0
  0
LTYPE
  5
16
330
5
100
AcDbSymbolTableRecord
100
AcDbLinetypeTableRecord
  2
CONTINUOUS
 70
     0
  3
Solid line
 72
    65
 73
     0
 40
0.0
  0
ENDTAB
  0
TABLE
  2
LAYER
  5
2
100
AcDbSymbolTable
 70
2
  0
LAYER
  5
50
100
AcDbSymbolTableRecord
100
AcDbLayerTableRecord
  2
0
 70
0
  6
CONTINUOUS
  0
LAYER
  5
51
100
AcDbSymbolTableRecord
100
AcDbLayerTableRecord
  2
Layer_1
 70
0
  6
CONTINUOUS
  0
ENDTAB
  0
TABLE
  2
STYLE
  5
3
330
0
100
AcDbSymbolTable
 70
     1
  0
STYLE
  5
11
330
3
100
AcDbSymbolTableRecord
100
AcDbTextStyleTableRecord
  2
STANDARD
 70
     0
 40
0.0
 41
1.0
 50
0.0
 71
     0
 42
2.5
  3
txt
  4

  0
ENDTAB
  0
TABLE
  2
VIEW
  5
6
330
0
100
AcDbSymbolTable
 70
     0
  0
ENDTAB
  0
TABLE
  2
UCS
  5
7
330
0
100
AcDbSymbolTable
 70
     0
  0
ENDTAB
  0
TABLE
  2
APPID
  5
9
330
0
100
AcDbSymbolTable
 70
     2
  0
APPID
  5
12
330
9
100
AcDbSymbolTableRecord
100
AcDbRegAppTableRecord
  2
ACAD
 70
     0
  0
ENDTAB
  0
TABLE
  2
DIMSTYLE
  5
A
330
0
100
AcDbSymbolTable
 70
     1
  0
DIMSTYLE
105
27
330
A
100
AcDbSymbolTableRecord
100
AcDbDimStyleTableRecord
  2
ISO-25
 70
     0
  3

  4

  5

  6

  7

 40
1.0
 41
2.5
 42
0.625
 43
3.75
 44
1.25
 45
0.0
 46
0.0
 47
0.0
 48
0.0
140
2.5
141
2.5
142
0.0
143
0.03937007874016
144
1.0
145
0.0
146
1.0
147
0.625
 71
     0
 72
     0
 73
     0
 74
     0
 75
     0
 76
     0
 77
     1
 78
     8
170
     0
171
     3
172
     1
173
     0
174
     0
175
     0
176
     0
177
     0
178
     0
270
     2
271
     2
272
     2
273
     2
274
     3
340
11
275
     0
280
     0
281
     0
282
     0
283
     0
284
     8
285
     0
286
     0
287
     3
288
     0
  0
ENDTAB
  0
TABLE
  2
BLOCK_RECORD
  5
1
330
0
100
AcDbSymbolTable
 70
     1
  0
BLOCK_RECORD
  5
1F
330
1
100
AcDbSymbolTableRecord
100
AcDbBlockTableRecord
  2
*MODEL_SPACE
  0
BLOCK_RECORD
  5
1B
330
1
100
AcDbSymbolTableRecord
100
AcDbBlockTableRecord
  2
*PAPER_SPACE
  0
ENDTAB
  0
ENDSEC
  0
SECTION
  2
BLOCKS
  0
BLOCK
  5
20
330
1F
100
AcDbEntity
  8
0
100
AcDbBlockBegin
  2
*MODEL_SPACE
 70
     0
 10
0.0
 20
0.0
 30
0.0
  3
*MODEL_SPACE
  1

  0
ENDBLK
  5
21
330
1F
100
AcDbEntity
  8
0
100
AcDbBlockEnd
  0
BLOCK
  5
1C
330
1B
100
AcDbEntity
 67
     1
  8
0
100
AcDbBlockBegin
  2
*PAPER_SPACE
  1

  0
ENDBLK
  5
1D
330
1B
100
AcDbEntity
 67
     1
  8
0
100
AcDbBlockEnd
  0
ENDSEC
  0
SECTION
  2
ENTITIES
  0
LWPOLYLINE
  5
100
100
AcDbEntity
  8
Layer_1
 62
7
100
AcDbPolyline
 90
887
 70
1
 10
2.673930
 20
0.887630
 30
0.0
 10
2.663719
 20
0.886518
 30
0.0
 10
2.653504
 20
0.885378
 30
0.0
 10
2.643300
 20
0.884211
 30
0.0
 10
2.633101
 20
0.883014
 30
0.0
 10
2.622902
 20
0.881783
 30
0.0
 10
2.612699
 20
0.880518
 30
0.0
 10
2.602514
 20
0.879218
 30
0.0
 10
2.592325
 20
0.877879
 30
0.0
 10
2.582137
 20
0.876500
 30
0.0
 10
2.571954
 20
0.875079
 30
0.0
 10
2.561782
 20
0.873614
 30
0.0
 10
2.551614
 20
0.872103
 30
0.0
 10
2.541446
 20
0.870544
 30
0.0
 10
2.531291
 20
0.868936
 30
0.0
 10
2.521153
 20
0.867277
 30
0.0
 10
2.511022
 20
0.865565
 30
0.0
 10
2.500894
 20
0.863796
 30
0.0
 10
2.490785
 20
0.861972
 30
0.0
 10
2.480678
 20
0.860087
 30
0.0
 10
2.470587
 20
0.858141
 30
0.0
 10
2.460499
 20
0.856131
 30
0.0
 10
2.450424
 20
0.854055
 30
0.0
 10
2.440369
 20
0.851914
 30
0.0
 10
2.430334
 20
0.849705
 30
0.0
 10
2.420318
 20
0.847427
 30
0.0
 10
2.410321
 20
0.845076
 30
0.0
 10
2.400336
 20
0.842650
 30
0.0
 10
2.390360
 20
0.840146
 30
0.0
 10
2.380412
 20
0.837566
 30
0.0
 10
2.370477
 20
0.834904
 30
0.0
 10
2.360566
 20
0.832162
 30
0.0
 10
2.350683
 20
0.829338
 30
0.0
 10
2.340821
 20
0.826429
 30
0.0
 10
2.330994
 20
0.823436
 30
0.0
 10
2.321203
 20
0.820359
 30
0.0
 10
2.311429
 20
0.817190
 30
0.0
 10
2.301687
 20
0.813931
 30
0.0
 10
2.291968
 20
0.810577
 30
0.0
 10
2.282379
 20
0.807305
 30
0.0
 10
2.272822
 20
0.803916
 30
0.0
 10
2.263315
 20
0.800403
 30
0.0
 10
2.253857
 20
0.796751
 30
0.0
 10
2.244459
 20
0.792949
 30
0.0
 10
2.235137
 20
0.788990
 30
0.0
 10
2.225890
 20
0.784857
 30
0.0
 10
2.216715
 20
0.780533
 30
0.0
 10
2.207642
 20
0.776015
 30
0.0
 10
2.198669
 20
0.771285
 30
0.0
 10
2.189820
 20
0.766339
 30
0.0
 10
2.181105
 20
0.761163
 30
0.0
 10
2.172534
 20
0.755746
 30
0.0
 10
2.164131
 20
0.750082
 30
0.0
 10
2.155902
 20
0.744159
 30
0.0
 10
2.147870
 20
0.737972
 30
0.0
 10
2.140047
 20
0.731512
 30
0.0
 10
2.132472
 20
0.724794
 30
0.0
 10
2.125141
 20
0.717797
 30
0.0
 10
2.118075
 20
0.710525
 30
0.0
 10
2.111295
 20
0.702982
 30
0.0
 10
2.104823
 20
0.695183
 30
0.0
 10
2.098943
 20
0.686893
 30
0.0
 10
2.093612
 20
0.678253
 30
0.0
 10
2.088840
 20
0.669278
 30
0.0
 10
2.084655
 20
0.660025
 30
0.0
 10
2.081067
 20
0.650522
 30
0.0
 10
2.078088
 20
0.640810
 30
0.0
 10
2.075727
 20
0.630933
 30
0.0
 10
2.073989
 20
0.620916
 30
0.0
 10
2.072882
 20
0.610823
 30
0.0
 10
2.072406
 20
0.600679
 30
0.0
 10
2.072565
 20
0.590511
 30
0.0
 10
2.073359
 20
0.580388
 30
0.0
 10
2.074792
 20
0.570316
 30
0.0
 10
2.076861
 20
0.560360
 30
0.0
 10
2.079562
 20
0.550572
 30
0.0
 10
2.082997
 20
0.540822
 30
0.0
 10
2.086839
 20
0.531220
 30
0.0
 10
2.091066
 20
0.521787
 30
0.0
 10
2.095659
 20
0.512525
 30
0.0
 10
2.100597
 20
0.503441
 30
0.0
 10
2.105856
 20
0.494542
 30
0.0
 10
2.111420
 20
0.485818
 30
0.0
 10
2.117257
 20
0.477282
 30
0.0
 10
2.123344
 20
0.468935
 30
0.0
 10
2.129677
 20
0.460749
 30
0.0
 10
2.136217
 20
0.452741
 30
0.0
 10
2.142955
 20
0.444892
 30
0.0
 10
2.149866
 20
0.437201
 30
0.0
 10
2.156935
 20
0.429654
 30
0.0
 10
2.164148
 20
0.422235
 30
0.0
 10
2.171471
 20
0.414950
 30
0.0
 10
2.178746
 20
0.407829
 30
0.0
 10
2.186112
 20
0.400798
 30
0.0
 10
2.193564
 20
0.393855
 30
0.0
 10
2.201088
 20
0.387011
 30
0.0
 10
2.208695
 20
0.380249
 30
0.0
 10
2.216369
 20
0.373579
 30
0.0
 10
2.224119
 20
0.366989
 30
0.0
 10
2.231944
 20
0.360476
 30
0.0
 10
2.239824
 20
0.354052
 30
0.0
 10
2.247772
 20
0.347703
 30
0.0
 10
2.255782
 20
0.341432
 30
0.0
 10
2.263846
 20
0.335239
 30
0.0
 10
2.271968
 20
0.329119
 30
0.0
 10
2.280151
 20
0.323066
 30
0.0
 10
2.288393
 20
0.317079
 30
0.0
 10
2.296675
 20
0.311169
 30
0.0
 10
2.305015
 20
0.305320
 30
0.0
 10
2.313387
 20
0.299548
 30
0.0
 10
2.321811
 20
0.293835
 30
0.0
 10
2.330284
 20
0.288181
 30
0.0
 10
2.338789
 20
0.282596
 30
0.0
 10
2.347331
 20
0.277072
 30
0.0
 10
2.355915
 20
0.271604
 30
0.0
 10
2.364541
 20
0.266190
 30
0.0
 10
2.373202
 20
0.260831
 30
0.0
 10
2.381885
 20
0.255534
 30
0.0
 10
2.390600
 20
0.250288
 30
0.0
 10
2.399354
 20
0.245089
 30
0.0
 10
2.408140
 20
0.239936
 30
0.0
 10
2.416941
 20
0.234837
 30
0.0
 10
2.425772
 20
0.229781
 30
0.0
 10
2.434625
 20
0.224769
 30
0.0
 10
2.443507
 20
0.219793
 30
0.0
 10
2.452407
 20
0.214855
 30
0.0
 10
2.461332
 20
0.209949
 30
0.0
 10
2.470274
 20
0.205072
 30
0.0
 10
2.479222
 20
0.200225
 30
0.0
 10
2.488169
 20
0.195403
 30
0.0
 10
2.497166
 20
0.191007
 30
0.0
 10
2.506155
 20
0.186618
 30
0.0
 10
2.515152
 20
0.182226
 30
0.0
 10
2.524148
 20
0.177839
 30
0.0
 10
2.533142
 20
0.173455
 30
0.0
 10
2.542143
 20
0.169071
 30
0.0
 10
2.551145
 20
0.164690
 30
0.0
 10
2.560144
 20
0.160312
 30
0.0
 10
2.569137
 20
0.155941
 30
0.0
 10
2.578135
 20
0.151570
 30
0.0
 10
2.587135
 20
0.147202
 30
0.0
 10
2.596142
 20
0.142834
 30
0.0
 10
2.605152
 20
0.138468
 30
0.0
 10
2.614155
 20
0.134108
 30
0.0
 10
2.623152
 20
0.129755
 30
0.0
 10
2.632162
 20
0.125401
 30
0.0
 10
2.641167
 20
0.121053
 30
0.0
 10
2.650170
 20
0.116710
 30
0.0
 10
2.659178
 20
0.112370
 30
0.0
 10
2.668196
 20
0.108032
 30
0.0
 10
2.677214
 20
0.103702
 30
0.0
 10
2.668582
 20
0.108729
 30
0.0
 10
2.659941
 20
0.113750
 30
0.0
 10
2.651306
 20
0.118762
 30
0.0
 10
2.642664
 20
0.123773
 30
0.0
 10
2.634014
 20
0.128783
 30
0.0
 10
2.625367
 20
0.133787
 30
0.0
 10
2.616720
 20
0.138787
 30
0.0
 10
2.608062
 20
0.143790
 30
0.0
 10
2.599410
 20
0.148785
 30
0.0
 10
2.590764
 20
0.153774
 30
0.0
 10
2.582106
 20
0.158766
 30
0.0
 10
2.573454
 20
0.163751
 30
0.0
 10
2.564804
 20
0.168732
 30
0.0
 10
2.556133
 20
0.173722
 30
0.0
 10
2.547468
 20
0.178705
 30
0.0
 10
2.538814
 20
0.183679
 30
0.0
 10
2.530142
 20
0.188660
 30
0.0
 10
2.521476
 20
0.193635
 30
0.0
 10
2.512809
 20
0.198608
 30
0.0
 10
2.504132
 20
0.203583
 30
0.0
 10
2.495471
 20
0.208547
 30
0.0
 10
2.486812
 20
0.213983
 30
0.0
 10
2.478158
 20
0.219435
 30
0.0
 10
2.469522
 20
0.224904
 30
0.0
 10
2.460899
 20
0.230398
 30
0.0
 10
2.452293
 20
0.235922
 30
0.0
 10
2.443706
 20
0.241478
 30
0.0
 10
2.435151
 20
0.247062
 30
0.0
 10
2.426615
 20
0.252687
 30
0.0
 10
2.418096
 20
0.258357
 30
0.0
 10
2.409608
 20
0.264066
 30
0.0
 10
2.401153
 20
0.269817
 30
0.0
 10
2.392731
 20
0.275611
 30
0.0
 10
2.384348
 20
0.281448
 30
0.0
 10
2.375985
 20
0.287344
 30
0.0
 10
2.367664
 20
0.293287
 30
0.0
 10
2.359375
 20
0.299287
 30
0.0
 10
2.351133
 20
0.305335
 30
0.0
 10
2.342936
 20
0.311435
 30
0.0
 10
2.334780
 20
0.317596
 30
0.0
 10
2.326665
 20
0.323818
 30
0.0
 10
2.318594
 20
0.330105
 30
0.0
 10
2.310581
 20
0.336446
 30
0.0
 10
2.302616
 20
0.342855
 30
0.0
 10
2.294699
 20
0.349335
 30
0.0
 10
2.286848
 20
0.355875
 30
0.0
 10
2.279046
 20
0.362493
 30
0.0
 10
2.271315
 20
0.369175
 30
0.0
 10
2.263642
 20
0.375938
 30
0.0
 10
2.256035
 20
0.382776
 30
0.0
 10
2.248505
 20
0.389687
 30
0.0
 10
2.241044
 20
0.396683
 30
0.0
 10
2.233662
 20
0.403760
 30
0.0
 10
2.226363
 20
0.410919
 30
0.0
 10
2.219153
 20
0.418162
 30
0.0
 10
2.212026
 20
0.425501
 30
0.0
 10
2.204991
 20
0.432933
 30
0.0
 10
2.198066
 20
0.440447
 30
0.0
 10
2.191600
 20
0.447721
 30
0.0
 10
2.185223
 20
0.455064
 30
0.0
 10
2.178949
 20
0.462497
 30
0.0
 10
2.172799
 20
0.470036
 30
0.0
 10
2.166796
 20
0.477693
 30
0.0
 10
2.160963
 20
0.485481
 30
0.0
 10
2.155334
 20
0.493405
 30
0.0
 10
2.149932
 20
0.501481
 30
0.0
 10
2.144786
 20
0.509729
 30
0.0
 10
2.139931
 20
0.518160
 30
0.0
 10
2.135411
 20
0.526771
 30
0.0
 10
2.131270
 20
0.535570
 30
0.0
 10
2.127552
 20
0.544562
 30
0.0
 10
2.124314
 20
0.553724
 30
0.0
 10
2.121600
 20
0.563058
 30
0.0
 10
2.119418
 20
0.572613
 30
0.0
 10
2.118096
 20
0.582338
 30
0.0
 10
2.117616
 20
0.592147
 30
0.0
 10
2.117963
 20
0.601956
 30
0.0
 10
2.119124
 20
0.611705
 30
0.0
 10
2.121091
 20
0.621313
 30
0.0
 10
2.123864
 20
0.630720
 30
0.0
 10
2.127448
 20
0.639859
 30
0.0
 10
2.131842
 20
0.648632
 30
0.0
 10
2.137042
 20
0.656948
 30
0.0
 10
2.143039
 20
0.664709
 30
0.0
 10
2.149649
 20
0.672475
 30
0.0
 10
2.156720
 20
0.679822
 30
0.0
 10
2.164203
 20
0.686754
 30
0.0
 10
2.172046
 20
0.693275
 30
0.0
 10
2.180199
 20
0.699401
 30
0.0
 10
2.188615
 20
0.705153
 30
0.0
 10
2.197252
 20
0.710556
 30
0.0
 10
2.206088
 20
0.715646
 30
0.0
 10
2.215078
 20
0.720444
 30
0.0
 10
2.224208
 20
0.724985
 30
0.0
 10
2.233451
 20
0.729294
 30
0.0
 10
2.242793
 20
0.733400
 30
0.0
 10
2.252197
 20
0.737320
 30
0.0
 10
2.261664
 20
0.741085
 30
0.0
 10
2.271197
 20
0.744724
 30
0.0
 10
2.280759
 20
0.748249
 30
0.0
 10
2.290362
 20
0.751687
 30
0.0
 10
2.300000
 20
0.755060
 30
0.0
 10
2.309636
 20
0.758376
 30
0.0
 10
2.319363
 20
0.761494
 30
0.0
 10
2.329125
 20
0.764518
 30
0.0
 10
2.338906
 20
0.767447
 30
0.0
 10
2.348709
 20
0.770284
 30
0.0
 10
2.358538
 20
0.773033
 30
0.0
 10
2.368394
 20
0.775696
 30
0.0
 10
2.378274
 20
0.778276
 30
0.0
 10
2.388177
 20
0.780773
 30
0.0
 10
2.398097
 20
0.783191
 30
0.0
 10
2.408045
 20
0.785533
 30
0.0
 10
2.418012
 20
0.787800
 30
0.0
 10
2.427985
 20
0.789991
 30
0.0
 10
2.437982
 20
0.792114
 30
0.0
 10
2.447986
 20
0.794167
 30
0.0
 10
2.458006
 20
0.796155
 30
0.0
 10
2.468031
 20
0.798077
 30
0.0
 10
2.478073
 20
0.799940
 30
0.0
 10
2.488136
 20
0.801746
 30
0.0
 10
2.498195
 20
0.803492
 30
0.0
 10
2.508263
 20
0.805185
 30
0.0
 10
2.518345
 20
0.806827
 30
0.0
 10
2.528433
 20
0.808420
 30
0.0
 10
2.538525
 20
0.809965
 30
0.0
 10
2.548625
 20
0.811465
 30
0.0
 10
2.558748
 20
0.812926
 30
0.0
 10
2.568868
 20
0.814345
 30
0.0
 10
2.578992
 20
0.815726
 30
0.0
 10
2.589116
 20
0.817072
 30
0.0
 10
2.599257
 20
0.818385
 30
0.0
 10
2.609403
 20
0.819668
 30
0.0
 10
2.619532
 20
0.820919
 30
0.0
 10
2.629675
 20
0.822146
 30
0.0
 10
2.639815
 20
0.823347
 30
0.0
 10
2.649975
 20
0.824527
 30
0.0
 10
2.660124
 20
0.825686
 30
0.0
 10
2.670265
 20
0.826826
 30
0.0
 10
2.680427
 20
0.827952
 30
0.0
 10
2.680469
 20
0.827956
 30
0.0
 10
2.690767
 20
0.829092
 30
0.0
 10
2.701072
 20
0.830257
 30
0.0
 10
2.711374
 20
0.831453
 30
0.0
 10
2.721678
 20
0.832680
 30
0.0
 10
2.731976
 20
0.833939
 30
0.0
 10
2.742258
 20
0.835229
 30
0.0
 10
2.752542
 20
0.836554
 30
0.0
 10
2.762816
 20
0.837913
 30
0.0
 10
2.773097
 20
0.839309
 30
0.0
 10
2.783372
 20
0.840743
 30
0.0
 10
2.793631
 20
0.842213
 30
0.0
 10
2.803885
 20
0.843724
 30
0.0
 10
2.814144
 20
0.845277
 30
0.0
 10
2.824396
 20
0.846872
 30
0.0
 10
2.834626
 20
0.848509
 30
0.0
 10
2.844865
 20
0.850195
 30
0.0
 10
2.855095
 20
0.851927
 30
0.0
 10
2.865301
 20
0.853706
 30
0.0
 10
2.875508
 20
0.855537
 30
0.0
 10
2.885697
 20
0.857420
 30
0.0
 10
2.895888
 20
0.859359
 30
0.0
 10
2.906060
 20
0.861354
 30
0.0
 10
2.916228
 20
0.863411
 30
0.0
 10
2.926388
 20
0.865529
 30
0.0
 10
2.936532
 20
0.867712
 30
0.0
 10
2.946654
 20
0.869961
 30
0.0
 10
2.956758
 20
0.872279
 30
0.0
 10
2.966847
 20
0.874670
 30
0.0
 10
2.976920
 20
0.877139
 30
0.0
 10
2.986961
 20
0.879684
 30
0.0
 10
2.996989
 20
0.882316
 30
0.0
 10
3.006995
 20
0.885035
 30
0.0
 10
3.016965
 20
0.887843
 30
0.0
 10
3.026928
 20
0.890754
 30
0.0
 10
3.036849
 20
0.893763
 30
0.0
 10
3.046746
 20
0.896881
 30
0.0
 10
3.056597
 20
0.900109
 30
0.0
 10
3.066406
 20
0.903453
 30
0.0
 10
3.076183
 20
0.906927
 30
0.0
 10
3.085897
 20
0.910526
 30
0.0
 10
3.095571
 20
0.914269
 30
0.0
 10
3.105185
 20
0.918158
 30
0.0
 10
3.114737
 20
0.922203
 30
0.0
 10
3.124208
 20
0.926408
 30
0.0
 10
3.133610
 20
0.930791
 30
0.0
 10
3.142912
 20
0.935353
 30
0.0
 10
3.152120
 20
0.940112
 30
0.0
 10
3.161227
 20
0.945081
 30
0.0
 10
3.170203
 20
0.950264
 30
0.0
 10
3.179041
 20
0.955676
 30
0.0
 10
3.187723
 20
0.961329
 30
0.0
 10
3.196238
 20
0.967241
 30
0.0
 10
3.204554
 20
0.973417
 30
0.0
 10
3.212665
 20
0.979882
 30
0.0
 10
3.220534
 20
0.986638
 30
0.0
 10
3.228139
 20
0.993700
 30
0.0
 10
3.235439
 20
1.001064
 30
0.0
 10
3.242409
 20
1.008741
 30
0.0
 10
3.249008
 20
1.016721
 30
0.0
 10
3.255125
 20
1.024948
 30
0.0
 10
3.260749
 20
1.033505
 30
0.0
 10
3.265838
 20
1.042390
 30
0.0
 10
3.270352
 20
1.051592
 30
0.0
 10
3.274240
 20
1.061065
 30
0.0
 10
3.277477
 20
1.070789
 30
0.0
 10
3.280035
 20
1.080711
 30
0.0
 10
3.281901
 20
1.090778
 30
0.0
 10
3.283078
 20
1.100947
 30
0.0
 10
3.283579
 20
1.111188
 30
0.0
 10
3.283424
 20
1.121431
 30
0.0
 10
3.282643
 20
1.131645
 30
0.0
 10
3.281270
 20
1.141806
 30
0.0
 10
3.279344
 20
1.151878
 30
0.0
 10
3.276909
 20
1.161823
 30
0.0
 10
3.274001
 20
1.171639
 30
0.0
 10
3.270658
 20
1.181317
 30
0.0
 10
3.266912
 20
1.190853
 30
0.0
 10
3.262801
 20
1.200231
 30
0.0
 10
3.258347
 20
1.209467
 30
0.0
 10
3.253585
 20
1.218539
 30
0.0
 10
3.248537
 20
1.227456
 30
0.0
 10
3.243227
 20
1.236217
 30
0.0
 10
3.237672
 20
1.244829
 30
0.0
 10
3.231894
 20
1.253287
 30
0.0
 10
3.225905
 20
1.261601
 30
0.0
 10
3.219723
 20
1.269769
 30
0.0
 10
3.213351
 20
1.277804
 30
0.0
 10
3.206818
 20
1.285689
 30
0.0
 10
3.200120
 20
1.293445
 30
0.0
 10
3.193270
 20
1.301068
 30
0.0
 10
3.186271
 20
1.308566
 30
0.0
 10
3.179164
 20
1.315932
 30
0.0
 10
3.171950
 20
1.323201
 30
0.0
 10
3.164647
 20
1.330365
 30
0.0
 10
3.157255
 20
1.337435
 30
0.0
 10
3.149779
 20
1.344415
 30
0.0
 10
3.142220
 20
1.351311
 30
0.0
 10
3.134582
 20
1.358127
 30
0.0
 10
3.126871
 20
1.364865
 30
0.0
 10
3.119092
 20
1.371526
 30
0.0
 10
3.111252
 20
1.378111
 30
0.0
 10
3.103359
 20
1.384618
 30
0.0
 10
3.095410
 20
1.391055
 30
0.0
 10
3.087402
 20
1.397429
 30
0.0
 10
3.079350
 20
1.403732
 30
0.0
 10
3.071244
 20
1.409977
 30
0.0
 10
3.063091
 20
1.416160
 30
0.0
 10
3.054902
 20
1.422279
 30
0.0
 10
3.046656
 20
1.428351
 30
0.0
 10
3.038373
 20
1.434365
 30
0.0
 10
3.030055
 20
1.440322
 30
0.0
 10
3.021700
 20
1.446227
 30
0.0
 10
3.013308
 20
1.452082
 30
0.0
 10
3.004876
 20
1.457892
 30
0.0
 10
2.996423
 20
1.463645
 30
0.0
 10
2.987931
 20
1.469357
 30
0.0
 10
2.979417
 20
1.475017
 30
0.0
 10
2.970873
 20
1.480634
 30
0.0
 10
2.962294
 20
1.486211
 30
0.0
 10
2.953689
 20
1.491747
 30
0.0
 10
2.945054
 20
1.497243
 30
0.0
 10
2.936398
 20
1.502697
 30
0.0
 10
2.927725
 20
1.508107
 30
0.0
 10
2.919013
 20
1.513488
 30
0.0
 10
2.910284
 20
1.518829
 30
0.0
 10
2.901541
 20
1.524128
 30
0.0
 10
2.892775
 20
1.529392
 30
0.0
 10
2.883975
 20
1.534631
 30
0.0
 10
2.875162
 20
1.539831
 30
0.0
 10
2.866561
 20
1.544862
 30
0.0
 10
2.857935
 20
1.549864
 30
0.0
 10
2.849297
 20
1.554831
 30
0.0
 10
2.840648
 20
1.559761
 30
0.0
 10
2.831975
 20
1.564662
 30
0.0
 10
2.823281
 20
1.569534
 30
0.0
 10
2.814579
 20
1.574370
 30
0.0
 10
2.805852
 20
1.579178
 30
0.0
 10
2.797104
 20
1.583958
 30
0.0
 10
2.788343
 20
1.588704
 30
0.0
 10
2.779560
 20
1.593422
 30
0.0
 10
2.770771
 20
1.598102
 30
0.0
 10
2.761968
 20
1.602750
 30
0.0
 10
2.753134
 20
1.607372
 30
0.0
 10
2.744285
 20
1.611960
 30
0.0
 10
2.736401
 20
1.616012
 30
0.0
 10
2.728509
 20
1.620032
 30
0.0
 10
2.720602
 20
1.624024
 30
0.0
 10
2.712675
 20
1.627986
 30
0.0
 10
2.704736
 20
1.631911
 30
0.0
 10
2.697399
 20
1.635539
 30
0.0
 10
2.690022
 20
1.639038
 30
0.0
 10
2.681450
 20
1.643079
 30
0.0
 10
2.672888
 20
1.647114
 30
0.0
 10
2.664335
 20
1.651145
 30
0.0
 10
2.655769
 20
1.655181
 30
0.0
 10
2.647202
 20
1.659217
 30
0.0
 10
2.647202
 20
1.649750
 30
0.0
 10
2.647202
 20
1.640278
 30
0.0
 10
2.647202
 20
1.630818
 30
0.0
 10
2.647202
 20
1.621342
 30
0.0
 10
2.647202
 20
1.611873
 30
0.0
 10
2.647204
 20
1.601466
 30
0.0
 10
2.647210
 20
1.591055
 30
0.0
 10
2.647219
 20
1.580659
 30
0.0
 10
2.647232
 20
1.570262
 30
0.0
 10
2.647249
 20
1.559864
 30
0.0
 10
2.647269
 20
1.549466
 30
0.0
 10
2.647293
 20
1.539069
 30
0.0
 10
2.647321
 20
1.528659
 30
0.0
 10
2.647352
 20
1.518251
 30
0.0
 10
2.647387
 20
1.507848
 30
0.0
 10
2.647425
 20
1.497449
 30
0.0
 10
2.647467
 20
1.487041
 30
0.0
 10
2.647512
 20
1.476639
 30
0.0
 10
2.647560
 20
1.466230
 30
0.0
 10
2.647612
 20
1.455829
 30
0.0
 10
2.647667
 20
1.445423
 30
0.0
 10
2.647726
 20
1.435027
 30
0.0
 10
2.647788
 20
1.424628
 30
0.0
 10
2.647853
 20
1.414227
 30
0.0
 10
2.647921
 20
1.403823
 30
0.0
 10
2.647993
 20
1.393420
 30
0.0
 10
2.648067
 20
1.383017
 30
0.0
 10
2.648145
 20
1.372616
 30
0.0
 10
2.648226
 20
1.362218
 30
0.0
 10
2.648310
 20
1.351825
 30
0.0
 10
2.648398
 20
1.341422
 30
0.0
 10
2.648488
 20
1.331011
 30
0.0
 10
2.648581
 20
1.320608
 30
0.0
 10
2.648678
 20
1.310214
 30
0.0
 10
2.648777
 20
1.299801
 30
0.0
 10
2.648880
 20
1.289401
 30
0.0
 10
2.648985
 20
1.278998
 30
0.0
 10
2.649094
 20
1.268596
 30
0.0
 10
2.649205
 20
1.258195
 30
0.0
 10
2.649319
 20
1.247797
 30
0.0
 10
2.649436
 20
1.237388
 30
0.0
 10
2.649556
 20
1.226986
 30
0.0
 10
2.649679
 20
1.216591
 30
0.0
 10
2.649805
 20
1.206191
 30
0.0
 10
2.649933
 20
1.195787
 30
0.0
 10
2.650064
 20
1.185381
 30
0.0
 10
2.650199
 20
1.174975
 30
0.0
 10
2.650336
 20
1.164571
 30
0.0
 10
2.650475
 20
1.154169
 30
0.0
 10
2.650617
 20
1.143773
 30
0.0
 10
2.650763
 20
1.133370
 30
0.0
 10
2.650910
 20
1.122963
 30
0.0
 10
2.651061
 20
1.112566
 30
0.0
 10
2.651214
 20
1.102155
 30
0.0
 10
2.651370
 20
1.091758
 30
0.0
 10
2.651528
 20
1.081352
 30
0.0
 10
2.651690
 20
1.070939
 30
0.0
 10
2.651853
 20
1.060545
 30
0.0
 10
2.652019
 20
1.050148
 30
0.0
 10
2.652188
 20
1.039750
 30
0.0
 10
2.652360
 20
1.029353
 30
0.0
 10
2.652533
 20
1.018961
 30
0.0
 10
2.652710
 20
1.008550
 30
0.0
 10
2.652889
 20
0.998148
 30
0.0
 10
2.653071
 20
0.987745
 30
0.0
 10
2.653255
 20
0.977343
 30
0.0
 10
2.653442
 20
0.966934
 30
0.0
 10
2.653631
 20
0.956521
 30
0.0
 10
2.653823
 20
0.946129
 30
0.0
 10
2.654017
 20
0.935726
 30
0.0
 10
2.654213
 20
0.925316
 30
0.0
 10
2.654413
 20
0.914914
 30
0.0
 10
2.654614
 20
0.904520
 30
0.0
 10
2.654818
 20
0.894118
 30
0.0
 10
2.655024
 20
0.883711
 30
0.0
 10
2.655233
 20
0.873302
 30
0.0
 10
2.655444
 20
0.862895
 30
0.0
 10
2.655658
 20
0.852492
 30
0.0
 10
2.655873
 20
0.842097
 30
0.0
 10
2.656092
 20
0.831695
 30
0.0
 10
2.656312
 20
0.821288
 30
0.0
 10
2.656535
 20
0.810882
 30
0.0
 10
2.656761
 20
0.800479
 30
0.0
 10
2.656988
 20
0.790085
 30
0.0
 10
2.657218
 20
0.779683
 30
0.0
 10
2.657450
 20
0.769280
 30
0.0
 10
2.657685
 20
0.758879
 30
0.0
 10
2.657922
 20
0.748485
 30
0.0
 10
2.658161
 20
0.738085
 30
0.0
 10
2.658402
 20
0.727684
 30
0.0
 10
2.658646
 20
0.717288
 30
0.0
 10
2.658892
 20
0.706885
 30
0.0
 10
2.659141
 20
0.696480
 30
0.0
 10
2.659391
 20
0.686080
 30
0.0
 10
2.659645
 20
0.675674
 30
0.0
 10
2.659900
 20
0.665269
 30
0.0
 10
2.660157
 20
0.654871
 30
0.0
 10
2.660417
 20
0.644470
 30
0.0
 10
2.660679
 20
0.634075
 30
0.0
 10
2.660943
 20
0.623676
 30
0.0
 10
2.661210
 20
0.613283
 30
0.0
 10
2.661478
 20
0.602887
 30
0.0
 10
2.661750
 20
0.592484
 30
0.0
 10
2.662023
 20
0.582083
 30
0.0
 10
2.662299
 20
0.571678
 30
0.0
 10
2.662576
 20
0.561279
 30
0.0
 10
2.662857
 20
0.550870
 30
0.0
 10
2.663139
 20
0.540461
 30
0.0
 10
2.663424
 20
0.530063
 30
0.0
 10
2.663711
 20
0.519663
 30
0.0
 10
2.664000
 20
0.509272
 30
0.0
 10
2.664291
 20
0.498878
 30
0.0
 10
2.664585
 20
0.488474
 30
0.0
 10
2.664881
 20
0.478073
 30
0.0
 10
2.665179
 20
0.467667
 30
0.0
 10
2.665479
 20
0.457273
 30
0.0
 10
2.665782
 20
0.446866
 30
0.0
 10
2.666087
 20
0.436463
 30
0.0
 10
2.666395
 20
0.426064
 30
0.0
 10
2.666704
 20
0.415669
 30
0.0
 10
2.667017
 20
0.405262
 30
0.0
 10
2.667331
 20
0.394867
 30
0.0
 10
2.667647
 20
0.384472
 30
0.0
 10
2.667966
 20
0.374071
 30
0.0
 10
2.668288
 20
0.363660
 30
0.0
 10
2.668612
 20
0.353256
 30
0.0
 10
2.668938
 20
0.342859
 30
0.0
 10
2.669267
 20
0.332463
 30
0.0
 10
2.669598
 20
0.322064
 30
0.0
 10
2.669931
 20
0.311668
 30
0.0
 10
2.670268
 20
0.301269
 30
0.0
 10
2.670606
 20
0.290873
 30
0.0
 10
2.670947
 20
0.280480
 30
0.0
 10
2.671291
 20
0.270088
 30
0.0
 10
2.671637
 20
0.259690
 30
0.0
 10
2.671986
 20
0.249291
 30
0.0
 10
2.672338
 20
0.238894
 30
0.0
 10
2.672693
 20
0.228492
 30
0.0
 10
2.673050
 20
0.218099
 30
0.0
 10
2.673411
 20
0.207704
 30
0.0
 10
2.673774
 20
0.197303
 30
0.0
 10
2.674141
 20
0.186898
 30
0.0
 10
2.674511
 20
0.176501
 30
0.0
 10
2.674885
 20
0.166096
 30
0.0
 10
2.675262
 20
0.155696
 30
0.0
 10
2.675643
 20
0.145302
 30
0.0
 10
2.676028
 20
0.134910
 30
0.0
 10
2.676418
 20
0.124514
 30
0.0
 10
2.676814
 20
0.114108
 30
0.0
 10
2.677218
 20
0.103701
 30
0.0
 10
2.677623
 20
0.114105
 30
0.0
 10
2.678018
 20
0.124500
 30
0.0
 10
2.678408
 20
0.134896
 30
0.0
 10
2.678793
 20
0.145290
 30
0.0
 10
2.679174
 20
0.155686
 30
0.0
 10
2.679551
 20
0.166091
 30
0.0
 10
2.679925
 20
0.176490
 30
0.0
 10
2.680295
 20
0.186889
 30
0.0
 10
2.680661
 20
0.197280
 30
0.0
 10
2.681025
 20
0.207687
 30
0.0
 10
2.681386
 20
0.218090
 30
0.0
 10
2.681743
 20
0.228483
 30
0.0
 10
2.682098
 20
0.238881
 30
0.0
 10
2.682449
 20
0.249272
 30
0.0
 10
2.682798
 20
0.259664
 30
0.0
 10
2.683144
 20
0.270054
 30
0.0
 10
2.683488
 20
0.280448
 30
0.0
 10
2.683829
 20
0.290850
 30
0.0
 10
2.684168
 20
0.301245
 30
0.0
 10
2.684504
 20
0.311644
 30
0.0
 10
2.684837
 20
0.322034
 30
0.0
 10
2.685168
 20
0.332429
 30
0.0
 10
2.685497
 20
0.342818
 30
0.0
 10
2.685823
 20
0.353219
 30
0.0
 10
2.686147
 20
0.363622
 30
0.0
 10
2.686468
 20
0.374021
 30
0.0
 10
2.686787
 20
0.384420
 30
0.0
 10
2.687104
 20
0.394813
 30
0.0
 10
2.687418
 20
0.405207
 30
0.0
 10
2.687730
 20
0.415596
 30
0.0
 10
2.688039
 20
0.426002
 30
0.0
 10
2.688347
 20
0.436392
 30
0.0
 10
2.688652
 20
0.446789
 30
0.0
 10
2.688954
 20
0.457188
 30
0.0
 10
2.689255
 20
0.467584
 30
0.0
 10
2.689553
 20
0.477986
 30
0.0
 10
2.689849
 20
0.488391
 30
0.0
 10
2.690142
 20
0.498781
 30
0.0
 10
2.690434
 20
0.509179
 30
0.0
 10
2.690723
 20
0.519582
 30
0.0
 10
2.691010
 20
0.529986
 30
0.0
 10
2.691295
 20
0.540388
 30
0.0
 10
2.691577
 20
0.550784
 30
0.0
 10
2.691857
 20
0.561184
 30
0.0
 10
2.692135
 20
0.571585
 30
0.0
 10
2.692410
 20
0.581984
 30
0.0
 10
2.692684
 20
0.592378
 30
0.0
 10
2.692955
 20
0.602776
 30
0.0
 10
2.693223
 20
0.613177
 30
0.0
 10
2.693490
 20
0.623575
 30
0.0
 10
2.693754
 20
0.633970
 30
0.0
 10
2.694016
 20
0.644370
 30
0.0
 10
2.694276
 20
0.654772
 30
0.0
 10
2.694534
 20
0.665173
 30
0.0
 10
2.694789
 20
0.675571
 30
0.0
 10
2.695042
 20
0.685975
 30
0.0
 10
2.695293
 20
0.696382
 30
0.0
 10
2.695541
 20
0.706789
 30
0.0
 10
2.695787
 20
0.717192
 30
0.0
 10
2.696031
 20
0.727589
 30
0.0
 10
2.696273
 20
0.738000
 30
0.0
 10
2.696512
 20
0.748399
 30
0.0
 10
2.696749
 20
0.758806
 30
0.0
 10
2.696984
 20
0.769218
 30
0.0
 10
2.697216
 20
0.779619
 30
0.0
 10
2.697446
 20
0.790030
 30
0.0
 10
2.697674
 20
0.800436
 30
0.0
 10
2.697899
 20
0.810833
 30
0.0
 10
2.698122
 20
0.821240
 30
0.0
 10
2.698343
 20
0.831632
 30
0.0
 10
2.698561
 20
0.842027
 30
0.0
 10
2.698777
 20
0.852422
 30
0.0
 10
2.698990
 20
0.862833
 30
0.0
 10
2.699201
 20
0.873236
 30
0.0
 10
2.699410
 20
0.883647
 30
0.0
 10
2.699616
 20
0.894041
 30
0.0
 10
2.699820
 20
0.904436
 30
0.0
 10
2.700022
 20
0.914847
 30
0.0
 10
2.700221
 20
0.925250
 30
0.0
 10
2.700418
 20
0.935659
 30
0.0
 10
2.700612
 20
0.946070
 30
0.0
 10
2.700804
 20
0.956478
 30
0.0
 10
2.700993
 20
0.966878
 30
0.0
 10
2.701179
 20
0.977284
 30
0.0
 10
2.701364
 20
0.987691
 30
0.0
 10
2.701545
 20
0.998093
 30
0.0
 10
2.701725
 20
1.008502
 30
0.0
 10
2.701901
 20
1.018895
 30
0.0
 10
2.702075
 20
1.029302
 30
0.0
 10
2.702247
 20
1.039697
 30
0.0
 10
2.702415
 20
1.050093
 30
0.0
 10
2.702582
 20
1.060500
 30
0.0
 10
2.702745
 20
1.070893
 30
0.0
 10
2.702906
 20
1.081297
 30
0.0
 10
2.703065
 20
1.091706
 30
0.0
 10
2.703221
 20
1.102111
 30
0.0
 10
2.703374
 20
1.112504
 30
0.0
 10
2.703524
 20
1.122907
 30
0.0
 10
2.703672
 20
1.133311
 30
0.0
 10
2.703817
 20
1.143707
 30
0.0
 10
2.703960
 20
1.154114
 30
0.0
 10
2.704099
 20
1.164520
 30
0.0
 10
2.704236
 20
1.174917
 30
0.0
 10
2.704370
 20
1.185319
 30
0.0
 10
2.704501
 20
1.195715
 30
0.0
 10
2.704630
 20
1.206119
 30
0.0
 10
2.704756
 20
1.216517
 30
0.0
 10
2.704879
 20
1.226920
 30
0.0
 10
2.704998
 20
1.237314
 30
0.0
 10
2.705116
 20
1.247709
 30
0.0
 10
2.705230
 20
1.258109
 30
0.0
 10
2.705341
 20
1.268520
 30
0.0
 10
2.705450
 20
1.278924
 30
0.0
 10
2.705555
 20
1.289322
 30
0.0
 10
2.705658
 20
1.299736
 30
0.0
 10
2.705757
 20
1.310141
 30
0.0
 10
2.705854
 20
1.320555
 30
0.0
 10
2.705947
 20
1.330969
 30
0.0
 10
2.706038
 20
1.341375
 30
0.0
 10
2.706125
 20
1.351780
 30
0.0
 10
2.706209
 20
1.362185
 30
0.0
 10
2.706290
 20
1.372589
 30
0.0
 10
2.706368
 20
1.383001
 30
0.0
 10
2.706443
 20
1.393411
 30
0.0
 10
2.706514
 20
1.403804
 30
0.0
 10
2.706583
 20
1.414213
 30
0.0
 10
2.706648
 20
1.424611
 30
0.0
 10
2.706710
 20
1.435014
 30
0.0
 10
2.706768
 20
1.445424
 30
0.0
 10
2.706823
 20
1.455833
 30
0.0
 10
2.706875
 20
1.466241
 30
0.0
 10
2.706924
 20
1.476651
 30
0.0
 10
2.706969
 20
1.487061
 30
0.0
 10
2.707010
 20
1.497464
 30
0.0
 10
2.707049
 20
1.507867
 30
0.0
 10
2.707083
 20
1.518265
 30
0.0
 10
2.707114
 20
1.528676
 30
0.0
 10
2.707142
 20
1.539068
 30
0.0
 10
2.707166
 20
1.549478
 30
0.0
 10
2.707186
 20
1.559878
 30
0.0
 10
2.707203
 20
1.570285
 30
0.0
 10
2.707216
 20
1.580680
 30
0.0
 10
2.707226
 20
1.591082
 30
0.0
 10
2.707231
 20
1.601478
 30
0.0
 10
2.707233
 20
1.611873
 30
0.0
 10
2.707233
 20
1.611889
 30
0.0
 10
2.698672
 20
1.606460
 30
0.0
 10
2.690105
 20
1.601028
 30
0.0
 10
2.681550
 20
1.595603
 30
0.0
 10
2.672980
 20
1.590169
 30
0.0
 10
2.664417
 20
1.584739
 30
0.0
 10
2.671364
 20
1.581446
 30
0.0
 10
2.678255
 20
1.578033
 30
0.0
 10
2.685984
 20
1.574211
 30
0.0
 10
2.693690
 20
1.570359
 30
0.0
 10
2.701392
 20
1.566471
 30
0.0
 10
2.709075
 20
1.562557
 30
0.0
 10
2.716750
 20
1.558612
 30
0.0
 10
2.725406
 20
1.554124
 30
0.0
 10
2.734040
 20
1.549606
 30
0.0
 10
2.742660
 20
1.545055
 30
0.0
 10
2.751257
 20
1.540477
 30
0.0
 10
2.759840
 20
1.535866
 30
0.0
 10
2.768412
 20
1.531222
 30
0.0
 10
2.776957
 20
1.526553
 30
0.0
 10
2.785483
 20
1.521856
 30
0.0
 10
2.793998
 20
1.517125
 30
0.0
 10
2.802493
 20
1.512364
 30
0.0
 10
2.810981
 20
1.507567
 30
0.0
 10
2.819457
 20
1.502737
 30
0.0
 10
2.827904
 20
1.497881
 30
0.0
 10
2.836341
 20
1.492988
 30
0.0
 10
2.844749
 20
1.488070
 30
0.0
 10
2.853654
 20
1.482812
 30
0.0
 10
2.862533
 20
1.477517
 30
0.0
 10
2.871385
 20
1.472186
 30
0.0
 10
2.880209
 20
1.466817
 30
0.0
 10
2.889005
 20
1.461412
 30
0.0
 10
2.897785
 20
1.455961
 30
0.0
 10
2.906545
 20
1.450465
 30
0.0
 10
2.915279
 20
1.444928
 30
0.0
 10
2.923979
 20
1.439352
 30
0.0
 10
2.932651
 20
1.433734
 30
0.0
 10
2.941298
 20
1.428069
 30
0.0
 10
2.949920
 20
1.422356
 30
0.0
 10
2.958500
 20
1.416605
 30
0.0
 10
2.967058
 20
1.410799
 30
0.0
 10
2.975571
 20
1.404952
 30
0.0
 10
2.984050
 20
1.399055
 30
0.0
 10
2.992498
 20
1.393104
 30
0.0
 10
3.000912
 20
1.387098
 30
0.0
 10
3.009281
 20
1.381040
 30
0.0
 10
3.017608
 20
1.374926
 30
0.0
 10
3.025902
 20
1.368746
 30
0.0
 10
3.034143
 20
1.362512
 30
0.0
 10
3.042332
 20
1.356217
 30
0.0
 10
3.050467
 20
1.349860
 30
0.0
 10
3.058552
 20
1.343432
 30
0.0
 10
3.066589
 20
1.336927
 30
0.0
 10
3.074556
 20
1.330356
 30
0.0
 10
3.082465
 20
1.323702
 30
0.0
 10
3.090303
 20
1.316969
 30
0.0
 10
3.098075
 20
1.310145
 30
0.0
 10
3.105754
 20
1.303244
 30
0.0
 10
3.113349
 20
1.296250
 30
0.0
 10
3.120862
 20
1.289148
 30
0.0
 10
3.128271
 20
1.281946
 30
0.0
 10
3.135572
 20
1.274634
 30
0.0
 10
3.142761
 20
1.267199
 30
0.0
 10
3.149733
 20
1.259766
 30
0.0
 10
3.156598
 20
1.252230
 30
0.0
 10
3.163337
 20
1.244585
 30
0.0
 10
3.169936
 20
1.236819
 30
0.0
 10
3.176373
 20
1.228924
 30
0.0
 10
3.182630
 20
1.220880
 30
0.0
 10
3.188678
 20
1.212676
 30
0.0
 10
3.194478
 20
1.204304
 30
0.0
 10
3.199997
 20
1.195741
 30
0.0
 10
3.205192
 20
1.186964
 30
0.0
 10
3.209994
 20
1.177976
 30
0.0
 10
3.214339
 20
1.168756
 30
0.0
 10
3.218141
 20
1.159307
 30
0.0
 10
3.221308
 20
1.149630
 30
0.0
 10
3.223732
 20
1.139745
 30
0.0
 10
3.225304
 20
1.129670
 30
0.0
 10
3.225911
 20
1.119510
 30
0.0
 10
3.225474
 20
1.109330
 30
0.0
 10
3.223949
 20
1.099268
 30
0.0
 10
3.221348
 20
1.089430
 30
0.0
 10
3.217724
 20
1.079899
 30
0.0
 10
3.213188
 20
1.070777
 30
0.0
 10
3.207852
 20
1.062091
 30
0.0
 10
3.201848
 20
1.053866
 30
0.0
 10
3.195200
 20
1.046085
 30
0.0
 10
3.188016
 20
1.038796
 30
0.0
 10
3.180400
 20
1.031945
 30
0.0
 10
3.172450
 20
1.025504
 30
0.0
 10
3.164222
 20
1.019423
 30
0.0
 10
3.155763
 20
1.013668
 30
0.0
 10
3.147110
 20
1.008205
 30
0.0
 10
3.138287
 20
1.003006
 30
0.0
 10
3.129323
 20
0.998050
 30
0.0
 10
3.120244
 20
0.993321
 30
0.0
 10
3.111054
 20
0.988795
 30
0.0
 10
3.101784
 20
0.984465
 30
0.0
 10
3.092430
 20
0.980309
 30
0.0
 10
3.083002
 20
0.976316
 30
0.0
 10
3.073507
 20
0.972474
 30
0.0
 10
3.063968
 20
0.968782
 30
0.0
 10
3.054373
 20
0.965221
 30
0.0
 10
3.044726
 20
0.961786
 30
0.0
 10
3.035030
 20
0.958468
 30
0.0
 10
3.025304
 20
0.955266
 30
0.0
 10
3.015537
 20
0.952169
 30
0.0
 10
3.005746
 20
0.949176
 30
0.0
 10
2.995921
 20
0.946279
 30
0.0
 10
2.986064
 20
0.943473
 30
0.0
 10
2.976197
 20
0.940759
 30
0.0
 10
2.966311
 20
0.938130
 30
0.0
 10
2.956397
 20
0.935580
 30
0.0
 10
2.946464
 20
0.933108
 30
0.0
 10
2.936509
 20
0.930709
 30
0.0
 10
2.926544
 20
0.928382
 30
0.0
 10
2.916556
 20
0.926123
 30
0.0
 10
2.906549
 20
0.923929
 30
0.0
 10
2.896543
 20
0.921802
 30
0.0
 10
2.886523
 20
0.919735
 30
0.0
 10
2.876480
 20
0.917726
 30
0.0
 10
2.866433
 20
0.915776
 30
0.0
 10
2.856364
 20
0.913879
 30
0.0
 10
2.846282
 20
0.912036
 30
0.0
 10
2.836206
 20
0.910248
 30
0.0
 10
2.826121
 20
0.908510
 30
0.0
 10
2.816012
 20
0.906818
 30
0.0
 10
2.805895
 20
0.905175
 30
0.0
 10
2.795772
 20
0.903577
 30
0.0
 10
2.785650
 20
0.902027
 30
0.0
 10
2.775522
 20
0.900520
 30
0.0
 10
2.765380
 20
0.899054
 30
0.0
 10
2.755244
 20
0.897632
 30
0.0
 10
2.745097
 20
0.896250
 30
0.0
 10
2.734953
 20
0.894908
 30
0.0
 10
2.724799
 20
0.893604
 30
0.0
 10
2.714634
 20
0.892337
 30
0.0
 10
2.704482
 20
0.891109
 30
0.0
 10
2.694316
 20
0.889915
 30
0.0
 10
2.684140
 20
0.888756
 30
0.0
 10
2.673970
 20
0.887632
 30
0.0
 10
2.673928
 20
0.887627
 30
0.0
  0
LWPOLYLINE
  5
101
100
AcDbEntity
  8
Layer_1
 62
7
100
AcDbPolyline
 90
235
 70
1
 10
0.246071
 20
1.504520
 30
0.0
 10
0.256480
 20
1.504324
 30
0.0
 10
0.266877
 20
1.503725
 30
0.0
 10
0.277235
 20
1.502705
 30
0.0
 10
0.287544
 20
1.501251
 30
0.0
 10
0.297779
 20
1.499350
 30
0.0
 10
0.307926
 20
1.496991
 30
0.0
 10
0.317950
 20
1.494171
 30
0.0
 10
0.327825
 20
1.490889
 30
0.0
 10
0.337547
 20
1.487140
 30
0.0
 10
0.346749
 20
1.483222
 30
0.0
 10
0.355805
 20
1.478958
 30
0.0
 10
0.364688
 20
1.474350
 30
0.0
 10
0.373391
 20
1.469391
 30
0.0
 10
0.381880
 20
1.464093
 30
0.0
 10
0.390142
 20
1.458458
 30
0.0
 10
0.398176
 20
1.452483
 30
0.0
 10
0.405951
 20
1.446189
 30
0.0
 10
0.413472
 20
1.439572
 30
0.0
 10
0.416216
 20
1.436828
 30
0.0
 10
0.418960
 20
1.434084
 30
0.0
 10
0.419875
 20
1.434084
 30
0.0
 10
0.422619
 20
1.425851
 30
0.0
 10
0.420104
 20
1.418304
 30
0.0
 10
0.412557
 20
1.415789
 30
0.0
 10
0.407321
 20
1.416810
 30
0.0
 10
0.403409
 20
1.420362
 30
0.0
 10
0.396605
 20
1.426694
 30
0.0
 10
0.389542
 20
1.432739
 30
0.0
 10
0.382233
 20
1.438481
 30
0.0
 10
0.374680
 20
1.443914
 30
0.0
 10
0.366906
 20
1.449022
 30
0.0
 10
0.358925
 20
1.453797
 30
0.0
 10
0.350749
 20
1.458237
 30
0.0
 10
0.342396
 20
1.462339
 30
0.0
 10
0.333888
 20
1.466101
 30
0.0
 10
0.324803
 20
1.469857
 30
0.0
 10
0.315552
 20
1.473176
 30
0.0
 10
0.306156
 20
1.476055
 30
0.0
 10
0.296622
 20
1.478498
 30
0.0
 10
0.286997
 20
1.480504
 30
0.0
 10
0.277293
 20
1.482084
 30
0.0
 10
0.267533
 20
1.483250
 30
0.0
 10
0.257723
 20
1.484016
 30
0.0
 10
0.247900
 20
1.484396
 30
0.0
 10
0.246070
 20
1.484396
 30
0.0
 10
0.236666
 20
1.484118
 30
0.0
 10
0.227290
 20
1.483270
 30
0.0
 10
0.217985
 20
1.481839
 30
0.0
 10
0.208787
 20
1.479820
 30
0.0
 10
0.199740
 20
1.477220
 30
0.0
 10
0.190872
 20
1.474049
 30
0.0
 10
0.182218
 20
1.470333
 30
0.0
 10
0.173804
 20
1.466101
 30
0.0
 10
0.165467
 20
1.461410
 30
0.0
 10
0.157391
 20
1.456281
 30
0.0
 10
0.149596
 20
1.450732
 30
0.0
 10
0.142101
 20
1.444790
 30
0.0
 10
0.134913
 20
1.438477
 30
0.0
 10
0.128045
 20
1.431827
 30
0.0
 10
0.121496
 20
1.424867
 30
0.0
 10
0.115260
 20
1.417618
 30
0.0
 10
0.108979
 20
1.409545
 30
0.0
 10
0.103093
 20
1.401173
 30
0.0
 10
0.097609
 20
1.392542
 30
0.0
 10
0.092513
 20
1.383658
 30
0.0
 10
0.087808
 20
1.374566
 30
0.0
 10
0.083487
 20
1.365297
 30
0.0
 10
0.079526
 20
1.355845
 30
0.0
 10
0.075925
 20
1.346267
 30
0.0
 10
0.072784
 20
1.336829
 30
0.0
 10
0.070031
 20
1.327283
 30
0.0
 10
0.067661
 20
1.317626
 30
0.0
 10
0.065674
 20
1.307880
 30
0.0
 10
0.064070
 20
1.298082
 30
0.0
 10
0.062837
 20
1.288217
 30
0.0
 10
0.061970
 20
1.278317
 30
0.0
 10
0.061457
 20
1.268389
 30
0.0
 10
0.061289
 20
1.258450
 30
0.0
 10
0.061457
 20
1.248513
 30
0.0
 10
0.061970
 20
1.238577
 30
0.0
 10
0.062837
 20
1.228683
 30
0.0
 10
0.064070
 20
1.218816
 30
0.0
 10
0.065676
 20
1.209011
 30
0.0
 10
0.067664
 20
1.199263
 30
0.0
 10
0.070031
 20
1.189616
 30
0.0
 10
0.072784
 20
1.180072
 30
0.0
 10
0.075925
 20
1.170633
 30
0.0
 10
0.079524
 20
1.161058
 30
0.0
 10
0.083479
 20
1.151621
 30
0.0
 10
0.087805
 20
1.142341
 30
0.0
 10
0.092509
 20
1.133249
 30
0.0
 10
0.097603
 20
1.124368
 30
0.0
 10
0.103096
 20
1.115722
 30
0.0
 10
0.108984
 20
1.107348
 30
0.0
 10
0.115260
 20
1.099281
 30
0.0
 10
0.121583
 20
1.092131
 30
0.0
 10
0.128209
 20
1.085244
 30
0.0
 10
0.135126
 20
1.078652
 30
0.0
 10
0.142330
 20
1.072376
 30
0.0
 10
0.149817
 20
1.066433
 30
0.0
 10
0.157570
 20
1.060845
 30
0.0
 10
0.165569
 20
1.055631
 30
0.0
 10
0.173804
 20
1.050799
 30
0.0
 10
0.182270
 20
1.046755
 30
0.0
 10
0.190953
 20
1.043218
 30
0.0
 10
0.199837
 20
1.040206
 30
0.0
 10
0.208895
 20
1.037739
 30
0.0
 10
0.218083
 20
1.035830
 30
0.0
 10
0.227357
 20
1.034480
 30
0.0
 10
0.236699
 20
1.033681
 30
0.0
 10
0.246070
 20
1.033419
 30
0.0
 10
0.246985
 20
1.033419
 30
0.0
 10
0.256889
 20
1.033617
 30
0.0
 10
0.266796
 20
1.034226
 30
0.0
 10
0.276656
 20
1.035257
 30
0.0
 10
0.286460
 20
1.036724
 30
0.0
 10
0.296186
 20
1.038636
 30
0.0
 10
0.305819
 20
1.041001
 30
0.0
 10
0.315330
 20
1.043819
 30
0.0
 10
0.324691
 20
1.047086
 30
0.0
 10
0.333887
 20
1.050799
 30
0.0
 10
0.342702
 20
1.054738
 30
0.0
 10
0.351338
 20
1.059042
 30
0.0
 10
0.359786
 20
1.063721
 30
0.0
 10
0.368016
 20
1.068769
 30
0.0
 10
0.375999
 20
1.074176
 30
0.0
 10
0.383737
 20
1.079948
 30
0.0
 10
0.391193
 20
1.086061
 30
0.0
 10
0.398367
 20
1.092513
 30
0.0
 10
0.405239
 20
1.099281
 30
0.0
 10
0.412557
 20
1.102026
 30
0.0
 10
0.420104
 20
1.099510
 30
0.0
 10
0.422619
 20
1.091963
 30
0.0
 10
0.419875
 20
1.084645
 30
0.0
 10
0.412998
 20
1.078024
 30
0.0
 10
0.405869
 20
1.071668
 30
0.0
 10
0.398496
 20
1.065589
 30
0.0
 10
0.390904
 20
1.059810
 30
0.0
 10
0.383083
 20
1.054322
 30
0.0
 10
0.375055
 20
1.049143
 30
0.0
 10
0.366853
 20
1.044285
 30
0.0
 10
0.358465
 20
1.039739
 30
0.0
 10
0.349908
 20
1.035506
 30
0.0
 10
0.341205
 20
1.031589
 30
0.0
 10
0.332167
 20
1.027868
 30
0.0
 10
0.322967
 20
1.024544
 30
0.0
 10
0.313647
 20
1.021631
 30
0.0
 10
0.304204
 20
1.019123
 30
0.0
 10
0.294661
 20
1.017020
 30
0.0
 10
0.285031
 20
1.015319
 30
0.0
 10
0.275351
 20
1.014016
 30
0.0
 10
0.265611
 20
1.013098
 30
0.0
 10
0.255852
 20
1.012557
 30
0.0
 10
0.246070
 20
1.012379
 30
0.0
 10
0.236200
 20
1.012560
 30
0.0
 10
0.226354
 20
1.013108
 30
0.0
 10
0.216533
 20
1.014036
 30
0.0
 10
0.206760
 20
1.015352
 30
0.0
 10
0.197042
 20
1.017063
 30
0.0
 10
0.187413
 20
1.019171
 30
0.0
 10
0.177867
 20
1.021684
 30
0.0
 10
0.168449
 20
1.024593
 30
0.0
 10
0.159169
 20
1.027894
 30
0.0
 10
0.150020
 20
1.031589
 30
0.0
 10
0.141306
 20
1.035511
 30
0.0
 10
0.132748
 20
1.039745
 30
0.0
 10
0.124365
 20
1.044290
 30
0.0
 10
0.116143
 20
1.049159
 30
0.0
 10
0.108132
 20
1.054330
 30
0.0
 10
0.100325
 20
1.059807
 30
0.0
 10
0.092720
 20
1.065597
 30
0.0
 10
0.085362
 20
1.071664
 30
0.0
 10
0.078232
 20
1.078020
 30
0.0
 10
0.071351
 20
1.084645
 30
0.0
 10
0.064911
 20
1.091505
 30
0.0
 10
0.058723
 20
1.098591
 30
0.0
 10
0.052790
 20
1.105906
 30
0.0
 10
0.047125
 20
1.113437
 30
0.0
 10
0.041749
 20
1.121157
 30
0.0
 10
0.036656
 20
1.129072
 30
0.0
 10
0.031851
 20
1.137169
 30
0.0
 10
0.027346
 20
1.145422
 30
0.0
 10
0.023128
 20
1.153846
 30
0.0
 10
0.019210
 20
1.162400
 30
0.0
 10
0.015514
 20
1.171548
 30
0.0
 10
0.012212
 20
1.180833
 30
0.0
 10
0.009303
 20
1.190254
 30
0.0
 10
0.006792
 20
1.199791
 30
0.0
 10
0.004683
 20
1.209425
 30
0.0
 10
0.002973
 20
1.219131
 30
0.0
 10
0.001657
 20
1.228907
 30
0.0
 10
0.000728
 20
1.238737
 30
0.0
 10
0.000180
 20
1.248590
 30
0.0
 10
-0.000000
 20
1.258450
 30
0.0
 10
0.000180
 20
1.268320
 30
0.0
 10
0.000729
 20
1.278166
 30
0.0
 10
0.001657
 20
1.287987
 30
0.0
 10
0.002972
 20
1.297760
 30
0.0
 10
0.004683
 20
1.307478
 30
0.0
 10
0.006792
 20
1.317107
 30
0.0
 10
0.009304
 20
1.326653
 30
0.0
 10
0.012213
 20
1.336071
 30
0.0
 10
0.015514
 20
1.345351
 30
0.0
 10
0.019210
 20
1.354500
 30
0.0
 10
0.023072
 20
1.363098
 30
0.0
 10
0.027234
 20
1.371550
 30
0.0
 10
0.031704
 20
1.379851
 30
0.0
 10
0.036470
 20
1.387963
 30
0.0
 10
0.041548
 20
1.395898
 30
0.0
 10
0.046925
 20
1.403626
 30
0.0
 10
0.052598
 20
1.411135
 30
0.0
 10
0.058570
 20
1.418422
 30
0.0
 10
0.064820
 20
1.425460
 30
0.0
 10
0.071351
 20
1.432254
 30
0.0
 10
0.078228
 20
1.438876
 30
0.0
 10
0.085357
 20
1.445232
 30
0.0
 10
0.092730
 20
1.451311
 30
0.0
 10
0.100321
 20
1.457090
 30
0.0
 10
0.108143
 20
1.462577
 30
0.0
 10
0.116171
 20
1.467757
 30
0.0
 10
0.124373
 20
1.472614
 30
0.0
 10
0.132761
 20
1.477161
 30
0.0
 10
0.141318
 20
1.481394
 30
0.0
 10
0.150020
 20
1.485311
 30
0.0
 10
0.159169
 20
1.489006
 30
0.0
 10
0.168453
 20
1.492308
 30
0.0
 10
0.177874
 20
1.495218
 30
0.0
 10
0.187412
 20
1.497728
 30
0.0
 10
0.197046
 20
1.499837
 30
0.0
 10
0.206751
 20
1.501547
 30
0.0
 10
0.216528
 20
1.502863
 30
0.0
 10
0.226358
 20
1.503792
 30
0.0
 10
0.236211
 20
1.504340
 30
0.0
 10
0.246070
 20
1.504520
 30
0.0
  0
LWPOLYLINE
  5
102
100
AcDbEntity
  8
Layer_1
 62
7
100
AcDbPolyline
 90
97
 70
1
 10
0.662215
 20
1.300529
 30
0.0
 10
0.671610
 20
1.300240
 30
0.0
 10
0.680968
 20
1.299355
 30
0.0
 10
0.690240
 20
1.297851
 30
0.0
 10
0.699380
 20
1.295715
 30
0.0
 10
0.708345
 20
1.292947
 30
0.0
 10
0.717101
 20
1.289552
 30
0.0
 10
0.725321
 20
1.285734
 30
0.0
 10
0.733289
 20
1.281422
 30
0.0
 10
0.740973
 20
1.276611
 30
0.0
 10
0.748331
 20
1.271315
 30
0.0
 10
0.755321
 20
1.265559
 30
0.0
 10
0.761924
 20
1.259365
 30
0.0
 10
0.768128
 20
1.252750
 30
0.0
 10
0.773883
 20
1.245760
 30
0.0
 10
0.779181
 20
1.238398
 30
0.0
 10
0.783991
 20
1.230713
 30
0.0
 10
0.788298
 20
1.222753
 30
0.0
 10
0.792112
 20
1.214541
 30
0.0
 10
0.795507
 20
1.205782
 30
0.0
 10
0.798280
 20
1.196800
 30
0.0
 10
0.800416
 20
1.187655
 30
0.0
 10
0.801917
 20
1.178393
 30
0.0
 10
0.802800
 20
1.169049
 30
0.0
 10
0.803089
 20
1.159656
 30
0.0
 10
0.802800
 20
1.150261
 30
0.0
 10
0.801915
 20
1.140903
 30
0.0
 10
0.800411
 20
1.131632
 30
0.0
 10
0.798275
 20
1.122492
 30
0.0
 10
0.795506
 20
1.113526
 30
0.0
 10
0.792112
 20
1.104770
 30
0.0
 10
0.788294
 20
1.096550
 30
0.0
 10
0.783981
 20
1.088582
 30
0.0
 10
0.779171
 20
1.080898
 30
0.0
 10
0.773874
 20
1.073540
 30
0.0
 10
0.768119
 20
1.066550
 30
0.0
 10
0.761924
 20
1.059947
 30
0.0
 10
0.755310
 20
1.053743
 30
0.0
 10
0.748319
 20
1.047988
 30
0.0
 10
0.740958
 20
1.042690
 30
0.0
 10
0.733273
 20
1.037880
 30
0.0
 10
0.725313
 20
1.033573
 30
0.0
 10
0.717101
 20
1.029760
 30
0.0
 10
0.708342
 20
1.026364
 30
0.0
 10
0.699360
 20
1.023591
 30
0.0
 10
0.690215
 20
1.021456
 30
0.0
 10
0.680953
 20
1.019954
 30
0.0
 10
0.671609
 20
1.019071
 30
0.0
 10
0.662215
 20
1.018782
 30
0.0
 10
0.652821
 20
1.019071
 30
0.0
 10
0.643463
 20
1.019956
 30
0.0
 10
0.634191
 20
1.021460
 30
0.0
 10
0.625051
 20
1.023596
 30
0.0
 10
0.616086
 20
1.026365
 30
0.0
 10
0.607330
 20
1.029760
 30
0.0
 10
0.599110
 20
1.033577
 30
0.0
 10
0.591142
 20
1.037890
 30
0.0
 10
0.583458
 20
1.042700
 30
0.0
 10
0.576100
 20
1.047997
 30
0.0
 10
0.569110
 20
1.053752
 30
0.0
 10
0.562507
 20
1.059947
 30
0.0
 10
0.556303
 20
1.066561
 30
0.0
 10
0.550548
 20
1.073552
 30
0.0
 10
0.545250
 20
1.080913
 30
0.0
 10
0.540440
 20
1.088598
 30
0.0
 10
0.536133
 20
1.096558
 30
0.0
 10
0.532319
 20
1.104770
 30
0.0
 10
0.528924
 20
1.113529
 30
0.0
 10
0.526151
 20
1.122511
 30
0.0
 10
0.524015
 20
1.131656
 30
0.0
 10
0.522514
 20
1.140918
 30
0.0
 10
0.521631
 20
1.150262
 30
0.0
 10
0.521342
 20
1.159656
 30
0.0
 10
0.521631
 20
1.169050
 30
0.0
 10
0.522516
 20
1.178408
 30
0.0
 10
0.524020
 20
1.187680
 30
0.0
 10
0.526156
 20
1.196820
 30
0.0
 10
0.528924
 20
1.205785
 30
0.0
 10
0.532319
 20
1.214541
 30
0.0
 10
0.536137
 20
1.222761
 30
0.0
 10
0.540449
 20
1.230729
 30
0.0
 10
0.545260
 20
1.238413
 30
0.0
 10
0.550557
 20
1.245771
 30
0.0
 10
0.556312
 20
1.252761
 30
0.0
 10
0.562507
 20
1.259365
 30
0.0
 10
0.569121
 20
1.265568
 30
0.0
 10
0.576111
 20
1.271323
 30
0.0
 10
0.583473
 20
1.276621
 30
0.0
 10
0.591158
 20
1.281431
 30
0.0
 10
0.599118
 20
1.285738
 30
0.0
 10
0.607330
 20
1.289552
 30
0.0
 10
0.616089
 20
1.292947
 30
0.0
 10
0.625071
 20
1.295720
 30
0.0
 10
0.634216
 20
1.297856
 30
0.0
 10
0.643478
 20
1.299357
 30
0.0
 10
0.652822
 20
1.300240
 30
0.0
 10
0.662215
 20
1.300529
 30
0.0
  0
LWPOLYLINE
  5
103
100
AcDbEntity
  8
Layer_1
 62
7
100
AcDbPolyline
 90
73
 70
1
 10
0.662215
 20
1.280404
 30
0.0
 10
0.653941
 20
1.279750
 30
0.0
 10
0.645887
 20
1.277784
 30
0.0
 10
0.638232
 20
1.274586
 30
0.0
 10
0.631114
 20
1.270342
 30
0.0
 10
0.623690
 20
1.265041
 30
0.0
 10
0.616942
 20
1.258911
 30
0.0
 10
0.610885
 20
1.252093
 30
0.0
 10
0.605500
 20
1.244728
 30
0.0
 10
0.601063
 20
1.237521
 30
0.0
 10
0.597133
 20
1.230026
 30
0.0
 10
0.593684
 20
1.222293
 30
0.0
 10
0.590692
 20
1.214376
 30
0.0
 10
0.588120
 20
1.206308
 30
0.0
 10
0.585758
 20
1.197166
 30
0.0
 10
0.583954
 20
1.187899
 30
0.0
 10
0.582693
 20
1.178529
 30
0.0
 10
0.581956
 20
1.169105
 30
0.0
 10
0.581716
 20
1.159656
 30
0.0
 10
0.581956
 20
1.150207
 30
0.0
 10
0.582692
 20
1.140794
 30
0.0
 10
0.583953
 20
1.131423
 30
0.0
 10
0.585756
 20
1.122152
 30
0.0
 10
0.588120
 20
1.113003
 30
0.0
 10
0.590689
 20
1.104943
 30
0.0
 10
0.593684
 20
1.097020
 30
0.0
 10
0.597132
 20
1.089287
 30
0.0
 10
0.601068
 20
1.081782
 30
0.0
 10
0.605500
 20
1.074583
 30
0.0
 10
0.610951
 20
1.067085
 30
0.0
 10
0.617042
 20
1.060082
 30
0.0
 10
0.623768
 20
1.053705
 30
0.0
 10
0.631114
 20
1.048055
 30
0.0
 10
0.638340
 20
1.044147
 30
0.0
 10
0.646012
 20
1.041252
 30
0.0
 10
0.654028
 20
1.039489
 30
0.0
 10
0.662215
 20
1.038907
 30
0.0
 10
0.670396
 20
1.039488
 30
0.0
 10
0.678416
 20
1.041251
 30
0.0
 10
0.686094
 20
1.044148
 30
0.0
 10
0.693317
 20
1.048055
 30
0.0
 10
0.700661
 20
1.053703
 30
0.0
 10
0.707394
 20
1.060088
 30
0.0
 10
0.713480
 20
1.067085
 30
0.0
 10
0.718931
 20
1.074583
 30
0.0
 10
0.723368
 20
1.081791
 30
0.0
 10
0.727298
 20
1.089286
 30
0.0
 10
0.730746
 20
1.097018
 30
0.0
 10
0.733739
 20
1.104935
 30
0.0
 10
0.736311
 20
1.113003
 30
0.0
 10
0.738673
 20
1.122145
 30
0.0
 10
0.740477
 20
1.131413
 30
0.0
 10
0.741738
 20
1.140782
 30
0.0
 10
0.742475
 20
1.150206
 30
0.0
 10
0.742714
 20
1.159656
 30
0.0
 10
0.742475
 20
1.169104
 30
0.0
 10
0.741739
 20
1.178517
 30
0.0
 10
0.740478
 20
1.187888
 30
0.0
 10
0.738675
 20
1.197159
 30
0.0
 10
0.736311
 20
1.206308
 30
0.0
 10
0.733742
 20
1.214369
 30
0.0
 10
0.730747
 20
1.222291
 30
0.0
 10
0.727298
 20
1.230025
 30
0.0
 10
0.723363
 20
1.237529
 30
0.0
 10
0.718931
 20
1.244728
 30
0.0
 10
0.713549
 20
1.252088
 30
0.0
 10
0.707496
 20
1.258904
 30
0.0
 10
0.700735
 20
1.265046
 30
0.0
 10
0.693317
 20
1.270342
 30
0.0
 10
0.686194
 20
1.274588
 30
0.0
 10
0.678536
 20
1.277786
 30
0.0
 10
0.670479
 20
1.279752
 30
0.0
 10
0.662215
 20
1.280404
 30
0.0
  0
LWPOLYLINE
  5
104
100
AcDbEntity
  8
Layer_1
 62
7
100
AcDbPolyline
 90
91
 70
1
 10
0.905156
 20
1.268512
 30
0.0
 10
0.906070
 20
1.278575
 30
0.0
 10
0.908995
 20
1.284519
 30
0.0
 10
0.913388
 20
1.289552
 30
0.0
 10
0.919321
 20
1.293965
 30
0.0
 10
0.926212
 20
1.296631
 30
0.0
 10
0.933513
 20
1.297785
 30
0.0
 10
0.941600
 20
1.297365
 30
0.0
 10
0.949192
 20
1.294633
 30
0.0
 10
0.955468
 20
1.289552
 30
0.0
 10
0.961445
 20
1.282058
 30
0.0
 10
0.964615
 20
1.273086
 30
0.0
 10
0.973179
 20
1.278750
 30
0.0
 10
0.982178
 20
1.283697
 30
0.0
 10
0.991542
 20
1.287905
 30
0.0
 10
1.001206
 20
1.291381
 30
0.0
 10
1.009555
 20
1.294069
 30
0.0
 10
1.018072
 20
1.296132
 30
0.0
 10
1.026710
 20
1.297577
 30
0.0
 10
1.035435
 20
1.298424
 30
0.0
 10
1.044199
 20
1.298699
 30
0.0
 10
1.052432
 20
1.297784
 30
0.0
 10
1.061580
 20
1.296870
 30
0.0
 10
1.066898
 20
1.296390
 30
0.0
 10
1.071642
 20
1.294125
 30
0.0
 10
1.074386
 20
1.286807
 30
0.0
 10
1.071642
 20
1.279489
 30
0.0
 10
1.067068
 20
1.277660
 30
0.0
 10
1.062495
 20
1.276745
 30
0.0
 10
1.058835
 20
1.277660
 30
0.0
 10
1.051517
 20
1.278575
 30
0.0
 10
1.046029
 20
1.278575
 30
0.0
 10
1.036030
 20
1.277913
 30
0.0
 10
1.026250
 20
1.275781
 30
0.0
 10
1.016979
 20
1.272030
 30
0.0
 10
1.008524
 20
1.266683
 30
0.0
 10
1.001255
 20
1.260099
 30
0.0
 10
0.994714
 20
1.252801
 30
0.0
 10
0.988903
 20
1.244885
 30
0.0
 10
0.983825
 20
1.236496
 30
0.0
 10
0.979990
 20
1.229005
 30
0.0
 10
0.976603
 20
1.221296
 30
0.0
 10
0.973676
 20
1.213406
 30
0.0
 10
0.971204
 20
1.205344
 30
0.0
 10
0.969189
 20
1.197161
 30
0.0
 10
0.967296
 20
1.187878
 30
0.0
 10
0.965859
 20
1.178530
 30
0.0
 10
0.964940
 20
1.169109
 30
0.0
 10
0.964615
 20
1.159656
 30
0.0
 10
0.964615
 20
1.149921
 30
0.0
 10
0.964615
 20
1.140198
 30
0.0
 10
0.964615
 20
1.130469
 30
0.0
 10
0.964615
 20
1.120740
 30
0.0
 10
0.964615
 20
1.111017
 30
0.0
 10
0.964615
 20
1.101279
 30
0.0
 10
0.964615
 20
1.091554
 30
0.0
 10
0.964615
 20
1.081814
 30
0.0
 10
0.964615
 20
1.072087
 30
0.0
 10
0.964615
 20
1.062359
 30
0.0
 10
0.964615
 20
1.052629
 30
0.0
 10
0.963701
 20
1.045310
 30
0.0
 10
0.960171
 20
1.035765
 30
0.0
 10
0.953638
 20
1.027930
 30
0.0
 10
0.945101
 20
1.022779
 30
0.0
 10
0.935343
 20
1.020612
 30
0.0
 10
0.926932
 20
1.021480
 30
0.0
 10
0.919036
 20
1.024469
 30
0.0
 10
0.912474
 20
1.029760
 30
0.0
 10
0.908317
 20
1.037088
 30
0.0
 10
0.905904
 20
1.045146
 30
0.0
 10
0.905156
 20
1.053543
 30
0.0
 10
0.905156
 20
1.063785
 30
0.0
 10
0.905156
 20
1.074028
 30
0.0
 10
0.905156
 20
1.084274
 30
0.0
 10
0.905156
 20
1.094505
 30
0.0
 10
0.905156
 20
1.104735
 30
0.0
 10
0.905156
 20
1.114981
 30
0.0
 10
0.905156
 20
1.125212
 30
0.0
 10
0.905156
 20
1.135453
 30
0.0
 10
0.905156
 20
1.145690
 30
0.0
 10
0.905156
 20
1.155928
 30
0.0
 10
0.905156
 20
1.166158
 30
0.0
 10
0.905156
 20
1.176402
 30
0.0
 10
0.905156
 20
1.186640
 30
0.0
 10
0.905156
 20
1.196882
 30
0.0
 10
0.905156
 20
1.207114
 30
0.0
 10
0.905156
 20
1.217356
 30
0.0
 10
0.905156
 20
1.227591
 30
0.0
 10
0.905156
 20
1.237831
 30
0.0
 10
0.905156
 20
1.248053
 30
0.0
 10
0.905156
 20
1.258292
 30
0.0
  0
LWPOLYLINE
  5
105
100
AcDbEntity
  8
Layer_1
 62
7
100
AcDbPolyline
 90
66
 70
1
 10
1.179112
 20
1.268512
 30
0.0
 10
1.179944
 20
1.276192
 30
0.0
 10
1.182687
 20
1.283404
 30
0.0
 10
1.187345
 20
1.289552
 30
0.0
 10
1.193742
 20
1.294570
 30
0.0
 10
1.201230
 20
1.297699
 30
0.0
 10
1.209300
 20
1.298699
 30
0.0
 10
1.217112
 20
1.297741
 30
0.0
 10
1.224339
 20
1.294636
 30
0.0
 10
1.230339
 20
1.289552
 30
0.0
 10
1.234995
 20
1.283409
 30
0.0
 10
1.237739
 20
1.276195
 30
0.0
 10
1.238572
 20
1.268512
 30
0.0
 10
1.238572
 20
1.258096
 30
0.0
 10
1.238572
 20
1.247679
 30
0.0
 10
1.238572
 20
1.237259
 30
0.0
 10
1.238572
 20
1.226854
 30
0.0
 10
1.238572
 20
1.216449
 30
0.0
 10
1.238572
 20
1.206028
 30
0.0
 10
1.238572
 20
1.195624
 30
0.0
 10
1.238572
 20
1.185209
 30
0.0
 10
1.238572
 20
1.174798
 30
0.0
 10
1.238572
 20
1.164385
 30
0.0
 10
1.238572
 20
1.153981
 30
0.0
 10
1.238572
 20
1.143562
 30
0.0
 10
1.238572
 20
1.133150
 30
0.0
 10
1.238572
 20
1.122733
 30
0.0
 10
1.238572
 20
1.112328
 30
0.0
 10
1.238572
 20
1.101911
 30
0.0
 10
1.238572
 20
1.091502
 30
0.0
 10
1.238572
 20
1.081088
 30
0.0
 10
1.238572
 20
1.070692
 30
0.0
 10
1.238572
 20
1.060278
 30
0.0
 10
1.238572
 20
1.049884
 30
0.0
 10
1.237654
 20
1.042247
 30
0.0
 10
1.234830
 20
1.035098
 30
0.0
 10
1.230339
 20
1.028845
 30
0.0
 10
1.224196
 20
1.024189
 30
0.0
 10
1.216982
 20
1.021445
 30
0.0
 10
1.209300
 20
1.020612
 30
0.0
 10
1.201357
 20
1.021483
 30
0.0
 10
1.193880
 20
1.024255
 30
0.0
 10
1.187345
 20
1.028845
 30
0.0
 10
1.182856
 20
1.035094
 30
0.0
 10
1.180030
 20
1.042250
 30
0.0
 10
1.179112
 20
1.049884
 30
0.0
 10
1.179112
 20
1.060300
 30
0.0
 10
1.179112
 20
1.070718
 30
0.0
 10
1.179112
 20
1.081138
 30
0.0
 10
1.179112
 20
1.091543
 30
0.0
 10
1.179112
 20
1.101948
 30
0.0
 10
1.179112
 20
1.112368
 30
0.0
 10
1.179112
 20
1.122773
 30
0.0
 10
1.179112
 20
1.133188
 30
0.0
 10
1.179112
 20
1.143599
 30
0.0
 10
1.179112
 20
1.154012
 30
0.0
 10
1.179112
 20
1.164416
 30
0.0
 10
1.179112
 20
1.174834
 30
0.0
 10
1.179112
 20
1.185247
 30
0.0
 10
1.179112
 20
1.195663
 30
0.0
 10
1.179112
 20
1.206069
 30
0.0
 10
1.179112
 20
1.216485
 30
0.0
 10
1.179112
 20
1.226895
 30
0.0
 10
1.179112
 20
1.237308
 30
0.0
 10
1.179112
 20
1.247705
 30
0.0
 10
1.179112
 20
1.258118
 30
0.0
  0
LWPOLYLINE
  5
106
100
AcDbEntity
  8
Layer_1
 62
7
100
AcDbPolyline
 90
25
 70
1
 10
1.174539
 20
1.401153
 30
0.0
 10
1.175609
 20
1.410214
 30
0.0
 10
1.179025
 20
1.418658
 30
0.0
 10
1.184601
 20
1.425851
 30
0.0
 10
1.191810
 20
1.431437
 30
0.0
 10
1.200251
 20
1.434846
 30
0.0
 10
1.209300
 20
1.435913
 30
0.0
 10
1.218361
 20
1.434843
 30
0.0
 10
1.226805
 20
1.431427
 30
0.0
 10
1.233998
 20
1.425851
 30
0.0
 10
1.239584
 20
1.418642
 30
0.0
 10
1.242993
 20
1.410201
 30
0.0
 10
1.244061
 20
1.401153
 30
0.0
 10
1.242990
 20
1.392091
 30
0.0
 10
1.239575
 20
1.383647
 30
0.0
 10
1.233998
 20
1.376454
 30
0.0
 10
1.226653
 20
1.371305
 30
0.0
 10
1.218222
 20
1.368248
 30
0.0
 10
1.209300
 20
1.367306
 30
0.0
 10
1.200367
 20
1.368251
 30
0.0
 10
1.191942
 20
1.371307
 30
0.0
 10
1.184601
 20
1.376454
 30
0.0
 10
1.179015
 20
1.383663
 30
0.0
 10
1.175606
 20
1.392104
 30
0.0
 10
1.174539
 20
1.401153
 30
0.0
  0
LWPOLYLINE
  5
107
100
AcDbEntity
  8
Layer_1
 62
7
100
AcDbPolyline
 90
97
 70
1
 10
1.484786
 20
1.300529
 30
0.0
 10
1.494180
 20
1.300240
 30
0.0
 10
1.503538
 20
1.299355
 30
0.0
 10
1.512810
 20
1.297851
 30
0.0
 10
1.521950
 20
1.295715
 30
0.0
 10
1.530915
 20
1.292947
 30
0.0
 10
1.539671
 20
1.289552
 30
0.0
 10
1.547891
 20
1.285734
 30
0.0
 10
1.555859
 20
1.281422
 30
0.0
 10
1.563543
 20
1.276611
 30
0.0
 10
1.570901
 20
1.271315
 30
0.0
 10
1.577891
 20
1.265559
 30
0.0
 10
1.584495
 20
1.259365
 30
0.0
 10
1.590698
 20
1.252750
 30
0.0
 10
1.596453
 20
1.245760
 30
0.0
 10
1.601751
 20
1.238398
 30
0.0
 10
1.606561
 20
1.230713
 30
0.0
 10
1.610868
 20
1.222753
 30
0.0
 10
1.614682
 20
1.214541
 30
0.0
 10
1.618077
 20
1.205782
 30
0.0
 10
1.620850
 20
1.196800
 30
0.0
 10
1.622986
 20
1.187655
 30
0.0
 10
1.624487
 20
1.178393
 30
0.0
 10
1.625370
 20
1.169049
 30
0.0
 10
1.625659
 20
1.159656
 30
0.0
 10
1.625370
 20
1.150261
 30
0.0
 10
1.624485
 20
1.140903
 30
0.0
 10
1.622981
 20
1.131632
 30
0.0
 10
1.620845
 20
1.122492
 30
0.0
 10
1.618077
 20
1.113526
 30
0.0
 10
1.614682
 20
1.104770
 30
0.0
 10
1.610864
 20
1.096550
 30
0.0
 10
1.606552
 20
1.088582
 30
0.0
 10
1.601741
 20
1.080898
 30
0.0
 10
1.596445
 20
1.073540
 30
0.0
 10
1.590689
 20
1.066550
 30
0.0
 10
1.584495
 20
1.059947
 30
0.0
 10
1.577880
 20
1.053743
 30
0.0
 10
1.570890
 20
1.047988
 30
0.0
 10
1.563528
 20
1.042690
 30
0.0
 10
1.555843
 20
1.037880
 30
0.0
 10
1.547883
 20
1.033573
 30
0.0
 10
1.539671
 20
1.029760
 30
0.0
 10
1.530912
 20
1.026364
 30
0.0
 10
1.521930
 20
1.023591
 30
0.0
 10
1.512785
 20
1.021456
 30
0.0
 10
1.503523
 20
1.019954
 30
0.0
 10
1.494179
 20
1.019071
 30
0.0
 10
1.484786
 20
1.018782
 30
0.0
 10
1.475391
 20
1.019071
 30
0.0
 10
1.466033
 20
1.019956
 30
0.0
 10
1.456762
 20
1.021460
 30
0.0
 10
1.447622
 20
1.023596
 30
0.0
 10
1.438656
 20
1.026365
 30
0.0
 10
1.429900
 20
1.029760
 30
0.0
 10
1.421680
 20
1.033577
 30
0.0
 10
1.413712
 20
1.037890
 30
0.0
 10
1.406028
 20
1.042700
 30
0.0
 10
1.398670
 20
1.047997
 30
0.0
 10
1.391680
 20
1.053752
 30
0.0
 10
1.385077
 20
1.059947
 30
0.0
 10
1.378873
 20
1.066561
 30
0.0
 10
1.373118
 20
1.073552
 30
0.0
 10
1.367820
 20
1.080913
 30
0.0
 10
1.363010
 20
1.088598
 30
0.0
 10
1.358703
 20
1.096558
 30
0.0
 10
1.354890
 20
1.104770
 30
0.0
 10
1.351494
 20
1.113529
 30
0.0
 10
1.348721
 20
1.122511
 30
0.0
 10
1.346586
 20
1.131656
 30
0.0
 10
1.345084
 20
1.140918
 30
0.0
 10
1.344201
 20
1.150262
 30
0.0
 10
1.343912
 20
1.159656
 30
0.0
 10
1.344201
 20
1.169050
 30
0.0
 10
1.345086
 20
1.178408
 30
0.0
 10
1.346590
 20
1.187680
 30
0.0
 10
1.348726
 20
1.196820
 30
0.0
 10
1.351495
 20
1.205785
 30
0.0
 10
1.354890
 20
1.214541
 30
0.0
 10
1.358707
 20
1.222761
 30
0.0
 10
1.363020
 20
1.230729
 30
0.0
 10
1.367830
 20
1.238413
 30
0.0
 10
1.373127
 20
1.245771
 30
0.0
 10
1.378882
 20
1.252761
 30
0.0
 10
1.385077
 20
1.259365
 30
0.0
 10
1.391691
 20
1.265568
 30
0.0
 10
1.398682
 20
1.271323
 30
0.0
 10
1.406043
 20
1.276621
 30
0.0
 10
1.413728
 20
1.281431
 30
0.0
 10
1.421688
 20
1.285738
 30
0.0
 10
1.429900
 20
1.289552
 30
0.0
 10
1.438659
 20
1.292947
 30
0.0
 10
1.447641
 20
1.295720
 30
0.0
 10
1.456786
 20
1.297856
 30
0.0
 10
1.466048
 20
1.299357
 30
0.0
 10
1.475392
 20
1.300240
 30
0.0
 10
1.484786
 20
1.300529
 30
0.0
  0
LWPOLYLINE
  5
108
100
AcDbEntity
  8
Layer_1
 62
7
100
AcDbPolyline
 90
73
 70
1
 10
1.484786
 20
1.280404
 30
0.0
 10
1.476511
 20
1.279750
 30
0.0
 10
1.468457
 20
1.277784
 30
0.0
 10
1.460802
 20
1.274586
 30
0.0
 10
1.453684
 20
1.270342
 30
0.0
 10
1.446260
 20
1.265041
 30
0.0
 10
1.439512
 20
1.258911
 30
0.0
 10
1.433456
 20
1.252093
 30
0.0
 10
1.428070
 20
1.244728
 30
0.0
 10
1.423633
 20
1.237521
 30
0.0
 10
1.419703
 20
1.230026
 30
0.0
 10
1.416255
 20
1.222293
 30
0.0
 10
1.413262
 20
1.214376
 30
0.0
 10
1.410690
 20
1.206308
 30
0.0
 10
1.408328
 20
1.197166
 30
0.0
 10
1.406524
 20
1.187899
 30
0.0
 10
1.405263
 20
1.178529
 30
0.0
 10
1.404526
 20
1.169105
 30
0.0
 10
1.404287
 20
1.159656
 30
0.0
 10
1.404526
 20
1.150207
 30
0.0
 10
1.405262
 20
1.140794
 30
0.0
 10
1.406523
 20
1.131423
 30
0.0
 10
1.408326
 20
1.122152
 30
0.0
 10
1.410690
 20
1.113003
 30
0.0
 10
1.413259
 20
1.104943
 30
0.0
 10
1.416254
 20
1.097020
 30
0.0
 10
1.419703
 20
1.089287
 30
0.0
 10
1.423638
 20
1.081782
 30
0.0
 10
1.428070
 20
1.074583
 30
0.0
 10
1.433521
 20
1.067085
 30
0.0
 10
1.439613
 20
1.060082
 30
0.0
 10
1.446338
 20
1.053705
 30
0.0
 10
1.453684
 20
1.048055
 30
0.0
 10
1.460910
 20
1.044147
 30
0.0
 10
1.468582
 20
1.041252
 30
0.0
 10
1.476598
 20
1.039489
 30
0.0
 10
1.484786
 20
1.038907
 30
0.0
 10
1.492967
 20
1.039488
 30
0.0
 10
1.500986
 20
1.041251
 30
0.0
 10
1.508665
 20
1.044148
 30
0.0
 10
1.515887
 20
1.048055
 30
0.0
 10
1.523231
 20
1.053703
 30
0.0
 10
1.529964
 20
1.060088
 30
0.0
 10
1.536050
 20
1.067085
 30
0.0
 10
1.541501
 20
1.074583
 30
0.0
 10
1.545938
 20
1.081791
 30
0.0
 10
1.549868
 20
1.089286
 30
0.0
 10
1.553317
 20
1.097018
 30
0.0
 10
1.556310
 20
1.104935
 30
0.0
 10
1.558881
 20
1.113003
 30
0.0
 10
1.561243
 20
1.122145
 30
0.0
 10
1.563047
 20
1.131413
 30
0.0
 10
1.564308
 20
1.140782
 30
0.0
 10
1.565045
 20
1.150206
 30
0.0
 10
1.565285
 20
1.159656
 30
0.0
 10
1.565045
 20
1.169104
 30
0.0
 10
1.564309
 20
1.178517
 30
0.0
 10
1.563048
 20
1.187888
 30
0.0
 10
1.561245
 20
1.197159
 30
0.0
 10
1.558881
 20
1.206308
 30
0.0
 10
1.556312
 20
1.214369
 30
0.0
 10
1.553317
 20
1.222291
 30
0.0
 10
1.549869
 20
1.230025
 30
0.0
 10
1.545933
 20
1.237529
 30
0.0
 10
1.541501
 20
1.244728
 30
0.0
 10
1.536120
 20
1.252088
 30
0.0
 10
1.530066
 20
1.258904
 30
0.0
 10
1.523305
 20
1.265046
 30
0.0
 10
1.515887
 20
1.270342
 30
0.0
 10
1.508764
 20
1.274588
 30
0.0
 10
1.501106
 20
1.277786
 30
0.0
 10
1.493049
 20
1.279752
 30
0.0
 10
1.484786
 20
1.280404
 30
0.0
  0
LWPOLYLINE
  5
109
100
AcDbEntity
  8
Layer_1
 62
7
100
AcDbPolyline
 90
107
 70
1
 10
1.725897
 20
1.467015
 30
0.0
 10
1.726728
 20
1.474695
 30
0.0
 10
1.729471
 20
1.481907
 30
0.0
 10
1.734129
 20
1.488055
 30
0.0
 10
1.740251
 20
1.492964
 30
0.0
 10
1.747407
 20
1.496147
 30
0.0
 10
1.755169
 20
1.497202
 30
0.0
 10
1.762981
 20
1.496244
 30
0.0
 10
1.770208
 20
1.493139
 30
0.0
 10
1.776208
 20
1.488055
 30
0.0
 10
1.781298
 20
1.482045
 30
0.0
 10
1.784396
 20
1.474832
 30
0.0
 10
1.785356
 20
1.467015
 30
0.0
 10
1.785356
 20
1.456834
 30
0.0
 10
1.785356
 20
1.446652
 30
0.0
 10
1.785356
 20
1.436489
 30
0.0
 10
1.785356
 20
1.426323
 30
0.0
 10
1.785356
 20
1.416138
 30
0.0
 10
1.785356
 20
1.405957
 30
0.0
 10
1.785356
 20
1.395779
 30
0.0
 10
1.785356
 20
1.385612
 30
0.0
 10
1.785356
 20
1.375428
 30
0.0
 10
1.785356
 20
1.365252
 30
0.0
 10
1.785356
 20
1.355079
 30
0.0
 10
1.785356
 20
1.344911
 30
0.0
 10
1.785356
 20
1.334731
 30
0.0
 10
1.785356
 20
1.324554
 30
0.0
 10
1.785356
 20
1.314381
 30
0.0
 10
1.785356
 20
1.304202
 30
0.0
 10
1.785356
 20
1.294040
 30
0.0
 10
1.785356
 20
1.283862
 30
0.0
 10
1.785356
 20
1.273685
 30
0.0
 10
1.785356
 20
1.263504
 30
0.0
 10
1.785356
 20
1.253338
 30
0.0
 10
1.785356
 20
1.243169
 30
0.0
 10
1.785356
 20
1.232989
 30
0.0
 10
1.785356
 20
1.222811
 30
0.0
 10
1.785356
 20
1.212641
 30
0.0
 10
1.785356
 20
1.202473
 30
0.0
 10
1.785356
 20
1.192300
 30
0.0
 10
1.785356
 20
1.182128
 30
0.0
 10
1.785356
 20
1.171954
 30
0.0
 10
1.785356
 20
1.161781
 30
0.0
 10
1.785356
 20
1.151616
 30
0.0
 10
1.785356
 20
1.141444
 30
0.0
 10
1.785356
 20
1.131272
 30
0.0
 10
1.785356
 20
1.121095
 30
0.0
 10
1.785356
 20
1.110921
 30
0.0
 10
1.785356
 20
1.100750
 30
0.0
 10
1.785356
 20
1.090587
 30
0.0
 10
1.785356
 20
1.080406
 30
0.0
 10
1.785356
 20
1.070232
 30
0.0
 10
1.785356
 20
1.060056
 30
0.0
 10
1.785356
 20
1.049884
 30
0.0
 10
1.784299
 20
1.042118
 30
0.0
 10
1.781115
 20
1.034963
 30
0.0
 10
1.776208
 20
1.028845
 30
0.0
 10
1.770065
 20
1.024189
 30
0.0
 10
1.762851
 20
1.021445
 30
0.0
 10
1.755169
 20
1.020612
 30
0.0
 10
1.747532
 20
1.021530
 30
0.0
 10
1.740382
 20
1.024354
 30
0.0
 10
1.734129
 20
1.028845
 30
0.0
 10
1.729640
 20
1.035094
 30
0.0
 10
1.726814
 20
1.042250
 30
0.0
 10
1.725897
 20
1.049884
 30
0.0
 10
1.725897
 20
1.060066
 30
0.0
 10
1.725897
 20
1.070247
 30
0.0
 10
1.725897
 20
1.080411
 30
0.0
 10
1.725897
 20
1.090577
 30
0.0
 10
1.725897
 20
1.100761
 30
0.0
 10
1.725897
 20
1.110942
 30
0.0
 10
1.725897
 20
1.121120
 30
0.0
 10
1.725897
 20
1.131288
 30
0.0
 10
1.725897
 20
1.141471
 30
0.0
 10
1.725897
 20
1.151648
 30
0.0
 10
1.725897
 20
1.161821
 30
0.0
 10
1.725897
 20
1.171989
 30
0.0
 10
1.725897
 20
1.182169
 30
0.0
 10
1.725897
 20
1.192346
 30
0.0
 10
1.725897
 20
1.202518
 30
0.0
 10
1.725897
 20
1.212697
 30
0.0
 10
1.725897
 20
1.222860
 30
0.0
 10
1.725897
 20
1.233037
 30
0.0
 10
1.725897
 20
1.243214
 30
0.0
 10
1.725897
 20
1.253396
 30
0.0
 10
1.725897
 20
1.263562
 30
0.0
 10
1.725897
 20
1.273731
 30
0.0
 10
1.725897
 20
1.283911
 30
0.0
 10
1.725897
 20
1.294088
 30
0.0
 10
1.725897
 20
1.304259
 30
0.0
 10
1.725897
 20
1.314427
 30
0.0
 10
1.725897
 20
1.324600
 30
0.0
 10
1.725897
 20
1.334771
 30
0.0
 10
1.725897
 20
1.344946
 30
0.0
 10
1.725897
 20
1.355119
 30
0.0
 10
1.725897
 20
1.365284
 30
0.0
 10
1.725897
 20
1.375455
 30
0.0
 10
1.725897
 20
1.385628
 30
0.0
 10
1.725897
 20
1.395805
 30
0.0
 10
1.725897
 20
1.405978
 30
0.0
 10
1.725897
 20
1.416150
 30
0.0
 10
1.725897
 20
1.426313
 30
0.0
 10
1.725897
 20
1.436494
 30
0.0
 10
1.725897
 20
1.446668
 30
0.0
 10
1.725897
 20
1.456844
 30
0.0
 10
1.725897
 20
1.467015
 30
0.0
  0
LWPOLYLINE
  5
10a
100
AcDbEntity
  8
Layer_1
 62
7
100
AcDbPolyline
 90
66
 70
1
 10
1.906990
 20
1.268512
 30
0.0
 10
1.907822
 20
1.276192
 30
0.0
 10
1.910565
 20
1.283404
 30
0.0
 10
1.915223
 20
1.289552
 30
0.0
 10
1.921620
 20
1.294570
 30
0.0
 10
1.929108
 20
1.297699
 30
0.0
 10
1.937178
 20
1.298699
 30
0.0
 10
1.944990
 20
1.297741
 30
0.0
 10
1.952217
 20
1.294636
 30
0.0
 10
1.958217
 20
1.289552
 30
0.0
 10
1.962873
 20
1.283409
 30
0.0
 10
1.965617
 20
1.276195
 30
0.0
 10
1.966450
 20
1.268512
 30
0.0
 10
1.966450
 20
1.258096
 30
0.0
 10
1.966450
 20
1.247679
 30
0.0
 10
1.966450
 20
1.237259
 30
0.0
 10
1.966450
 20
1.226854
 30
0.0
 10
1.966450
 20
1.216449
 30
0.0
 10
1.966450
 20
1.206028
 30
0.0
 10
1.966450
 20
1.195624
 30
0.0
 10
1.966450
 20
1.185209
 30
0.0
 10
1.966450
 20
1.174798
 30
0.0
 10
1.966450
 20
1.164385
 30
0.0
 10
1.966450
 20
1.153981
 30
0.0
 10
1.966450
 20
1.143562
 30
0.0
 10
1.966450
 20
1.133150
 30
0.0
 10
1.966450
 20
1.122733
 30
0.0
 10
1.966450
 20
1.112328
 30
0.0
 10
1.966450
 20
1.101911
 30
0.0
 10
1.966450
 20
1.091502
 30
0.0
 10
1.966450
 20
1.081088
 30
0.0
 10
1.966450
 20
1.070692
 30
0.0
 10
1.966450
 20
1.060278
 30
0.0
 10
1.966450
 20
1.049884
 30
0.0
 10
1.965532
 20
1.042247
 30
0.0
 10
1.962708
 20
1.035098
 30
0.0
 10
1.958217
 20
1.028845
 30
0.0
 10
1.952074
 20
1.024189
 30
0.0
 10
1.944860
 20
1.021445
 30
0.0
 10
1.937178
 20
1.020612
 30
0.0
 10
1.929235
 20
1.021483
 30
0.0
 10
1.921758
 20
1.024255
 30
0.0
 10
1.915223
 20
1.028845
 30
0.0
 10
1.910734
 20
1.035094
 30
0.0
 10
1.907908
 20
1.042250
 30
0.0
 10
1.906990
 20
1.049884
 30
0.0
 10
1.906990
 20
1.060300
 30
0.0
 10
1.906990
 20
1.070718
 30
0.0
 10
1.906990
 20
1.081138
 30
0.0
 10
1.906990
 20
1.091543
 30
0.0
 10
1.906990
 20
1.101948
 30
0.0
 10
1.906990
 20
1.112368
 30
0.0
 10
1.906990
 20
1.122773
 30
0.0
 10
1.906990
 20
1.133188
 30
0.0
 10
1.906990
 20
1.143599
 30
0.0
 10
1.906990
 20
1.154012
 30
0.0
 10
1.906990
 20
1.164416
 30
0.0
 10
1.906990
 20
1.174834
 30
0.0
 10
1.906990
 20
1.185247
 30
0.0
 10
1.906990
 20
1.195663
 30
0.0
 10
1.906990
 20
1.206069
 30
0.0
 10
1.906990
 20
1.216485
 30
0.0
 10
1.906990
 20
1.226895
 30
0.0
 10
1.906990
 20
1.237308
 30
0.0
 10
1.906990
 20
1.247705
 30
0.0
 10
1.906990
 20
1.258118
 30
0.0
  0
LWPOLYLINE
  5
10b
100
AcDbEntity
  8
Layer_1
 62
7
100
AcDbPolyline
 90
25
 70
1
 10
1.902417
 20
1.401153
 30
0.0
 10
1.903487
 20
1.410214
 30
0.0
 10
1.906903
 20
1.418658
 30
0.0
 10
1.912479
 20
1.425851
 30
0.0
 10
1.919688
 20
1.431437
 30
0.0
 10
1.928129
 20
1.434846
 30
0.0
 10
1.937178
 20
1.435913
 30
0.0
 10
1.946239
 20
1.434843
 30
0.0
 10
1.954684
 20
1.431427
 30
0.0
 10
1.961876
 20
1.425851
 30
0.0
 10
1.967462
 20
1.418642
 30
0.0
 10
1.970871
 20
1.410201
 30
0.0
 10
1.971938
 20
1.401153
 30
0.0
 10
1.970868
 20
1.392091
 30
0.0
 10
1.967453
 20
1.383647
 30
0.0
 10
1.961876
 20
1.376454
 30
0.0
 10
1.954531
 20
1.371305
 30
0.0
 10
1.946100
 20
1.368248
 30
0.0
 10
1.937178
 20
1.367306
 30
0.0
 10
1.928245
 20
1.368251
 30
0.0
 10
1.919820
 20
1.371307
 30
0.0
 10
1.912479
 20
1.376454
 30
0.0
 10
1.906893
 20
1.383663
 30
0.0
 10
1.903484
 20
1.392104
 30
0.0
 10
1.902417
 20
1.401153
 30
0.0
  0
LWPOLYLINE
  5
10c
100
AcDbEntity
  8
Layer_1
 62
7
100
AcDbPolyline
 90
146
 70
1
 10
2.252699
 20
1.265768
 30
0.0
 10
2.243570
 20
1.270475
 30
0.0
 10
2.234082
 20
1.274426
 30
0.0
 10
2.224341
 20
1.277660
 30
0.0
 10
2.214433
 20
1.280313
 30
0.0
 10
2.204355
 20
1.282141
 30
0.0
 10
2.194154
 20
1.283148
 30
0.0
 10
2.184130
 20
1.283272
 30
0.0
 10
2.174154
 20
1.282278
 30
0.0
 10
2.164439
 20
1.279832
 30
0.0
 10
2.155365
 20
1.275593
 30
0.0
 10
2.147501
 20
1.269427
 30
0.0
 10
2.141488
 20
1.263474
 30
0.0
 10
2.136524
 20
1.256620
 30
0.0
 10
2.133504
 20
1.247752
 30
0.0
 10
2.132865
 20
1.238325
 30
0.0
 10
2.133764
 20
1.228541
 30
0.0
 10
2.136754
 20
1.219186
 30
0.0
 10
2.142013
 20
1.210882
 30
0.0
 10
2.149177
 20
1.204102
 30
0.0
 10
2.157191
 20
1.198340
 30
0.0
 10
2.165796
 20
1.193502
 30
0.0
 10
2.174061
 20
1.189823
 30
0.0
 10
2.182479
 20
1.186473
 30
0.0
 10
2.191015
 20
1.183436
 30
0.0
 10
2.199643
 20
1.180695
 30
0.0
 10
2.208932
 20
1.177900
 30
0.0
 10
2.218134
 20
1.174841
 30
0.0
 10
2.227230
 20
1.171509
 30
0.0
 10
2.236233
 20
1.167888
 30
0.0
 10
2.244201
 20
1.163696
 30
0.0
 10
2.251684
 20
1.158690
 30
0.0
 10
2.258559
 20
1.152876
 30
0.0
 10
2.264720
 20
1.146308
 30
0.0
 10
2.270098
 20
1.139069
 30
0.0
 10
2.274653
 20
1.131298
 30
0.0
 10
2.279111
 20
1.122248
 30
0.0
 10
2.282542
 20
1.112761
 30
0.0
 10
2.284729
 20
1.102916
 30
0.0
 10
2.285486
 20
1.092865
 30
0.0
 10
2.284715
 20
1.082816
 30
0.0
 10
2.282452
 20
1.073251
 30
0.0
 10
2.278645
 20
1.064191
 30
0.0
 10
2.273341
 20
1.055914
 30
0.0
 10
2.266747
 20
1.048614
 30
0.0
 10
2.259162
 20
1.042354
 30
0.0
 10
2.250869
 20
1.037078
 30
0.0
 10
2.242485
 20
1.032737
 30
0.0
 10
2.233801
 20
1.029035
 30
0.0
 10
2.224870
 20
1.025971
 30
0.0
 10
2.215752
 20
1.023534
 30
0.0
 10
2.206495
 20
1.021699
 30
0.0
 10
2.197146
 20
1.020432
 30
0.0
 10
2.187751
 20
1.019697
 30
0.0
 10
2.178465
 20
1.019206
 30
0.0
 10
2.169172
 20
1.019222
 30
0.0
 10
2.159885
 20
1.019779
 30
0.0
 10
2.150653
 20
1.020909
 30
0.0
 10
2.141525
 20
1.022634
 30
0.0
 10
2.132536
 20
1.024971
 30
0.0
 10
2.123717
 20
1.027930
 30
0.0
 10
2.114588
 20
1.031934
 30
0.0
 10
2.105737
 20
1.036519
 30
0.0
 10
2.097189
 20
1.041651
 30
0.0
 10
2.090868
 20
1.046264
 30
0.0
 10
2.084643
 20
1.051004
 30
0.0
 10
2.078509
 20
1.055875
 30
0.0
 10
2.072491
 20
1.060861
 30
0.0
 10
2.068832
 20
1.068180
 30
0.0
 10
2.071119
 20
1.075040
 30
0.0
 10
2.077979
 20
1.077327
 30
0.0
 10
2.084383
 20
1.074583
 30
0.0
 10
2.091317
 20
1.068995
 30
0.0
 10
2.098325
 20
1.063514
 30
0.0
 10
2.105422
 20
1.058117
 30
0.0
 10
2.112746
 20
1.053598
 30
0.0
 10
2.120386
 20
1.049617
 30
0.0
 10
2.128291
 20
1.046225
 30
0.0
 10
2.135446
 20
1.043289
 30
0.0
 10
2.142780
 20
1.040863
 30
0.0
 10
2.150245
 20
1.038907
 30
0.0
 10
2.158429
 20
1.037324
 30
0.0
 10
2.166662
 20
1.036093
 30
0.0
 10
2.174944
 20
1.035248
 30
0.0
 10
2.183238
 20
1.035543
 30
0.0
 10
2.191479
 20
1.036448
 30
0.0
 10
2.199643
 20
1.037992
 30
0.0
 10
2.207258
 20
1.040429
 30
0.0
 10
2.214328
 20
1.044122
 30
0.0
 10
2.220682
 20
1.048970
 30
0.0
 10
2.226416
 20
1.054823
 30
0.0
 10
2.230744
 20
1.061776
 30
0.0
 10
2.234017
 20
1.071123
 30
0.0
 10
2.235318
 20
1.080986
 30
0.0
 10
2.234339
 20
1.090638
 30
0.0
 10
2.231032
 20
1.099751
 30
0.0
 10
2.225256
 20
1.107514
 30
0.0
 10
2.217843
 20
1.114401
 30
0.0
 10
2.209500
 20
1.120144
 30
0.0
 10
2.200557
 20
1.124895
 30
0.0
 10
2.192554
 20
1.128640
 30
0.0
 10
2.184372
 20
1.132001
 30
0.0
 10
2.176047
 20
1.135012
 30
0.0
 10
2.167626
 20
1.137701
 30
0.0
 10
2.158624
 20
1.140928
 30
0.0
 10
2.149679
 20
1.144288
 30
0.0
 10
2.140791
 20
1.147783
 30
0.0
 10
2.131950
 20
1.151423
 30
0.0
 10
2.123518
 20
1.155532
 30
0.0
 10
2.115457
 20
1.160324
 30
0.0
 10
2.107860
 20
1.165820
 30
0.0
 10
2.100831
 20
1.172009
 30
0.0
 10
2.094445
 20
1.178866
 30
0.0
 10
2.089103
 20
1.186228
 30
0.0
 10
2.084922
 20
1.194305
 30
0.0
 10
2.082004
 20
1.202911
 30
0.0
 10
2.080332
 20
1.211865
 30
0.0
 10
2.079809
 20
1.220945
 30
0.0
 10
2.080332
 20
1.230994
 30
0.0
 10
2.082053
 20
1.240914
 30
0.0
 10
2.085186
 20
1.250468
 30
0.0
 10
2.089871
 20
1.259365
 30
0.0
 10
2.095643
 20
1.266672
 30
0.0
 10
2.102189
 20
1.273287
 30
0.0
 10
2.109451
 20
1.279108
 30
0.0
 10
2.117314
 20
1.284063
 30
0.0
 10
2.126030
 20
1.288407
 30
0.0
 10
2.135077
 20
1.291972
 30
0.0
 10
2.144400
 20
1.294783
 30
0.0
 10
2.153904
 20
1.296870
 30
0.0
 10
2.164123
 20
1.298384
 30
0.0
 10
2.174408
 20
1.299365
 30
0.0
 10
2.184737
 20
1.299783
 30
0.0
 10
2.195069
 20
1.299614
 30
0.0
 10
2.205026
 20
1.299253
 30
0.0
 10
2.214922
 20
1.298164
 30
0.0
 10
2.224713
 20
1.296343
 30
0.0
 10
2.234345
 20
1.293805
 30
0.0
 10
2.243774
 20
1.290577
 30
0.0
 10
2.252952
 20
1.286702
 30
0.0
 10
2.261846
 20
1.282234
 30
0.0
 10
2.266057
 20
1.279114
 30
0.0
 10
2.267335
 20
1.274001
 30
0.0
 10
2.264838
 20
1.267146
 30
0.0
 10
2.258187
 20
1.263938
 30
0.0
 10
2.252699
 20
1.265768
 30
0.0
  0
LWPOLYLINE
  5
10d
100
AcDbEntity
  8
Layer_1
 62
7
100
AcDbPolyline
 90
89
 70
1
 10
3.063348
 20
0.626219
 30
0.0
 10
3.065051
 20
0.636172
 30
0.0
 10
3.070551
 20
0.644628
 30
0.0
 10
3.078940
 20
0.650536
 30
0.0
 10
3.088961
 20
0.652632
 30
0.0
 10
3.099058
 20
0.650678
 30
0.0
 10
3.107370
 20
0.644628
 30
0.0
 10
3.113420
 20
0.636316
 30
0.0
 10
3.115375
 20
0.626219
 30
0.0
 10
3.115375
 20
0.616076
 30
0.0
 10
3.115375
 20
0.605941
 30
0.0
 10
3.115375
 20
0.595805
 30
0.0
 10
3.115375
 20
0.585662
 30
0.0
 10
3.115375
 20
0.575532
 30
0.0
 10
3.115375
 20
0.565397
 30
0.0
 10
3.115375
 20
0.555249
 30
0.0
 10
3.115375
 20
0.545105
 30
0.0
 10
3.115375
 20
0.534972
 30
0.0
 10
3.115375
 20
0.524838
 30
0.0
 10
3.115375
 20
0.514701
 30
0.0
 10
3.115375
 20
0.504570
 30
0.0
 10
3.115375
 20
0.494433
 30
0.0
 10
3.115375
 20
0.484295
 30
0.0
 10
3.115375
 20
0.474160
 30
0.0
 10
3.115375
 20
0.464015
 30
0.0
 10
3.115375
 20
0.453871
 30
0.0
 10
3.115375
 20
0.443722
 30
0.0
 10
3.115375
 20
0.433585
 30
0.0
 10
3.115375
 20
0.423449
 30
0.0
 10
3.115375
 20
0.413314
 30
0.0
 10
3.115375
 20
0.403174
 30
0.0
 10
3.115375
 20
0.393038
 30
0.0
 10
3.115375
 20
0.382901
 30
0.0
 10
3.115375
 20
0.372769
 30
0.0
 10
3.115375
 20
0.362626
 30
0.0
 10
3.115375
 20
0.352493
 30
0.0
 10
3.115375
 20
0.342355
 30
0.0
 10
3.115375
 20
0.332208
 30
0.0
 10
3.115375
 20
0.322064
 30
0.0
 10
3.115375
 20
0.311922
 30
0.0
 10
3.115375
 20
0.301778
 30
0.0
 10
3.115375
 20
0.291640
 30
0.0
 10
3.115375
 20
0.281507
 30
0.0
 10
3.115375
 20
0.271375
 30
0.0
 10
3.115375
 20
0.261229
 30
0.0
 10
3.113279
 20
0.251209
 30
0.0
 10
3.107370
 20
0.242820
 30
0.0
 10
3.098914
 20
0.237320
 30
0.0
 10
3.088961
 20
0.235616
 30
0.0
 10
3.079066
 20
0.237452
 30
0.0
 10
3.070551
 20
0.242820
 30
0.0
 10
3.065184
 20
0.251334
 30
0.0
 10
3.063348
 20
0.261229
 30
0.0
 10
3.063348
 20
0.271372
 30
0.0
 10
3.063348
 20
0.281507
 30
0.0
 10
3.063348
 20
0.291643
 30
0.0
 10
3.063348
 20
0.301786
 30
0.0
 10
3.063348
 20
0.311916
 30
0.0
 10
3.063348
 20
0.322051
 30
0.0
 10
3.063348
 20
0.332199
 30
0.0
 10
3.063348
 20
0.342343
 30
0.0
 10
3.063348
 20
0.352476
 30
0.0
 10
3.063348
 20
0.362610
 30
0.0
 10
3.063348
 20
0.372747
 30
0.0
 10
3.063348
 20
0.382878
 30
0.0
 10
3.063348
 20
0.393015
 30
0.0
 10
3.063348
 20
0.403153
 30
0.0
 10
3.063348
 20
0.413288
 30
0.0
 10
3.063348
 20
0.423432
 30
0.0
 10
3.063348
 20
0.433577
 30
0.0
 10
3.063348
 20
0.443726
 30
0.0
 10
3.063348
 20
0.453863
 30
0.0
 10
3.063348
 20
0.463998
 30
0.0
 10
3.063348
 20
0.474133
 30
0.0
 10
3.063348
 20
0.484273
 30
0.0
 10
3.063348
 20
0.494410
 30
0.0
 10
3.063348
 20
0.504547
 30
0.0
 10
3.063348
 20
0.514679
 30
0.0
 10
3.063348
 20
0.524822
 30
0.0
 10
3.063348
 20
0.534955
 30
0.0
 10
3.063348
 20
0.545093
 30
0.0
 10
3.063348
 20
0.555239
 30
0.0
 10
3.063348
 20
0.565384
 30
0.0
 10
3.063348
 20
0.575526
 30
0.0
 10
3.063348
 20
0.585669
 30
0.0
 10
3.063348
 20
0.595807
 30
0.0
 10
3.063348
 20
0.605941
 30
0.0
 10
3.063348
 20
0.616073
 30
0.0
 10
3.063348
 20
0.626219
 30
0.0
  0
LWPOLYLINE
  5
10e
100
AcDbEntity
  8
Layer_1
 62
7
100
AcDbPolyline
 90
138
 70
1
 10
3.293528
 20
0.478942
 30
0.0
 10
3.303849
 20
0.478422
 30
0.0
 10
3.314043
 20
0.476806
 30
0.0
 10
3.323983
 20
0.474045
 30
0.0
 10
3.333549
 20
0.470138
 30
0.0
 10
3.342730
 20
0.465801
 30
0.0
 10
3.351461
 20
0.460597
 30
0.0
 10
3.359632
 20
0.454554
 30
0.0
 10
3.367166
 20
0.447726
 30
0.0
 10
3.374057
 20
0.440470
 30
0.0
 10
3.380116
 20
0.432508
 30
0.0
 10
3.385292
 20
0.423946
 30
0.0
 10
3.389578
 20
0.414909
 30
0.0
 10
3.393150
 20
0.405279
 30
0.0
 10
3.395656
 20
0.395319
 30
0.0
 10
3.397114
 20
0.385157
 30
0.0
 10
3.397582
 20
0.374888
 30
0.0
 10
3.397582
 20
0.364624
 30
0.0
 10
3.397582
 20
0.354370
 30
0.0
 10
3.397582
 20
0.344111
 30
0.0
 10
3.397582
 20
0.333852
 30
0.0
 10
3.397582
 20
0.323599
 30
0.0
 10
3.397582
 20
0.313330
 30
0.0
 10
3.397582
 20
0.303075
 30
0.0
 10
3.397582
 20
0.292805
 30
0.0
 10
3.397582
 20
0.282548
 30
0.0
 10
3.397582
 20
0.272290
 30
0.0
 10
3.397582
 20
0.262030
 30
0.0
 10
3.395878
 20
0.252077
 30
0.0
 10
3.390378
 20
0.243620
 30
0.0
 10
3.382394
 20
0.237848
 30
0.0
 10
3.372769
 20
0.235616
 30
0.0
 10
3.365740
 20
0.236043
 30
0.0
 10
3.359147
 20
0.238520
 30
0.0
 10
3.353559
 20
0.242820
 30
0.0
 10
3.349168
 20
0.248417
 30
0.0
 10
3.346430
 20
0.254968
 30
0.0
 10
3.345555
 20
0.262030
 30
0.0
 10
3.345555
 20
0.272294
 30
0.0
 10
3.345555
 20
0.282547
 30
0.0
 10
3.345555
 20
0.292807
 30
0.0
 10
3.345555
 20
0.303065
 30
0.0
 10
3.345555
 20
0.313319
 30
0.0
 10
3.345555
 20
0.323587
 30
0.0
 10
3.345555
 20
0.333842
 30
0.0
 10
3.345555
 20
0.344113
 30
0.0
 10
3.345555
 20
0.354370
 30
0.0
 10
3.345555
 20
0.364628
 30
0.0
 10
3.345555
 20
0.374888
 30
0.0
 10
3.345326
 20
0.383177
 30
0.0
 10
3.344610
 20
0.391434
 30
0.0
 10
3.343364
 20
0.399633
 30
0.0
 10
3.341553
 20
0.407705
 30
0.0
 10
3.338714
 20
0.417392
 30
0.0
 10
3.335020
 20
0.426774
 30
0.0
 10
3.330347
 20
0.435720
 30
0.0
 10
3.325641
 20
0.442636
 30
0.0
 10
3.320052
 20
0.448880
 30
0.0
 10
3.313538
 20
0.454129
 30
0.0
 10
3.307418
 20
0.457947
 30
0.0
 10
3.300676
 20
0.460460
 30
0.0
 10
3.293528
 20
0.461333
 30
0.0
 10
3.284213
 20
0.460880
 30
0.0
 10
3.274983
 20
0.459461
 30
0.0
 10
3.265982
 20
0.457021
 30
0.0
 10
3.257323
 20
0.453545
 30
0.0
 10
3.249133
 20
0.449080
 30
0.0
 10
3.241501
 20
0.443724
 30
0.0
 10
3.241501
 20
0.433809
 30
0.0
 10
3.241501
 20
0.423894
 30
0.0
 10
3.241501
 20
0.413973
 30
0.0
 10
3.241501
 20
0.404058
 30
0.0
 10
3.241501
 20
0.394141
 30
0.0
 10
3.241501
 20
0.384232
 30
0.0
 10
3.241501
 20
0.374320
 30
0.0
 10
3.241501
 20
0.364402
 30
0.0
 10
3.241501
 20
0.354484
 30
0.0
 10
3.241501
 20
0.344567
 30
0.0
 10
3.241501
 20
0.334651
 30
0.0
 10
3.241501
 20
0.324730
 30
0.0
 10
3.241501
 20
0.314816
 30
0.0
 10
3.241501
 20
0.304892
 30
0.0
 10
3.241501
 20
0.294974
 30
0.0
 10
3.241501
 20
0.285052
 30
0.0
 10
3.241501
 20
0.275149
 30
0.0
 10
3.241501
 20
0.265231
 30
0.0
 10
3.241501
 20
0.261229
 30
0.0
 10
3.239725
 20
0.252152
 30
0.0
 10
3.235188
 20
0.244124
 30
0.0
 10
3.227883
 20
0.238506
 30
0.0
 10
3.219089
 20
0.235616
 30
0.0
 10
3.218289
 20
0.235616
 30
0.0
 10
3.217489
 20
0.235616
 30
0.0
 10
3.216689
 20
0.235616
 30
0.0
 10
3.215889
 20
0.235616
 30
0.0
 10
3.215089
 20
0.235616
 30
0.0
 10
3.214289
 20
0.235616
 30
0.0
 10
3.213489
 20
0.235616
 30
0.0
 10
3.204485
 20
0.237817
 30
0.0
 10
3.196680
 20
0.242820
 30
0.0
 10
3.191678
 20
0.250624
 30
0.0
 10
3.189477
 20
0.259628
 30
0.0
 10
3.189477
 20
0.260428
 30
0.0
 10
3.189477
 20
0.261228
 30
0.0
 10
3.189477
 20
0.262028
 30
0.0
 10
3.189477
 20
0.272052
 30
0.0
 10
3.189477
 20
0.282070
 30
0.0
 10
3.189477
 20
0.292088
 30
0.0
 10
3.189477
 20
0.302125
 30
0.0
 10
3.189477
 20
0.312144
 30
0.0
 10
3.189477
 20
0.322174
 30
0.0
 10
3.189477
 20
0.332203
 30
0.0
 10
3.189477
 20
0.342219
 30
0.0
 10
3.189477
 20
0.352252
 30
0.0
 10
3.189477
 20
0.362286
 30
0.0
 10
3.189477
 20
0.372312
 30
0.0
 10
3.189477
 20
0.382336
 30
0.0
 10
3.189477
 20
0.392354
 30
0.0
 10
3.189477
 20
0.402384
 30
0.0
 10
3.189477
 20
0.412418
 30
0.0
 10
3.189477
 20
0.422444
 30
0.0
 10
3.189477
 20
0.432462
 30
0.0
 10
3.189477
 20
0.442503
 30
0.0
 10
3.189477
 20
0.452527
 30
0.0
 10
3.190728
 20
0.461469
 30
0.0
 10
3.195080
 20
0.469336
 30
0.0
 10
3.201686
 20
0.474428
 30
0.0
 10
3.209487
 20
0.477340
 30
0.0
 10
3.218010
 20
0.477748
 30
0.0
 10
3.226296
 20
0.475739
 30
0.0
 10
3.233950
 20
0.471090
 30
0.0
 10
3.239103
 20
0.463733
 30
0.0
 10
3.247491
 20
0.468264
 30
0.0
 10
3.256239
 20
0.472069
 30
0.0
 10
3.265291
 20
0.475076
 30
0.0
 10
3.274569
 20
0.477231
 30
0.0
 10
3.284015
 20
0.478518
 30
0.0
 10
3.293531
 20
0.478941
 30
0.0
  0
LWPOLYLINE
  5
10f
100
AcDbEntity
  8
Layer_1
 62
7
100
AcDbPolyline
 90
135
 70
1
 10
3.614668
 20
0.450127
 30
0.0
 10
3.606680
 20
0.454246
 30
0.0
 10
3.598378
 20
0.457703
 30
0.0
 10
3.589855
 20
0.460533
 30
0.0
 10
3.581186
 20
0.462855
 30
0.0
 10
3.572367
 20
0.464454
 30
0.0
 10
3.563441
 20
0.465335
 30
0.0
 10
3.554671
 20
0.465443
 30
0.0
 10
3.545941
 20
0.464573
 30
0.0
 10
3.537441
 20
0.462433
 30
0.0
 10
3.529501
 20
0.458724
 30
0.0
 10
3.522620
 20
0.453329
 30
0.0
 10
3.517359
 20
0.448120
 30
0.0
 10
3.513015
 20
0.442123
 30
0.0
 10
3.510373
 20
0.434363
 30
0.0
 10
3.509813
 20
0.426115
 30
0.0
 10
3.510600
 20
0.417554
 30
0.0
 10
3.513216
 20
0.409368
 30
0.0
 10
3.517818
 20
0.402102
 30
0.0
 10
3.524096
 20
0.396162
 30
0.0
 10
3.531104
 20
0.391124
 30
0.0
 10
3.538628
 20
0.386894
 30
0.0
 10
3.545860
 20
0.383676
 30
0.0
 10
3.553214
 20
0.380748
 30
0.0
 10
3.560689
 20
0.378089
 30
0.0
 10
3.568244
 20
0.375689
 30
0.0
 10
3.576372
 20
0.373243
 30
0.0
 10
3.584423
 20
0.370566
 30
0.0
 10
3.592383
 20
0.367651
 30
0.0
 10
3.600260
 20
0.364483
 30
0.0
 10
3.608587
 20
0.359991
 30
0.0
 10
3.616271
 20
0.354470
 30
0.0
 10
3.623124
 20
0.347958
 30
0.0
 10
3.629012
 20
0.340569
 30
0.0
 10
3.633878
 20
0.332466
 30
0.0
 10
3.637774
 20
0.324558
 30
0.0
 10
3.640778
 20
0.316254
 30
0.0
 10
3.642694
 20
0.307637
 30
0.0
 10
3.643356
 20
0.298840
 30
0.0
 10
3.642682
 20
0.290044
 30
0.0
 10
3.640144
 20
0.280044
 30
0.0
 10
3.635661
 20
0.270751
 30
0.0
 10
3.629389
 20
0.262566
 30
0.0
 10
3.621718
 20
0.255671
 30
0.0
 10
3.613067
 20
0.250023
 30
0.0
 10
3.604477
 20
0.245644
 30
0.0
 10
3.595542
 20
0.242028
 30
0.0
 10
3.586339
 20
0.239170
 30
0.0
 10
3.576949
 20
0.237045
 30
0.0
 10
3.567426
 20
0.235610
 30
0.0
 10
3.557838
 20
0.234815
 30
0.0
 10
3.548364
 20
0.234357
 30
0.0
 10
3.538878
 20
0.234507
 30
0.0
 10
3.529418
 20
0.235316
 30
0.0
 10
3.520052
 20
0.236821
 30
0.0
 10
3.510823
 20
0.239053
 30
0.0
 10
3.501809
 20
0.242019
 30
0.0
 10
3.493821
 20
0.245522
 30
0.0
 10
3.486077
 20
0.249534
 30
0.0
 10
3.478597
 20
0.254025
 30
0.0
 10
3.471244
 20
0.259429
 30
0.0
 10
3.464040
 20
0.265031
 30
0.0
 10
3.456986
 20
0.270834
 30
0.0
 10
3.453784
 20
0.277237
 30
0.0
 10
3.455785
 20
0.283241
 30
0.0
 10
3.461788
 20
0.285242
 30
0.0
 10
3.467391
 20
0.282840
 30
0.0
 10
3.473459
 20
0.277951
 30
0.0
 10
3.479591
 20
0.273155
 30
0.0
 10
3.485801
 20
0.268433
 30
0.0
 10
3.492210
 20
0.264478
 30
0.0
 10
3.498894
 20
0.260995
 30
0.0
 10
3.505811
 20
0.258027
 30
0.0
 10
3.515260
 20
0.254345
 30
0.0
 10
3.525021
 20
0.251624
 30
0.0
 10
3.532182
 20
0.250239
 30
0.0
 10
3.539386
 20
0.249162
 30
0.0
 10
3.546633
 20
0.248422
 30
0.0
 10
3.553900
 20
0.248681
 30
0.0
 10
3.561106
 20
0.249473
 30
0.0
 10
3.568244
 20
0.250824
 30
0.0
 10
3.574908
 20
0.252956
 30
0.0
 10
3.581093
 20
0.256187
 30
0.0
 10
3.586653
 20
0.260429
 30
0.0
 10
3.591670
 20
0.265550
 30
0.0
 10
3.595458
 20
0.271635
 30
0.0
 10
3.598322
 20
0.279813
 30
0.0
 10
3.599460
 20
0.288443
 30
0.0
 10
3.598603
 20
0.296888
 30
0.0
 10
3.595717
 20
0.304848
 30
0.0
 10
3.590655
 20
0.311655
 30
0.0
 10
3.584169
 20
0.317681
 30
0.0
 10
3.576869
 20
0.322706
 30
0.0
 10
3.569044
 20
0.326863
 30
0.0
 10
3.559671
 20
0.331156
 30
0.0
 10
3.550041
 20
0.334869
 30
0.0
 10
3.540229
 20
0.338069
 30
0.0
 10
3.532352
 20
0.340892
 30
0.0
 10
3.524525
 20
0.343832
 30
0.0
 10
3.516749
 20
0.346891
 30
0.0
 10
3.509013
 20
0.350075
 30
0.0
 10
3.499850
 20
0.354655
 30
0.0
 10
3.491218
 20
0.360179
 30
0.0
 10
3.483278
 20
0.366672
 30
0.0
 10
3.476196
 20
0.374088
 30
0.0
 10
3.470509
 20
0.382240
 30
0.0
 10
3.466446
 20
0.391318
 30
0.0
 10
3.464115
 20
0.400979
 30
0.0
 10
3.463389
 20
0.410907
 30
0.0
 10
3.463847
 20
0.419700
 30
0.0
 10
3.465353
 20
0.428380
 30
0.0
 10
3.468094
 20
0.436740
 30
0.0
 10
3.472194
 20
0.444524
 30
0.0
 10
3.477244
 20
0.450918
 30
0.0
 10
3.482972
 20
0.456706
 30
0.0
 10
3.489314
 20
0.461791
 30
0.0
 10
3.496206
 20
0.466136
 30
0.0
 10
3.503818
 20
0.469930
 30
0.0
 10
3.511739
 20
0.473052
 30
0.0
 10
3.519901
 20
0.475514
 30
0.0
 10
3.528223
 20
0.477341
 30
0.0
 10
3.537164
 20
0.478666
 30
0.0
 10
3.546163
 20
0.479524
 30
0.0
 10
3.555201
 20
0.479890
 30
0.0
 10
3.564242
 20
0.479743
 30
0.0
 10
3.574392
 20
0.479313
 30
0.0
 10
3.584468
 20
0.478016
 30
0.0
 10
3.594406
 20
0.475849
 30
0.0
 10
3.604116
 20
0.472847
 30
0.0
 10
3.613548
 20
0.469056
 30
0.0
 10
3.622672
 20
0.464535
 30
0.0
 10
3.627475
 20
0.457331
 30
0.0
 10
3.625281
 20
0.451325
 30
0.0
 10
3.619470
 20
0.448526
 30
0.0
 10
3.614668
 20
0.450127
 30
0.0
  0
LWPOLYLINE
  5
110
100
AcDbEntity
  8
Layer_1
 62
7
100
AcDbPolyline
 90
108
 70
1
 10
3.710728
 20
0.596603
 30
0.0
 10
3.712432
 20
0.606556
 30
0.0
 10
3.717932
 20
0.615013
 30
0.0
 10
3.726245
 20
0.621063
 30
0.0
 10
3.736342
 20
0.623017
 30
0.0
 10
3.746439
 20
0.621063
 30
0.0
 10
3.754751
 20
0.615013
 30
0.0
 10
3.760801
 20
0.606701
 30
0.0
 10
3.762755
 20
0.596603
 30
0.0
 10
3.762755
 20
0.586266
 30
0.0
 10
3.762755
 20
0.575930
 30
0.0
 10
3.762755
 20
0.565593
 30
0.0
 10
3.762755
 20
0.555255
 30
0.0
 10
3.762755
 20
0.544917
 30
0.0
 10
3.762755
 20
0.534581
 30
0.0
 10
3.762755
 20
0.524241
 30
0.0
 10
3.762755
 20
0.513899
 30
0.0
 10
3.762755
 20
0.503552
 30
0.0
 10
3.762755
 20
0.493208
 30
0.0
 10
3.762755
 20
0.482863
 30
0.0
 10
3.762755
 20
0.472539
 30
0.0
 10
3.771568
 20
0.472539
 30
0.0
 10
3.780364
 20
0.472539
 30
0.0
 10
3.789177
 20
0.472539
 30
0.0
 10
3.797980
 20
0.472539
 30
0.0
 10
3.806776
 20
0.472539
 30
0.0
 10
3.815583
 20
0.472539
 30
0.0
 10
3.822011
 20
0.470691
 30
0.0
 10
3.824388
 20
0.464535
 30
0.0
 10
3.822186
 20
0.457931
 30
0.0
 10
3.815583
 20
0.455730
 30
0.0
 10
3.806771
 20
0.455730
 30
0.0
 10
3.797975
 20
0.455730
 30
0.0
 10
3.789161
 20
0.455730
 30
0.0
 10
3.780359
 20
0.455730
 30
0.0
 10
3.771562
 20
0.455730
 30
0.0
 10
3.762755
 20
0.455730
 30
0.0
 10
3.762755
 20
0.445805
 30
0.0
 10
3.762755
 20
0.435885
 30
0.0
 10
3.762755
 20
0.425969
 30
0.0
 10
3.762755
 20
0.416047
 30
0.0
 10
3.762755
 20
0.406129
 30
0.0
 10
3.762755
 20
0.396190
 30
0.0
 10
3.762755
 20
0.386265
 30
0.0
 10
3.762755
 20
0.376340
 30
0.0
 10
3.762755
 20
0.366403
 30
0.0
 10
3.762755
 20
0.356479
 30
0.0
 10
3.763084
 20
0.346151
 30
0.0
 10
3.764101
 20
0.335872
 30
0.0
 10
3.765849
 20
0.325687
 30
0.0
 10
3.768358
 20
0.315657
 30
0.0
 10
3.771198
 20
0.307145
 30
0.0
 10
3.774519
 20
0.298804
 30
0.0
 10
3.778364
 20
0.290680
 30
0.0
 10
3.782766
 20
0.282840
 30
0.0
 10
3.789084
 20
0.274791
 30
0.0
 10
3.796286
 20
0.267501
 30
0.0
 10
3.804377
 20
0.261229
 30
0.0
 10
3.812902
 20
0.256859
 30
0.0
 10
3.822065
 20
0.254134
 30
0.0
 10
3.831591
 20
0.253225
 30
0.0
 10
3.838195
 20
0.251024
 30
0.0
 10
3.840396
 20
0.244420
 30
0.0
 10
3.838195
 20
0.237817
 30
0.0
 10
3.831591
 20
0.235616
 30
0.0
 10
3.821895
 20
0.235990
 30
0.0
 10
3.812260
 20
0.237131
 30
0.0
 10
3.802750
 20
0.239056
 30
0.0
 10
3.793426
 20
0.241764
 30
0.0
 10
3.784367
 20
0.245221
 30
0.0
 10
3.776007
 20
0.249270
 30
0.0
 10
3.767943
 20
0.253869
 30
0.0
 10
3.760231
 20
0.259002
 30
0.0
 10
3.752881
 20
0.264671
 30
0.0
 10
3.745947
 20
0.270834
 30
0.0
 10
3.739779
 20
0.277774
 30
0.0
 10
3.734109
 20
0.285127
 30
0.0
 10
3.728971
 20
0.292849
 30
0.0
 10
3.724374
 20
0.300910
 30
0.0
 10
3.720333
 20
0.309254
 30
0.0
 10
3.716873
 20
0.318324
 30
0.0
 10
3.714167
 20
0.327647
 30
0.0
 10
3.712242
 20
0.337155
 30
0.0
 10
3.711103
 20
0.346779
 30
0.0
 10
3.710728
 20
0.356479
 30
0.0
 10
3.710728
 20
0.366491
 30
0.0
 10
3.710728
 20
0.376497
 30
0.0
 10
3.710728
 20
0.386505
 30
0.0
 10
3.710728
 20
0.396510
 30
0.0
 10
3.710728
 20
0.406515
 30
0.0
 10
3.710728
 20
0.416527
 30
0.0
 10
3.710728
 20
0.426532
 30
0.0
 10
3.710728
 20
0.436539
 30
0.0
 10
3.710728
 20
0.446535
 30
0.0
 10
3.710728
 20
0.456542
 30
0.0
 10
3.710728
 20
0.466536
 30
0.0
 10
3.710728
 20
0.476551
 30
0.0
 10
3.710728
 20
0.486565
 30
0.0
 10
3.710728
 20
0.496560
 30
0.0
 10
3.710728
 20
0.506571
 30
0.0
 10
3.710728
 20
0.516584
 30
0.0
 10
3.710728
 20
0.526596
 30
0.0
 10
3.710728
 20
0.536596
 30
0.0
 10
3.710728
 20
0.546596
 30
0.0
 10
3.710728
 20
0.556597
 30
0.0
 10
3.710728
 20
0.566599
 30
0.0
 10
3.710728
 20
0.576610
 30
0.0
 10
3.710728
 20
0.586610
 30
0.0
  0
LWPOLYLINE
  5
111
100
AcDbEntity
  8
Layer_1
 62
7
100
AcDbPolyline
 90
83
 70
1
 10
3.905715
 20
0.452528
 30
0.0
 10
3.906515
 20
0.461333
 30
0.0
 10
3.909074
 20
0.466534
 30
0.0
 10
3.912919
 20
0.470938
 30
0.0
 10
3.921043
 20
0.476147
 30
0.0
 10
3.930528
 20
0.478142
 30
0.0
 10
3.937604
 20
0.477774
 30
0.0
 10
3.944247
 20
0.475384
 30
0.0
 10
3.949738
 20
0.470938
 30
0.0
 10
3.954968
 20
0.464381
 30
0.0
 10
3.957742
 20
0.456531
 30
0.0
 10
3.965235
 20
0.461487
 30
0.0
 10
3.973110
 20
0.465815
 30
0.0
 10
3.981303
 20
0.469497
 30
0.0
 10
3.989759
 20
0.472539
 30
0.0
 10
3.998909
 20
0.475392
 30
0.0
 10
4.008285
 20
0.477395
 30
0.0
 10
4.017799
 20
0.478564
 30
0.0
 10
4.027378
 20
0.478942
 30
0.0
 10
4.034582
 20
0.478142
 30
0.0
 10
4.042586
 20
0.477342
 30
0.0
 10
4.051391
 20
0.474941
 30
0.0
 10
4.053792
 20
0.468538
 30
0.0
 10
4.051391
 20
0.462134
 30
0.0
 10
4.047389
 20
0.460533
 30
0.0
 10
4.043387
 20
0.459733
 30
0.0
 10
4.040185
 20
0.460533
 30
0.0
 10
4.033782
 20
0.461333
 30
0.0
 10
4.028979
 20
0.461333
 30
0.0
 10
4.020247
 20
0.460757
 30
0.0
 10
4.011696
 20
0.458896
 30
0.0
 10
4.003571
 20
0.455612
 30
0.0
 10
3.996162
 20
0.450928
 30
0.0
 10
3.989802
 20
0.445167
 30
0.0
 10
3.984079
 20
0.438781
 30
0.0
 10
3.979003
 20
0.431869
 30
0.0
 10
3.974551
 20
0.424514
 30
0.0
 10
3.970412
 20
0.416279
 30
0.0
 10
3.966896
 20
0.407770
 30
0.0
 10
3.964010
 20
0.399029
 30
0.0
 10
3.961744
 20
0.390096
 30
0.0
 10
3.960088
 20
0.381974
 30
0.0
 10
3.958829
 20
0.373782
 30
0.0
 10
3.958026
 20
0.365545
 30
0.0
 10
3.957742
 20
0.357279
 30
0.0
 10
3.957742
 20
0.346877
 30
0.0
 10
3.957742
 20
0.336480
 30
0.0
 10
3.957742
 20
0.326063
 30
0.0
 10
3.957742
 20
0.315665
 30
0.0
 10
3.957742
 20
0.305257
 30
0.0
 10
3.957742
 20
0.294849
 30
0.0
 10
3.957742
 20
0.284449
 30
0.0
 10
3.957742
 20
0.274034
 30
0.0
 10
3.957742
 20
0.263631
 30
0.0
 10
3.956942
 20
0.257227
 30
0.0
 10
3.953854
 20
0.248875
 30
0.0
 10
3.948137
 20
0.242020
 30
0.0
 10
3.940667
 20
0.237512
 30
0.0
 10
3.932129
 20
0.235616
 30
0.0
 10
3.924780
 20
0.236374
 30
0.0
 10
3.917877
 20
0.238981
 30
0.0
 10
3.912119
 20
0.243620
 30
0.0
 10
3.908481
 20
0.250032
 30
0.0
 10
3.906370
 20
0.257083
 30
0.0
 10
3.905715
 20
0.264431
 30
0.0
 10
3.905715
 20
0.274329
 30
0.0
 10
3.905715
 20
0.284221
 30
0.0
 10
3.905715
 20
0.294112
 30
0.0
 10
3.905715
 20
0.304022
 30
0.0
 10
3.905715
 20
0.313915
 30
0.0
 10
3.905715
 20
0.323818
 30
0.0
 10
3.905715
 20
0.333721
 30
0.0
 10
3.905715
 20
0.343611
 30
0.0
 10
3.905715
 20
0.353517
 30
0.0
 10
3.905715
 20
0.363425
 30
0.0
 10
3.905715
 20
0.373325
 30
0.0
 10
3.905715
 20
0.383222
 30
0.0
 10
3.905715
 20
0.393114
 30
0.0
 10
3.905715
 20
0.403017
 30
0.0
 10
3.905715
 20
0.412925
 30
0.0
 10
3.905715
 20
0.422824
 30
0.0
 10
3.905715
 20
0.432716
 30
0.0
 10
3.905715
 20
0.442631
 30
0.0
  0
LWPOLYLINE
  5
112
100
AcDbEntity
  8
Layer_1
 62
7
100
AcDbPolyline
 90
140
 70
1
 10
4.226530
 20
0.234015
 30
0.0
 10
4.218159
 20
0.234322
 30
0.0
 10
4.209837
 20
0.235263
 30
0.0
 10
4.201619
 20
0.236859
 30
0.0
 10
4.193566
 20
0.239113
 30
0.0
 10
4.185709
 20
0.242019
 30
0.0
 10
4.176874
 20
0.246653
 30
0.0
 10
4.168419
 20
0.251943
 30
0.0
 10
4.160402
 20
0.257882
 30
0.0
 10
4.152892
 20
0.264431
 30
0.0
 10
4.146151
 20
0.271809
 30
0.0
 10
4.140127
 20
0.279777
 30
0.0
 10
4.134891
 20
0.288278
 30
0.0
 10
4.130480
 20
0.297248
 30
0.0
 10
4.127578
 20
0.305093
 30
0.0
 10
4.125320
 20
0.313160
 30
0.0
 10
4.123723
 20
0.321386
 30
0.0
 10
4.122783
 20
0.329699
 30
0.0
 10
4.122476
 20
0.338069
 30
0.0
 10
4.122476
 20
0.348334
 30
0.0
 10
4.122476
 20
0.358587
 30
0.0
 10
4.122476
 20
0.368846
 30
0.0
 10
4.122476
 20
0.379105
 30
0.0
 10
4.122476
 20
0.389358
 30
0.0
 10
4.122476
 20
0.399627
 30
0.0
 10
4.122476
 20
0.409882
 30
0.0
 10
4.122476
 20
0.420152
 30
0.0
 10
4.122476
 20
0.430409
 30
0.0
 10
4.122476
 20
0.440667
 30
0.0
 10
4.122476
 20
0.450928
 30
0.0
 10
4.123948
 20
0.460754
 30
0.0
 10
4.128880
 20
0.469337
 30
0.0
 10
4.137336
 20
0.475048
 30
0.0
 10
4.147289
 20
0.477341
 30
0.0
 10
4.154318
 20
0.476914
 30
0.0
 10
4.160911
 20
0.474437
 30
0.0
 10
4.166499
 20
0.470138
 30
0.0
 10
4.170890
 20
0.464540
 30
0.0
 10
4.173628
 20
0.457989
 30
0.0
 10
4.174503
 20
0.450928
 30
0.0
 10
4.174503
 20
0.440663
 30
0.0
 10
4.174503
 20
0.430410
 30
0.0
 10
4.174503
 20
0.420150
 30
0.0
 10
4.174503
 20
0.409892
 30
0.0
 10
4.174503
 20
0.399638
 30
0.0
 10
4.174503
 20
0.389370
 30
0.0
 10
4.174503
 20
0.379115
 30
0.0
 10
4.174503
 20
0.368844
 30
0.0
 10
4.174503
 20
0.358587
 30
0.0
 10
4.174503
 20
0.348329
 30
0.0
 10
4.174503
 20
0.338069
 30
0.0
 10
4.174741
 20
0.329583
 30
0.0
 10
4.175471
 20
0.321135
 30
0.0
 10
4.176721
 20
0.312739
 30
0.0
 10
4.178505
 20
0.304452
 30
0.0
 10
4.181398
 20
0.295037
 30
0.0
 10
4.185112
 20
0.285924
 30
0.0
 10
4.189711
 20
0.277237
 30
0.0
 10
4.194332
 20
0.270254
 30
0.0
 10
4.199635
 20
0.263785
 30
0.0
 10
4.205720
 20
0.258027
 30
0.0
 10
4.212185
 20
0.254519
 30
0.0
 10
4.219205
 20
0.252342
 30
0.0
 10
4.226530
 20
0.251624
 30
0.0
 10
4.235846
 20
0.252077
 30
0.0
 10
4.245075
 20
0.253496
 30
0.0
 10
4.254076
 20
0.255936
 30
0.0
 10
4.262735
 20
0.259412
 30
0.0
 10
4.270926
 20
0.263877
 30
0.0
 10
4.278557
 20
0.269233
 30
0.0
 10
4.278557
 20
0.279148
 30
0.0
 10
4.278557
 20
0.289063
 30
0.0
 10
4.278557
 20
0.298985
 30
0.0
 10
4.278557
 20
0.308900
 30
0.0
 10
4.278557
 20
0.318816
 30
0.0
 10
4.278557
 20
0.328725
 30
0.0
 10
4.278557
 20
0.338637
 30
0.0
 10
4.278557
 20
0.348555
 30
0.0
 10
4.278557
 20
0.358473
 30
0.0
 10
4.278557
 20
0.368391
 30
0.0
 10
4.278557
 20
0.378307
 30
0.0
 10
4.278557
 20
0.388228
 30
0.0
 10
4.278557
 20
0.398141
 30
0.0
 10
4.278557
 20
0.408065
 30
0.0
 10
4.278557
 20
0.417984
 30
0.0
 10
4.278557
 20
0.427905
 30
0.0
 10
4.278557
 20
0.437808
 30
0.0
 10
4.278557
 20
0.447726
 30
0.0
 10
4.278557
 20
0.451728
 30
0.0
 10
4.280333
 20
0.460806
 30
0.0
 10
4.284870
 20
0.468833
 30
0.0
 10
4.292175
 20
0.474451
 30
0.0
 10
4.300969
 20
0.477341
 30
0.0
 10
4.301769
 20
0.477341
 30
0.0
 10
4.302569
 20
0.477341
 30
0.0
 10
4.303369
 20
0.477341
 30
0.0
 10
4.304169
 20
0.477341
 30
0.0
 10
4.304969
 20
0.477341
 30
0.0
 10
4.305769
 20
0.477341
 30
0.0
 10
4.306569
 20
0.477341
 30
0.0
 10
4.315374
 20
0.474940
 30
0.0
 10
4.322577
 20
0.469337
 30
0.0
 10
4.328180
 20
0.462133
 30
0.0
 10
4.330582
 20
0.453329
 30
0.0
 10
4.330582
 20
0.452529
 30
0.0
 10
4.330582
 20
0.451729
 30
0.0
 10
4.330582
 20
0.450929
 30
0.0
 10
4.330582
 20
0.440905
 30
0.0
 10
4.330582
 20
0.430887
 30
0.0
 10
4.330582
 20
0.420869
 30
0.0
 10
4.330582
 20
0.410832
 30
0.0
 10
4.330582
 20
0.400814
 30
0.0
 10
4.330582
 20
0.390783
 30
0.0
 10
4.330582
 20
0.380754
 30
0.0
 10
4.330582
 20
0.370738
 30
0.0
 10
4.330582
 20
0.360706
 30
0.0
 10
4.330582
 20
0.350671
 30
0.0
 10
4.330582
 20
0.340645
 30
0.0
 10
4.330582
 20
0.330621
 30
0.0
 10
4.330582
 20
0.320603
 30
0.0
 10
4.330582
 20
0.310573
 30
0.0
 10
4.330582
 20
0.300540
 30
0.0
 10
4.330582
 20
0.290513
 30
0.0
 10
4.330582
 20
0.280495
 30
0.0
 10
4.330582
 20
0.270454
 30
0.0
 10
4.330582
 20
0.260430
 30
0.0
 10
4.329103
 20
0.251355
 30
0.0
 10
4.324178
 20
0.243621
 30
0.0
 10
4.317676
 20
0.238364
 30
0.0
 10
4.309771
 20
0.235617
 30
0.0
 10
4.301271
 20
0.235246
 30
0.0
 10
4.292962
 20
0.237218
 30
0.0
 10
4.285772
 20
0.242009
 30
0.0
 10
4.280956
 20
0.249224
 30
0.0
 10
4.272567
 20
0.244693
 30
0.0
 10
4.263819
 20
0.240888
 30
0.0
 10
4.254768
 20
0.237881
 30
0.0
 10
4.245490
 20
0.235726
 30
0.0
 10
4.236043
 20
0.234439
 30
0.0
 10
4.226527
 20
0.234016
 30
0.0
  0
LWPOLYLINE
  5
113
100
AcDbEntity
  8
Layer_1
 62
7
100
AcDbPolyline
 90
203
 70
1
 10
4.402645
 20
0.452528
 30
0.0
 10
4.404349
 20
0.462481
 30
0.0
 10
4.409849
 20
0.470938
 30
0.0
 10
4.418238
 20
0.476846
 30
0.0
 10
4.428258
 20
0.478942
 30
0.0
 10
4.438279
 20
0.476846
 30
0.0
 10
4.446668
 20
0.470938
 30
0.0
 10
4.452271
 20
0.463734
 30
0.0
 10
4.460659
 20
0.468265
 30
0.0
 10
4.469407
 20
0.472071
 30
0.0
 10
4.478459
 20
0.475077
 30
0.0
 10
4.487737
 20
0.477233
 30
0.0
 10
4.497184
 20
0.478520
 30
0.0
 10
4.506699
 20
0.478942
 30
0.0
 10
4.515622
 20
0.478578
 30
0.0
 10
4.524483
 20
0.477453
 30
0.0
 10
4.533203
 20
0.475538
 30
0.0
 10
4.541710
 20
0.472825
 30
0.0
 10
4.549922
 20
0.469337
 30
0.0
 10
4.557624
 20
0.465426
 30
0.0
 10
4.565001
 20
0.460910
 30
0.0
 10
4.571961
 20
0.455783
 30
0.0
 10
4.578429
 20
0.450046
 30
0.0
 10
4.584339
 20
0.443724
 30
0.0
 10
4.590363
 20
0.449906
 30
0.0
 10
4.596869
 20
0.455593
 30
0.0
 10
4.603798
 20
0.460733
 30
0.0
 10
4.611117
 20
0.465319
 30
0.0
 10
4.618757
 20
0.469337
 30
0.0
 10
4.627165
 20
0.472790
 30
0.0
 10
4.635832
 20
0.475495
 30
0.0
 10
4.644705
 20
0.477424
 30
0.0
 10
4.653719
 20
0.478569
 30
0.0
 10
4.662780
 20
0.478942
 30
0.0
 10
4.673101
 20
0.478422
 30
0.0
 10
4.683295
 20
0.476806
 30
0.0
 10
4.693235
 20
0.474045
 30
0.0
 10
4.702801
 20
0.470138
 30
0.0
 10
4.711983
 20
0.465801
 30
0.0
 10
4.720713
 20
0.460597
 30
0.0
 10
4.728885
 20
0.454554
 30
0.0
 10
4.736418
 20
0.447726
 30
0.0
 10
4.743309
 20
0.440470
 30
0.0
 10
4.749368
 20
0.432508
 30
0.0
 10
4.754545
 20
0.423946
 30
0.0
 10
4.758830
 20
0.414909
 30
0.0
 10
4.761733
 20
0.407063
 30
0.0
 10
4.763991
 20
0.398996
 30
0.0
 10
4.765588
 20
0.390771
 30
0.0
 10
4.766527
 20
0.382458
 30
0.0
 10
4.766834
 20
0.374088
 30
0.0
 10
4.766834
 20
0.363823
 30
0.0
 10
4.766834
 20
0.353570
 30
0.0
 10
4.766834
 20
0.343310
 30
0.0
 10
4.766834
 20
0.333052
 30
0.0
 10
4.766834
 20
0.322798
 30
0.0
 10
4.766834
 20
0.312530
 30
0.0
 10
4.766834
 20
0.302275
 30
0.0
 10
4.766834
 20
0.292004
 30
0.0
 10
4.766834
 20
0.281747
 30
0.0
 10
4.766834
 20
0.271490
 30
0.0
 10
4.766834
 20
0.261229
 30
0.0
 10
4.764998
 20
0.251334
 30
0.0
 10
4.759630
 20
0.242820
 30
0.0
 10
4.753909
 20
0.238802
 30
0.0
 10
4.747361
 20
0.236375
 30
0.0
 10
4.740420
 20
0.235616
 30
0.0
 10
4.730867
 20
0.237396
 30
0.0
 10
4.722811
 20
0.242820
 30
0.0
 10
4.716903
 20
0.251209
 30
0.0
 10
4.714807
 20
0.261229
 30
0.0
 10
4.714807
 20
0.271494
 30
0.0
 10
4.714807
 20
0.281747
 30
0.0
 10
4.714807
 20
0.292006
 30
0.0
 10
4.714807
 20
0.302265
 30
0.0
 10
4.714807
 20
0.312518
 30
0.0
 10
4.714807
 20
0.322787
 30
0.0
 10
4.714807
 20
0.333042
 30
0.0
 10
4.714807
 20
0.343312
 30
0.0
 10
4.714807
 20
0.353570
 30
0.0
 10
4.714807
 20
0.363827
 30
0.0
 10
4.714807
 20
0.374088
 30
0.0
 10
4.714551
 20
0.383269
 30
0.0
 10
4.713743
 20
0.392418
 30
0.0
 10
4.712326
 20
0.401486
 30
0.0
 10
4.710246
 20
0.410420
 30
0.0
 10
4.707448
 20
0.419165
 30
0.0
 10
4.703906
 20
0.427619
 30
0.0
 10
4.699599
 20
0.435720
 30
0.0
 10
4.694357
 20
0.443539
 30
0.0
 10
4.688111
 20
0.450567
 30
0.0
 10
4.680678
 20
0.456302
 30
0.0
 10
4.672079
 20
0.460066
 30
0.0
 10
4.662780
 20
0.461333
 30
0.0
 10
4.653465
 20
0.460880
 30
0.0
 10
4.644235
 20
0.459461
 30
0.0
 10
4.635234
 20
0.457021
 30
0.0
 10
4.626575
 20
0.453545
 30
0.0
 10
4.618385
 20
0.449080
 30
0.0
 10
4.610753
 20
0.443724
 30
0.0
 10
4.610753
 20
0.433587
 30
0.0
 10
4.610753
 20
0.423449
 30
0.0
 10
4.610753
 20
0.413306
 30
0.0
 10
4.610753
 20
0.403168
 30
0.0
 10
4.610753
 20
0.393029
 30
0.0
 10
4.610753
 20
0.382898
 30
0.0
 10
4.610753
 20
0.372764
 30
0.0
 10
4.610753
 20
0.362624
 30
0.0
 10
4.610753
 20
0.352484
 30
0.0
 10
4.610753
 20
0.342343
 30
0.0
 10
4.610753
 20
0.332205
 30
0.0
 10
4.610753
 20
0.322062
 30
0.0
 10
4.610753
 20
0.311926
 30
0.0
 10
4.610753
 20
0.301779
 30
0.0
 10
4.610753
 20
0.291638
 30
0.0
 10
4.610753
 20
0.281495
 30
0.0
 10
4.610753
 20
0.271369
 30
0.0
 10
4.610753
 20
0.261229
 30
0.0
 10
4.608657
 20
0.251209
 30
0.0
 10
4.602749
 20
0.242820
 30
0.0
 10
4.594292
 20
0.237320
 30
0.0
 10
4.584339
 20
0.235616
 30
0.0
 10
4.574444
 20
0.237452
 30
0.0
 10
4.565930
 20
0.242820
 30
0.0
 10
4.560562
 20
0.251334
 30
0.0
 10
4.558726
 20
0.261229
 30
0.0
 10
4.558726
 20
0.271494
 30
0.0
 10
4.558726
 20
0.281747
 30
0.0
 10
4.558726
 20
0.292006
 30
0.0
 10
4.558726
 20
0.302265
 30
0.0
 10
4.558726
 20
0.312518
 30
0.0
 10
4.558726
 20
0.322787
 30
0.0
 10
4.558726
 20
0.333042
 30
0.0
 10
4.558726
 20
0.343312
 30
0.0
 10
4.558726
 20
0.353570
 30
0.0
 10
4.558726
 20
0.363827
 30
0.0
 10
4.558726
 20
0.374088
 30
0.0
 10
4.558470
 20
0.383269
 30
0.0
 10
4.557662
 20
0.392418
 30
0.0
 10
4.556245
 20
0.401486
 30
0.0
 10
4.554164
 20
0.410420
 30
0.0
 10
4.551366
 20
0.419165
 30
0.0
 10
4.547825
 20
0.427619
 30
0.0
 10
4.543518
 20
0.435720
 30
0.0
 10
4.538276
 20
0.443539
 30
0.0
 10
4.532030
 20
0.450567
 30
0.0
 10
4.524597
 20
0.456302
 30
0.0
 10
4.515997
 20
0.460066
 30
0.0
 10
4.506699
 20
0.461333
 30
0.0
 10
4.497384
 20
0.460880
 30
0.0
 10
4.488154
 20
0.459461
 30
0.0
 10
4.479153
 20
0.457021
 30
0.0
 10
4.470494
 20
0.453545
 30
0.0
 10
4.462304
 20
0.449080
 30
0.0
 10
4.454672
 20
0.443724
 30
0.0
 10
4.454672
 20
0.433587
 30
0.0
 10
4.454672
 20
0.423449
 30
0.0
 10
4.454672
 20
0.413306
 30
0.0
 10
4.454672
 20
0.403168
 30
0.0
 10
4.454672
 20
0.393029
 30
0.0
 10
4.454672
 20
0.382898
 30
0.0
 10
4.454672
 20
0.372764
 30
0.0
 10
4.454672
 20
0.362624
 30
0.0
 10
4.454672
 20
0.352484
 30
0.0
 10
4.454672
 20
0.342343
 30
0.0
 10
4.454672
 20
0.332205
 30
0.0
 10
4.454672
 20
0.322062
 30
0.0
 10
4.454672
 20
0.311926
 30
0.0
 10
4.454672
 20
0.301779
 30
0.0
 10
4.454672
 20
0.291638
 30
0.0
 10
4.454672
 20
0.281495
 30
0.0
 10
4.454672
 20
0.271369
 30
0.0
 10
4.454672
 20
0.261229
 30
0.0
 10
4.452294
 20
0.251676
 30
0.0
 10
4.446668
 20
0.243620
 30
0.0
 10
4.439083
 20
0.237932
 30
0.0
 10
4.429859
 20
0.235616
 30
0.0
 10
4.429059
 20
0.235616
 30
0.0
 10
4.428259
 20
0.235616
 30
0.0
 10
4.427459
 20
0.235616
 30
0.0
 10
4.426659
 20
0.235616
 30
0.0
 10
4.417106
 20
0.237993
 30
0.0
 10
4.409050
 20
0.243620
 30
0.0
 10
4.404180
 20
0.251814
 30
0.0
 10
4.402647
 20
0.261229
 30
0.0
 10
4.402647
 20
0.271295
 30
0.0
 10
4.402647
 20
0.281355
 30
0.0
 10
4.402646
 20
0.291416
 30
0.0
 10
4.402646
 20
0.301494
 30
0.0
 10
4.402646
 20
0.311555
 30
0.0
 10
4.402646
 20
0.321627
 30
0.0
 10
4.402646
 20
0.331699
 30
0.0
 10
4.402646
 20
0.341778
 30
0.0
 10
4.402646
 20
0.351851
 30
0.0
 10
4.402646
 20
0.361926
 30
0.0
 10
4.402646
 20
0.371993
 30
0.0
 10
4.402646
 20
0.382057
 30
0.0
 10
4.402646
 20
0.392116
 30
0.0
 10
4.402645
 20
0.402186
 30
0.0
 10
4.402645
 20
0.412260
 30
0.0
 10
4.402645
 20
0.422326
 30
0.0
 10
4.402645
 20
0.432384
 30
0.0
 10
4.402645
 20
0.442465
 30
0.0
  0
LWPOLYLINE
  5
114
100
AcDbEntity
  8
Layer_1
 62
7
100
AcDbPolyline
 90
165
 70
1
 10
4.954592
 20
0.234015
 30
0.0
 10
4.944734
 20
0.234380
 30
0.0
 10
4.934937
 20
0.235501
 30
0.0
 10
4.925256
 20
0.237413
 30
0.0
 10
4.915780
 20
0.240122
 30
0.0
 10
4.906567
 20
0.243620
 30
0.0
 10
4.897964
 20
0.247679
 30
0.0
 10
4.889680
 20
0.252367
 30
0.0
 10
4.881789
 20
0.257667
 30
0.0
 10
4.874327
 20
0.263571
 30
0.0
 10
4.867347
 20
0.270034
 30
0.0
 10
4.860883
 20
0.277015
 30
0.0
 10
4.854979
 20
0.284478
 30
0.0
 10
4.849673
 20
0.292379
 30
0.0
 10
4.844986
 20
0.300663
 30
0.0
 10
4.840933
 20
0.309254
 30
0.0
 10
4.837435
 20
0.318468
 30
0.0
 10
4.834723
 20
0.327955
 30
0.0
 10
4.832812
 20
0.337639
 30
0.0
 10
4.831692
 20
0.347431
 30
0.0
 10
4.831328
 20
0.357279
 30
0.0
 10
4.831693
 20
0.367138
 30
0.0
 10
4.832815
 20
0.376934
 30
0.0
 10
4.834726
 20
0.386615
 30
0.0
 10
4.837435
 20
0.396091
 30
0.0
 10
4.840933
 20
0.405304
 30
0.0
 10
4.844992
 20
0.413907
 30
0.0
 10
4.849680
 20
0.422192
 30
0.0
 10
4.854980
 20
0.430082
 30
0.0
 10
4.860884
 20
0.437544
 30
0.0
 10
4.867347
 20
0.444524
 30
0.0
 10
4.874328
 20
0.450988
 30
0.0
 10
4.881791
 20
0.456892
 30
0.0
 10
4.889692
 20
0.462199
 30
0.0
 10
4.897976
 20
0.466885
 30
0.0
 10
4.906567
 20
0.470938
 30
0.0
 10
4.915782
 20
0.474436
 30
0.0
 10
4.925269
 20
0.477148
 30
0.0
 10
4.934952
 20
0.479059
 30
0.0
 10
4.944744
 20
0.480179
 30
0.0
 10
4.954592
 20
0.480543
 30
0.0
 10
4.964451
 20
0.480178
 30
0.0
 10
4.974248
 20
0.479057
 30
0.0
 10
4.983929
 20
0.477145
 30
0.0
 10
4.993404
 20
0.474436
 30
0.0
 10
5.002617
 20
0.470938
 30
0.0
 10
5.011221
 20
0.466879
 30
0.0
 10
5.019505
 20
0.462191
 30
0.0
 10
5.027395
 20
0.456891
 30
0.0
 10
5.034858
 20
0.450987
 30
0.0
 10
5.041838
 20
0.444524
 30
0.0
 10
5.048302
 20
0.437543
 30
0.0
 10
5.054206
 20
0.430080
 30
0.0
 10
5.059512
 20
0.422179
 30
0.0
 10
5.064198
 20
0.413895
 30
0.0
 10
5.068251
 20
0.405304
 30
0.0
 10
5.071750
 20
0.396090
 30
0.0
 10
5.074461
 20
0.386602
 30
0.0
 10
5.076373
 20
0.376919
 30
0.0
 10
5.077493
 20
0.367127
 30
0.0
 10
5.077856
 20
0.357279
 30
0.0
 10
5.077056
 20
0.347674
 30
0.0
 10
5.076256
 20
0.339670
 30
0.0
 10
5.069853
 20
0.339670
 30
0.0
 10
5.063450
 20
0.339670
 30
0.0
 10
5.053654
 20
0.339670
 30
0.0
 10
5.043846
 20
0.339670
 30
0.0
 10
5.034029
 20
0.339670
 30
0.0
 10
5.024229
 20
0.339670
 30
0.0
 10
5.014092
 20
0.339670
 30
0.0
 10
5.003956
 20
0.339670
 30
0.0
 10
4.993819
 20
0.339670
 30
0.0
 10
4.983682
 20
0.339670
 30
0.0
 10
4.973543
 20
0.339670
 30
0.0
 10
4.963407
 20
0.339670
 30
0.0
 10
4.953268
 20
0.339670
 30
0.0
 10
4.943126
 20
0.339670
 30
0.0
 10
4.932979
 20
0.339670
 30
0.0
 10
4.922836
 20
0.339670
 30
0.0
 10
4.912691
 20
0.339670
 30
0.0
 10
4.902566
 20
0.339670
 30
0.0
 10
4.895963
 20
0.341871
 30
0.0
 10
4.893762
 20
0.348474
 30
0.0
 10
4.895963
 20
0.355078
 30
0.0
 10
4.902566
 20
0.357279
 30
0.0
 10
4.912771
 20
0.357279
 30
0.0
 10
4.922973
 20
0.357279
 30
0.0
 10
4.933176
 20
0.357279
 30
0.0
 10
4.943381
 20
0.357279
 30
0.0
 10
4.953586
 20
0.357279
 30
0.0
 10
4.963788
 20
0.357279
 30
0.0
 10
4.973995
 20
0.357279
 30
0.0
 10
4.984203
 20
0.357279
 30
0.0
 10
4.994416
 20
0.357279
 30
0.0
 10
5.004627
 20
0.357279
 30
0.0
 10
5.014839
 20
0.357279
 30
0.0
 10
5.025030
 20
0.357279
 30
0.0
 10
5.024701
 20
0.367606
 30
0.0
 10
5.023684
 20
0.377886
 30
0.0
 10
5.021936
 20
0.388070
 30
0.0
 10
5.019427
 20
0.398100
 30
0.0
 10
5.016555
 20
0.406912
 30
0.0
 10
5.013101
 20
0.415492
 30
0.0
 10
5.008998
 20
0.423801
 30
0.0
 10
5.004219
 20
0.431718
 30
0.0
 10
4.999510
 20
0.438157
 30
0.0
 10
4.994214
 20
0.444121
 30
0.0
 10
4.988298
 20
0.449496
 30
0.0
 10
4.981807
 20
0.454129
 30
0.0
 10
4.973387
 20
0.458890
 30
0.0
 10
4.964211
 20
0.461915
 30
0.0
 10
4.954593
 20
0.462934
 30
0.0
 10
4.944985
 20
0.461917
 30
0.0
 10
4.935802
 20
0.458891
 30
0.0
 10
4.927379
 20
0.454129
 30
0.0
 10
4.920883
 20
0.449492
 30
0.0
 10
4.914971
 20
0.444119
 30
0.0
 10
4.909676
 20
0.438157
 30
0.0
 10
4.904967
 20
0.431718
 30
0.0
 10
4.900180
 20
0.423786
 30
0.0
 10
4.896087
 20
0.415495
 30
0.0
 10
4.892629
 20
0.406906
 30
0.0
 10
4.889760
 20
0.398100
 30
0.0
 10
4.887251
 20
0.388074
 30
0.0
 10
4.885503
 20
0.377891
 30
0.0
 10
4.884485
 20
0.367609
 30
0.0
 10
4.884157
 20
0.357279
 30
0.0
 10
4.884485
 20
0.346952
 30
0.0
 10
4.885502
 20
0.336672
 30
0.0
 10
4.887250
 20
0.326488
 30
0.0
 10
4.889760
 20
0.316458
 30
0.0
 10
4.892631
 20
0.307646
 30
0.0
 10
4.896086
 20
0.299066
 30
0.0
 10
4.900188
 20
0.290757
 30
0.0
 10
4.904967
 20
0.282840
 30
0.0
 10
4.909737
 20
0.276280
 30
0.0
 10
4.915067
 20
0.270152
 30
0.0
 10
4.920952
 20
0.264572
 30
0.0
 10
4.927379
 20
0.259628
 30
0.0
 10
4.935904
 20
0.255258
 30
0.0
 10
4.945067
 20
0.252533
 30
0.0
 10
4.954593
 20
0.251624
 30
0.0
 10
4.956194
 20
0.251624
 30
0.0
 10
4.966252
 20
0.252105
 30
0.0
 10
4.976209
 20
0.253586
 30
0.0
 10
4.985965
 20
0.256097
 30
0.0
 10
4.995414
 20
0.259628
 30
0.0
 10
5.004473
 20
0.264194
 30
0.0
 10
5.013150
 20
0.269452
 30
0.0
 10
5.021354
 20
0.275399
 30
0.0
 10
5.029032
 20
0.282040
 30
0.0
 10
5.035435
 20
0.285242
 30
0.0
 10
5.042039
 20
0.283040
 30
0.0
 10
5.044240
 20
0.276437
 30
0.0
 10
5.041038
 20
0.269233
 30
0.0
 10
5.033978
 20
0.262994
 30
0.0
 10
5.026487
 20
0.257305
 30
0.0
 10
5.018594
 20
0.252174
 30
0.0
 10
5.010357
 20
0.247616
 30
0.0
 10
5.001818
 20
0.243620
 30
0.0
 10
4.992785
 20
0.240084
 30
0.0
 10
4.983459
 20
0.237367
 30
0.0
 10
4.973935
 20
0.235471
 30
0.0
 10
4.964302
 20
0.234371
 30
0.0
 10
4.954593
 20
0.234015
 30
0.0
  0
LWPOLYLINE
  5
115
100
AcDbEntity
  8
Layer_1
 62
7
100
AcDbPolyline
 90
138
 70
1
 10
5.247543
 20
0.478942
 30
0.0
 10
5.257864
 20
0.478422
 30
0.0
 10
5.268058
 20
0.476806
 30
0.0
 10
5.277998
 20
0.474045
 30
0.0
 10
5.287564
 20
0.470138
 30
0.0
 10
5.296745
 20
0.465801
 30
0.0
 10
5.305476
 20
0.460597
 30
0.0
 10
5.313647
 20
0.454554
 30
0.0
 10
5.321181
 20
0.447726
 30
0.0
 10
5.328072
 20
0.440470
 30
0.0
 10
5.334131
 20
0.432508
 30
0.0
 10
5.339307
 20
0.423946
 30
0.0
 10
5.343593
 20
0.414909
 30
0.0
 10
5.347165
 20
0.405279
 30
0.0
 10
5.349671
 20
0.395319
 30
0.0
 10
5.351128
 20
0.385157
 30
0.0
 10
5.351597
 20
0.374888
 30
0.0
 10
5.351597
 20
0.364624
 30
0.0
 10
5.351597
 20
0.354370
 30
0.0
 10
5.351597
 20
0.344111
 30
0.0
 10
5.351597
 20
0.333852
 30
0.0
 10
5.351597
 20
0.323599
 30
0.0
 10
5.351597
 20
0.313330
 30
0.0
 10
5.351597
 20
0.303075
 30
0.0
 10
5.351597
 20
0.292805
 30
0.0
 10
5.351597
 20
0.282548
 30
0.0
 10
5.351597
 20
0.272290
 30
0.0
 10
5.351597
 20
0.262030
 30
0.0
 10
5.349893
 20
0.252077
 30
0.0
 10
5.344393
 20
0.243620
 30
0.0
 10
5.336409
 20
0.237848
 30
0.0
 10
5.326784
 20
0.235616
 30
0.0
 10
5.319755
 20
0.236043
 30
0.0
 10
5.313162
 20
0.238520
 30
0.0
 10
5.307574
 20
0.242820
 30
0.0
 10
5.303183
 20
0.248417
 30
0.0
 10
5.300445
 20
0.254968
 30
0.0
 10
5.299570
 20
0.262030
 30
0.0
 10
5.299570
 20
0.272294
 30
0.0
 10
5.299570
 20
0.282547
 30
0.0
 10
5.299570
 20
0.292807
 30
0.0
 10
5.299570
 20
0.303065
 30
0.0
 10
5.299570
 20
0.313319
 30
0.0
 10
5.299570
 20
0.323587
 30
0.0
 10
5.299570
 20
0.333842
 30
0.0
 10
5.299570
 20
0.344113
 30
0.0
 10
5.299570
 20
0.354370
 30
0.0
 10
5.299570
 20
0.364628
 30
0.0
 10
5.299570
 20
0.374888
 30
0.0
 10
5.299341
 20
0.383177
 30
0.0
 10
5.298625
 20
0.391434
 30
0.0
 10
5.297379
 20
0.399633
 30
0.0
 10
5.295568
 20
0.407705
 30
0.0
 10
5.292729
 20
0.417392
 30
0.0
 10
5.289035
 20
0.426774
 30
0.0
 10
5.284362
 20
0.435720
 30
0.0
 10
5.279656
 20
0.442636
 30
0.0
 10
5.274067
 20
0.448880
 30
0.0
 10
5.267553
 20
0.454129
 30
0.0
 10
5.261433
 20
0.457947
 30
0.0
 10
5.254691
 20
0.460460
 30
0.0
 10
5.247543
 20
0.461333
 30
0.0
 10
5.238227
 20
0.460880
 30
0.0
 10
5.228998
 20
0.459461
 30
0.0
 10
5.219997
 20
0.457021
 30
0.0
 10
5.211338
 20
0.453545
 30
0.0
 10
5.203148
 20
0.449080
 30
0.0
 10
5.195516
 20
0.443724
 30
0.0
 10
5.195516
 20
0.433809
 30
0.0
 10
5.195516
 20
0.423894
 30
0.0
 10
5.195516
 20
0.413973
 30
0.0
 10
5.195516
 20
0.404058
 30
0.0
 10
5.195516
 20
0.394141
 30
0.0
 10
5.195516
 20
0.384232
 30
0.0
 10
5.195516
 20
0.374320
 30
0.0
 10
5.195516
 20
0.364402
 30
0.0
 10
5.195516
 20
0.354484
 30
0.0
 10
5.195516
 20
0.344567
 30
0.0
 10
5.195516
 20
0.334651
 30
0.0
 10
5.195516
 20
0.324730
 30
0.0
 10
5.195516
 20
0.314816
 30
0.0
 10
5.195516
 20
0.304892
 30
0.0
 10
5.195516
 20
0.294974
 30
0.0
 10
5.195516
 20
0.285052
 30
0.0
 10
5.195516
 20
0.275149
 30
0.0
 10
5.195516
 20
0.265231
 30
0.0
 10
5.195516
 20
0.261229
 30
0.0
 10
5.193740
 20
0.252152
 30
0.0
 10
5.189203
 20
0.244124
 30
0.0
 10
5.181898
 20
0.238506
 30
0.0
 10
5.173104
 20
0.235616
 30
0.0
 10
5.172304
 20
0.235616
 30
0.0
 10
5.171504
 20
0.235616
 30
0.0
 10
5.170704
 20
0.235616
 30
0.0
 10
5.169904
 20
0.235616
 30
0.0
 10
5.169104
 20
0.235616
 30
0.0
 10
5.168304
 20
0.235616
 30
0.0
 10
5.167504
 20
0.235616
 30
0.0
 10
5.158499
 20
0.237817
 30
0.0
 10
5.150695
 20
0.242820
 30
0.0
 10
5.145693
 20
0.250624
 30
0.0
 10
5.143492
 20
0.259628
 30
0.0
 10
5.143492
 20
0.260428
 30
0.0
 10
5.143492
 20
0.261228
 30
0.0
 10
5.143492
 20
0.262028
 30
0.0
 10
5.143492
 20
0.272052
 30
0.0
 10
5.143492
 20
0.282070
 30
0.0
 10
5.143492
 20
0.292088
 30
0.0
 10
5.143492
 20
0.302125
 30
0.0
 10
5.143492
 20
0.312144
 30
0.0
 10
5.143492
 20
0.322174
 30
0.0
 10
5.143492
 20
0.332203
 30
0.0
 10
5.143492
 20
0.342219
 30
0.0
 10
5.143492
 20
0.352252
 30
0.0
 10
5.143492
 20
0.362286
 30
0.0
 10
5.143492
 20
0.372312
 30
0.0
 10
5.143492
 20
0.382336
 30
0.0
 10
5.143492
 20
0.392354
 30
0.0
 10
5.143492
 20
0.402384
 30
0.0
 10
5.143492
 20
0.412418
 30
0.0
 10
5.143492
 20
0.422444
 30
0.0
 10
5.143492
 20
0.432462
 30
0.0
 10
5.143492
 20
0.442503
 30
0.0
 10
5.143492
 20
0.452527
 30
0.0
 10
5.144743
 20
0.461469
 30
0.0
 10
5.149095
 20
0.469336
 30
0.0
 10
5.155701
 20
0.474428
 30
0.0
 10
5.163502
 20
0.477340
 30
0.0
 10
5.172024
 20
0.477748
 30
0.0
 10
5.180311
 20
0.475739
 30
0.0
 10
5.187965
 20
0.471090
 30
0.0
 10
5.193117
 20
0.463733
 30
0.0
 10
5.201506
 20
0.468264
 30
0.0
 10
5.210254
 20
0.472069
 30
0.0
 10
5.219306
 20
0.475076
 30
0.0
 10
5.228584
 20
0.477231
 30
0.0
 10
5.238030
 20
0.478518
 30
0.0
 10
5.247546
 20
0.478941
 30
0.0
  0
LWPOLYLINE
  5
116
100
AcDbEntity
  8
Layer_1
 62
7
100
AcDbPolyline
 90
108
 70
1
 10
5.426021
 20
0.596603
 30
0.0
 10
5.427725
 20
0.606556
 30
0.0
 10
5.433225
 20
0.615013
 30
0.0
 10
5.441537
 20
0.621063
 30
0.0
 10
5.451635
 20
0.623017
 30
0.0
 10
5.461732
 20
0.621063
 30
0.0
 10
5.470044
 20
0.615013
 30
0.0
 10
5.476094
 20
0.606701
 30
0.0
 10
5.478048
 20
0.596603
 30
0.0
 10
5.478048
 20
0.586266
 30
0.0
 10
5.478048
 20
0.575930
 30
0.0
 10
5.478048
 20
0.565593
 30
0.0
 10
5.478048
 20
0.555255
 30
0.0
 10
5.478048
 20
0.544917
 30
0.0
 10
5.478048
 20
0.534581
 30
0.0
 10
5.478048
 20
0.524241
 30
0.0
 10
5.478048
 20
0.513899
 30
0.0
 10
5.478048
 20
0.503552
 30
0.0
 10
5.478048
 20
0.493208
 30
0.0
 10
5.478048
 20
0.482863
 30
0.0
 10
5.478048
 20
0.472539
 30
0.0
 10
5.486861
 20
0.472539
 30
0.0
 10
5.495656
 20
0.472539
 30
0.0
 10
5.504470
 20
0.472539
 30
0.0
 10
5.513272
 20
0.472539
 30
0.0
 10
5.522069
 20
0.472539
 30
0.0
 10
5.530876
 20
0.472539
 30
0.0
 10
5.537304
 20
0.470691
 30
0.0
 10
5.539680
 20
0.464535
 30
0.0
 10
5.537479
 20
0.457931
 30
0.0
 10
5.530876
 20
0.455730
 30
0.0
 10
5.522063
 20
0.455730
 30
0.0
 10
5.513267
 20
0.455730
 30
0.0
 10
5.504454
 20
0.455730
 30
0.0
 10
5.495651
 20
0.455730
 30
0.0
 10
5.486855
 20
0.455730
 30
0.0
 10
5.478048
 20
0.455730
 30
0.0
 10
5.478048
 20
0.445805
 30
0.0
 10
5.478048
 20
0.435885
 30
0.0
 10
5.478048
 20
0.425969
 30
0.0
 10
5.478048
 20
0.416047
 30
0.0
 10
5.478048
 20
0.406129
 30
0.0
 10
5.478048
 20
0.396190
 30
0.0
 10
5.478048
 20
0.386265
 30
0.0
 10
5.478048
 20
0.376340
 30
0.0
 10
5.478048
 20
0.366403
 30
0.0
 10
5.478048
 20
0.356479
 30
0.0
 10
5.478377
 20
0.346151
 30
0.0
 10
5.479394
 20
0.335872
 30
0.0
 10
5.481142
 20
0.325687
 30
0.0
 10
5.483651
 20
0.315657
 30
0.0
 10
5.486491
 20
0.307145
 30
0.0
 10
5.489812
 20
0.298804
 30
0.0
 10
5.493657
 20
0.290680
 30
0.0
 10
5.498059
 20
0.282840
 30
0.0
 10
5.504377
 20
0.274791
 30
0.0
 10
5.511579
 20
0.267501
 30
0.0
 10
5.519670
 20
0.261229
 30
0.0
 10
5.528194
 20
0.256859
 30
0.0
 10
5.537357
 20
0.254134
 30
0.0
 10
5.546884
 20
0.253225
 30
0.0
 10
5.553487
 20
0.251024
 30
0.0
 10
5.555688
 20
0.244420
 30
0.0
 10
5.553487
 20
0.237817
 30
0.0
 10
5.546884
 20
0.235616
 30
0.0
 10
5.537188
 20
0.235990
 30
0.0
 10
5.527553
 20
0.237131
 30
0.0
 10
5.518043
 20
0.239056
 30
0.0
 10
5.508719
 20
0.241764
 30
0.0
 10
5.499659
 20
0.245221
 30
0.0
 10
5.491300
 20
0.249270
 30
0.0
 10
5.483236
 20
0.253869
 30
0.0
 10
5.475524
 20
0.259002
 30
0.0
 10
5.468174
 20
0.264671
 30
0.0
 10
5.461239
 20
0.270834
 30
0.0
 10
5.455072
 20
0.277774
 30
0.0
 10
5.449402
 20
0.285127
 30
0.0
 10
5.444263
 20
0.292849
 30
0.0
 10
5.439667
 20
0.300910
 30
0.0
 10
5.435626
 20
0.309254
 30
0.0
 10
5.432165
 20
0.318324
 30
0.0
 10
5.429459
 20
0.327647
 30
0.0
 10
5.427535
 20
0.337155
 30
0.0
 10
5.426395
 20
0.346779
 30
0.0
 10
5.426021
 20
0.356479
 30
0.0
 10
5.426021
 20
0.366491
 30
0.0
 10
5.426021
 20
0.376497
 30
0.0
 10
5.426021
 20
0.386505
 30
0.0
 10
5.426021
 20
0.396510
 30
0.0
 10
5.426021
 20
0.406515
 30
0.0
 10
5.426021
 20
0.416527
 30
0.0
 10
5.426021
 20
0.426532
 30
0.0
 10
5.426021
 20
0.436539
 30
0.0
 10
5.426021
 20
0.446535
 30
0.0
 10
5.426021
 20
0.456542
 30
0.0
 10
5.426021
 20
0.466536
 30
0.0
 10
5.426021
 20
0.476551
 30
0.0
 10
5.426021
 20
0.486565
 30
0.0
 10
5.426021
 20
0.496560
 30
0.0
 10
5.426021
 20
0.506571
 30
0.0
 10
5.426021
 20
0.516584
 30
0.0
 10
5.426021
 20
0.526596
 30
0.0
 10
5.426021
 20
0.536596
 30
0.0
 10
5.426021
 20
0.546596
 30
0.0
 10
5.426021
 20
0.556597
 30
0.0
 10
5.426021
 20
0.566599
 30
0.0
 10
5.426021
 20
0.576610
 30
0.0
 10
5.426021
 20
0.586610
 30
0.0
  0
LWPOLYLINE
  5
117
100
AcDbEntity
  8
Layer_1
 62
7
100
AcDbPolyline
 90
135
 70
1
 10
5.755816
 20
0.450127
 30
0.0
 10
5.747828
 20
0.454246
 30
0.0
 10
5.739526
 20
0.457703
 30
0.0
 10
5.731003
 20
0.460533
 30
0.0
 10
5.722334
 20
0.462855
 30
0.0
 10
5.713515
 20
0.464454
 30
0.0
 10
5.704589
 20
0.465335
 30
0.0
 10
5.695819
 20
0.465443
 30
0.0
 10
5.687089
 20
0.464573
 30
0.0
 10
5.678588
 20
0.462433
 30
0.0
 10
5.670648
 20
0.458724
 30
0.0
 10
5.663768
 20
0.453329
 30
0.0
 10
5.658507
 20
0.448120
 30
0.0
 10
5.654163
 20
0.442123
 30
0.0
 10
5.651521
 20
0.434363
 30
0.0
 10
5.650961
 20
0.426115
 30
0.0
 10
5.651748
 20
0.417554
 30
0.0
 10
5.654364
 20
0.409368
 30
0.0
 10
5.658965
 20
0.402102
 30
0.0
 10
5.665244
 20
0.396162
 30
0.0
 10
5.672251
 20
0.391124
 30
0.0
 10
5.679776
 20
0.386894
 30
0.0
 10
5.687008
 20
0.383676
 30
0.0
 10
5.694362
 20
0.380748
 30
0.0
 10
5.701837
 20
0.378089
 30
0.0
 10
5.709392
 20
0.375689
 30
0.0
 10
5.717520
 20
0.373243
 30
0.0
 10
5.725571
 20
0.370566
 30
0.0
 10
5.733531
 20
0.367651
 30
0.0
 10
5.741408
 20
0.364483
 30
0.0
 10
5.749735
 20
0.359991
 30
0.0
 10
5.757418
 20
0.354470
 30
0.0
 10
5.764272
 20
0.347958
 30
0.0
 10
5.770160
 20
0.340569
 30
0.0
 10
5.775026
 20
0.332466
 30
0.0
 10
5.778922
 20
0.324558
 30
0.0
 10
5.781926
 20
0.316254
 30
0.0
 10
5.783841
 20
0.307637
 30
0.0
 10
5.784504
 20
0.298840
 30
0.0
 10
5.783830
 20
0.290044
 30
0.0
 10
5.781292
 20
0.280044
 30
0.0
 10
5.776809
 20
0.270751
 30
0.0
 10
5.770537
 20
0.262566
 30
0.0
 10
5.762865
 20
0.255671
 30
0.0
 10
5.754215
 20
0.250023
 30
0.0
 10
5.745624
 20
0.245644
 30
0.0
 10
5.736690
 20
0.242028
 30
0.0
 10
5.727486
 20
0.239170
 30
0.0
 10
5.718097
 20
0.237045
 30
0.0
 10
5.708574
 20
0.235610
 30
0.0
 10
5.698986
 20
0.234815
 30
0.0
 10
5.689512
 20
0.234357
 30
0.0
 10
5.680026
 20
0.234507
 30
0.0
 10
5.670566
 20
0.235316
 30
0.0
 10
5.661199
 20
0.236821
 30
0.0
 10
5.651971
 20
0.239053
 30
0.0
 10
5.642957
 20
0.242019
 30
0.0
 10
5.634969
 20
0.245522
 30
0.0
 10
5.627224
 20
0.249534
 30
0.0
 10
5.619745
 20
0.254025
 30
0.0
 10
5.612392
 20
0.259429
 30
0.0
 10
5.605188
 20
0.265031
 30
0.0
 10
5.598134
 20
0.270834
 30
0.0
 10
5.594932
 20
0.277237
 30
0.0
 10
5.596933
 20
0.283241
 30
0.0
 10
5.602936
 20
0.285242
 30
0.0
 10
5.608539
 20
0.282840
 30
0.0
 10
5.614607
 20
0.277951
 30
0.0
 10
5.620739
 20
0.273155
 30
0.0
 10
5.626949
 20
0.268433
 30
0.0
 10
5.633358
 20
0.264478
 30
0.0
 10
5.640042
 20
0.260995
 30
0.0
 10
5.646959
 20
0.258027
 30
0.0
 10
5.656408
 20
0.254345
 30
0.0
 10
5.666169
 20
0.251624
 30
0.0
 10
5.673330
 20
0.250239
 30
0.0
 10
5.680534
 20
0.249162
 30
0.0
 10
5.687780
 20
0.248422
 30
0.0
 10
5.695048
 20
0.248681
 30
0.0
 10
5.702254
 20
0.249473
 30
0.0
 10
5.709392
 20
0.250824
 30
0.0
 10
5.716055
 20
0.252956
 30
0.0
 10
5.722241
 20
0.256187
 30
0.0
 10
5.727801
 20
0.260429
 30
0.0
 10
5.732818
 20
0.265550
 30
0.0
 10
5.736606
 20
0.271635
 30
0.0
 10
5.739469
 20
0.279813
 30
0.0
 10
5.740608
 20
0.288443
 30
0.0
 10
5.739751
 20
0.296888
 30
0.0
 10
5.736865
 20
0.304848
 30
0.0
 10
5.731803
 20
0.311655
 30
0.0
 10
5.725317
 20
0.317681
 30
0.0
 10
5.718017
 20
0.322706
 30
0.0
 10
5.710192
 20
0.326863
 30
0.0
 10
5.700819
 20
0.331156
 30
0.0
 10
5.691188
 20
0.334869
 30
0.0
 10
5.681377
 20
0.338069
 30
0.0
 10
5.673500
 20
0.340892
 30
0.0
 10
5.665673
 20
0.343832
 30
0.0
 10
5.657897
 20
0.346891
 30
0.0
 10
5.650161
 20
0.350075
 30
0.0
 10
5.640998
 20
0.354655
 30
0.0
 10
5.632366
 20
0.360179
 30
0.0
 10
5.624426
 20
0.366672
 30
0.0
 10
5.617344
 20
0.374088
 30
0.0
 10
5.611657
 20
0.382240
 30
0.0
 10
5.607594
 20
0.391318
 30
0.0
 10
5.605263
 20
0.400979
 30
0.0
 10
5.604537
 20
0.410907
 30
0.0
 10
5.604995
 20
0.419700
 30
0.0
 10
5.606501
 20
0.428380
 30
0.0
 10
5.609242
 20
0.436740
 30
0.0
 10
5.613342
 20
0.444524
 30
0.0
 10
5.618392
 20
0.450918
 30
0.0
 10
5.624120
 20
0.456706
 30
0.0
 10
5.630461
 20
0.461791
 30
0.0
 10
5.637354
 20
0.466136
 30
0.0
 10
5.644966
 20
0.469930
 30
0.0
 10
5.652886
 20
0.473052
 30
0.0
 10
5.661049
 20
0.475514
 30
0.0
 10
5.669371
 20
0.477341
 30
0.0
 10
5.678312
 20
0.478666
 30
0.0
 10
5.687311
 20
0.479524
 30
0.0
 10
5.696349
 20
0.479890
 30
0.0
 10
5.705390
 20
0.479743
 30
0.0
 10
5.715540
 20
0.479313
 30
0.0
 10
5.725616
 20
0.478016
 30
0.0
 10
5.735554
 20
0.475849
 30
0.0
 10
5.745263
 20
0.472847
 30
0.0
 10
5.754696
 20
0.469056
 30
0.0
 10
5.763820
 20
0.464535
 30
0.0
 10
5.768622
 20
0.457331
 30
0.0
 10
5.766429
 20
0.451325
 30
0.0
 10
5.760618
 20
0.448526
 30
0.0
 10
5.755816
 20
0.450127
 30
0.0
  0
ENDSEC
  0
SECTION
  2
OBJECTS
  0
DICTIONARY
  5
C
330
0
100
AcDbDictionary
  3
ACAD_GROUP
350
D
  3
ACAD_MLINESTYLE
350
17
  0
DICTIONARY
  5
D
330
C
100
AcDbDictionary
  0
DICTIONARY
  5
1A
330
C
100
AcDbDictionary
  0
DICTIONARY
  5
17
330
C
100
AcDbDictionary
  3
STANDARD
350
18
  0
DICTIONARY
  5
19
330
C
100
AcDbDictionary
  0
ENDSEC
  0
EOF
