<?xml version="1.0" encoding="UTF-8" standalone="no"?>
<!-- Created with Inkscape (http://www.inkscape.org/) -->

<svg
   xmlns:dc="http://purl.org/dc/elements/1.1/"
   xmlns:cc="http://creativecommons.org/ns#"
   xmlns:rdf="http://www.w3.org/1999/02/22-rdf-syntax-ns#"
   xmlns:svg="http://www.w3.org/2000/svg"
   xmlns="http://www.w3.org/2000/svg"
   xmlns:sodipodi="http://sodipodi.sourceforge.net/DTD/sodipodi-0.dtd"
   xmlns:inkscape="http://www.inkscape.org/namespaces/inkscape"
   width="156.67915mm"
   height="42.144115mm"
   viewBox="0 0 555.16235 149.32954"
   id="svg3464"
   version="1.1"
   inkscape:version="0.91 r13725"
   inkscape:export-filename="D:\Documents\Coriolis\Graphics\Logo.png"
   inkscape:export-xdpi="1199.9631"
   inkscape:export-ydpi="1199.9631"
   sodipodi:docname="CoriolisLogo.svg">
  <defs
     id="defs3466" />
  <sodipodi:namedview
     id="base"
     pagecolor="#ffffff"
     bordercolor="#666666"
     borderopacity="1.0"
     inkscape:pageopacity="0.0"
     inkscape:pageshadow="2"
     inkscape:zoom="0.98994949"
     inkscape:cx="-124.83357"
     inkscape:cy="-87.463897"
     inkscape:document-units="px"
     inkscape:current-layer="layer1"
     showgrid="false"
     fit-margin-top="0"
     fit-margin-left="0"
     fit-margin-right="0"
     fit-margin-bottom="0"
     inkscape:window-width="1920"
     inkscape:window-height="1017"
     inkscape:window-x="-8"
     inkscape:window-y="-8"
     inkscape:window-maximized="1" />
  <metadata
     id="metadata3469">
    <rdf:RDF>
      <cc:Work
         rdf:about="">
        <dc:format>image/svg+xml</dc:format>
        <dc:type
           rdf:resource="http://purl.org/dc/dcmitype/StillImage" />
        <dc:title></dc:title>
      </cc:Work>
    </rdf:RDF>
  </metadata>
  <g
     inkscape:label="Layer 1"
     inkscape:groupmode="layer"
     id="layer1"
     transform="translate(-95.100975,-33.382)">
    <path
       inkscape:original-d="m 113.11963,479.87164 c 0,0 -15.297718,-7.12804 0,-8.7932 15.15247,-1.64934 0,-8.79318 0,-8.79318 z"
       sodipodi:nodetypes="cscc"
       inkscape:connector-curvature="0"
       id="path8034-2"
       d="m 351.79821,107.45437 c -12.54195,1.35036 -24.88692,3.26902 -36.66828,7.39705 -6.64739,2.22748 -13.38999,5.33374 -17.96596,11.07788 -3.09748,4.08283 -3.83936,9.33571 -2.42507,13.88263 1.7711,5.39178 5.36958,9.6359 8.82333,13.01976 9.99104,9.90527 22.58997,16.87495 30.40297,21.07642 11.34807,5.54688 18.14836,8.8033 18.14836,8.8033 0,0 -6.51541,-3.80177 -17.44741,-10.06507 -7.46427,-4.68037 -19.5688,-12.38097 -28.55081,-22.26244 -3.08888,-3.4401 -6.20427,-7.37408 -7.34072,-11.77059 -0.9082,-3.27288 -0.19144,-7.13582 2.05809,-9.75856 3.60128,-4.51061 9.59647,-6.80486 15.99332,-8.992 11.26517,-3.67168 23.18133,-5.31281 35.59594,-6.67931 0.001,-8e-5 0.002,-2.4e-4 0.004,-4e-4 31.46081,-3.42446 47.6757,-9.3568 54.57979,-18.121414 6.90418,-8.7646 2.1387,-19.43306 -6.02276,-28.01712 -8.16154,-8.583978 -20.00622,-16.408318 -29.86649,-22.201442 -4.93005,-2.896645 -9.35972,-5.270586 -12.56416,-6.9244 -1.60231,-0.826886 -2.89814,-1.473676 -3.79668,-1.91529 -0.89855,-0.441281 -0.41274,-0.21243 -1.41263,-0.684183 A 17863.773,17863.773 0 0 0 349.23238,33.382 l 0,4.545024 c 0,72.392266 2.88154,144.784516 2.88154,144.784516 0,0 2.88145,-72.39225 2.88145,-144.784516 l 0,-0.0015 -4.11036,2.606348 c 0.94886,0.447077 0.46016,0.217347 1.32841,0.643787 0.86763,0.426439 2.13035,1.056606 3.6956,1.864408 3.13033,1.615614 7.47209,3.942626 12.28789,6.772091 9.6316,5.658772 21.17708,13.386698 28.60913,21.203543 7.43213,7.81692 10.46331,14.39801 5.67236,20.48003 -4.79103,6.08209 -19.76314,12.593539 -50.67632,15.958469 -10e-4,8e-5 -0.002,2.5e-4 -0.004,4.1e-4 z"
       style="display:inline;fill:#000000;fill-opacity:1;fill-rule:nonzero;stroke:none;stroke-width:2.99738479;stroke-linecap:butt;stroke-linejoin:miter;stroke-miterlimit:4;stroke-dasharray:none;stroke-opacity:1"
       inkscape:export-xdpi="1205.39"
       inkscape:export-ydpi="1205.39" />
    <text
       sodipodi:linespacing="125%"
       id="text2315-1"
       y="94.688095"
       x="95.100975"
       style="font-style:normal;font-variant:normal;font-weight:normal;font-stretch:normal;font-size:68.27845001px;line-height:125%;font-family:Quesha;-inkscape-font-specification:Quesha;letter-spacing:0px;word-spacing:0px;display:inline;fill:#000000;fill-opacity:1;stroke:none;stroke-width:0.07775079px;stroke-linecap:butt;stroke-linejoin:miter;stroke-opacity:1"
       xml:space="preserve"
       inkscape:export-xdpi="1205.39"
       inkscape:export-ydpi="1205.39"><tspan
         style="font-style:normal;font-variant:normal;font-weight:normal;font-stretch:normal;font-size:87.81704712px;font-family:Quesha;-inkscape-font-specification:Quesha;letter-spacing:4.93970823px;stroke-width:0.07775079px"
         y="94.688095"
         x="95.100975"
         id="tspan2313-9"
         sodipodi:role="line">Coriolis</tspan></text>
    <text
       id="text2315-8-9"
       y="170.04773"
       x="389.18234"
       style="font-style:normal;font-variant:normal;font-weight:normal;font-stretch:normal;font-size:87.81704712px;line-height:125%;font-family:Quesha;-inkscape-font-specification:Quesha;letter-spacing:0px;word-spacing:0px;baseline-shift:baseline;display:inline;fill:#000000;fill-opacity:1;stroke:none;stroke-width:0.07775079px;stroke-linecap:butt;stroke-linejoin:miter;stroke-opacity:1"
       xml:space="preserve"
       sodipodi:linespacing="125%"
       inkscape:export-xdpi="1205.39"
       inkscape:export-ydpi="1205.39"><tspan
         style="font-style:normal;font-variant:normal;font-weight:normal;font-stretch:normal;font-size:76.83991241px;font-family:Quesha;-inkscape-font-specification:Quesha;letter-spacing:1.75634074px;baseline-shift:baseline;stroke-width:0.07775079px"
         y="170.04773"
         x="389.18234"
         id="tspan2313-5-3"
         sodipodi:role="line">Instruments</tspan></text>
  </g>
</svg>
